<?xml version="1.0" encoding="UTF-8" standalone="no"?>
<!-- Created with Inkscape (http://www.inkscape.org/) -->

<svg
   xmlns:dc="http://purl.org/dc/elements/1.1/"
   xmlns:cc="http://creativecommons.org/ns#"
   xmlns:rdf="http://www.w3.org/1999/02/22-rdf-syntax-ns#"
   xmlns:svg="http://www.w3.org/2000/svg"
   xmlns="http://www.w3.org/2000/svg"
   xmlns:sodipodi="http://sodipodi.sourceforge.net/DTD/sodipodi-0.dtd"
   xmlns:inkscape="http://www.inkscape.org/namespaces/inkscape"
   width="105.25372mm"
   height="59.655155mm"
   viewBox="0 0 105.25371 59.655155"
   version="1.1"
   id="svg8"
   inkscape:version="0.92.4 (5da689c313, 2019-01-14)"
   sodipodi:docname="desvio.svg">
  <sodipodi:namedview
     id="base"
     pagecolor="#ffffff"
     bordercolor="#666666"
     borderopacity="1.0"
     inkscape:pageopacity="0.0"
     inkscape:pageshadow="2"
     inkscape:zoom="2.8284271"
     inkscape:cx="181.25638"
     inkscape:cy="124.25597"
     inkscape:document-units="mm"
     inkscape:current-layer="layer1"
     showgrid="false"
     inkscape:snap-bbox="true"
     inkscape:bbox-nodes="true"
     inkscape:snap-bbox-midpoints="true"
     inkscape:object-paths="false"
     inkscape:measure-start="0,0"
     inkscape:measure-end="0,0"
     inkscape:window-width="1920"
     inkscape:window-height="1027"
     inkscape:window-x="-8"
     inkscape:window-y="-8"
     inkscape:window-maximized="1"
     fit-margin-top="0"
     fit-margin-left="0"
     fit-margin-right="0"
     fit-margin-bottom="0" />
  <defs
     id="defs2">
    <marker
       inkscape:isstock="true"
       style="overflow:visible"
       id="Arrow1Lend"
       refX="0"
       refY="0"
       orient="auto"
       inkscape:stockid="Arrow1Lend">
      <path
         inkscape:connector-curvature="0"
         transform="matrix(-0.8,0,0,-0.8,-10,0)"
         style="fill:#0000ff;fill-opacity:1;fill-rule:evenodd;stroke:#0000ff;stroke-width:1.00000003pt;stroke-opacity:1"
         d="M 0,0 5,-5 -12.5,0 5,5 Z"
         id="path875" />
    </marker>
    <inkscape:path-effect
       effect="bspline"
       id="path-effect858"
       is_visible="true"
       weight="33.333333"
       steps="2"
       helper_size="0"
       apply_no_weight="true"
       apply_with_weight="true"
       only_selected="false" />
    <inkscape:path-effect
       effect="bspline"
       id="path-effect854"
       is_visible="true"
       weight="33.333333"
       steps="2"
       helper_size="0"
       apply_no_weight="true"
       apply_with_weight="true"
       only_selected="false" />
    <inkscape:path-effect
       effect="bspline"
       id="path-effect361"
       is_visible="true"
       weight="33.333333"
       steps="2"
       helper_size="0"
       apply_no_weight="true"
       apply_with_weight="true"
       only_selected="false" />
    <inkscape:path-effect
       only_selected="false"
       apply_with_weight="true"
       apply_no_weight="true"
       helper_size="0"
       steps="2"
       weight="33.333333"
       is_visible="true"
       id="path-effect6300"
       effect="bspline" />
    <inkscape:path-effect
       only_selected="false"
       apply_with_weight="true"
       apply_no_weight="true"
       helper_size="0"
       steps="2"
       weight="33.333333"
       is_visible="true"
       id="path-effect6294"
       effect="bspline" />
    <inkscape:path-effect
       only_selected="false"
       apply_with_weight="true"
       apply_no_weight="true"
       helper_size="0"
       steps="2"
       weight="33.333333"
       is_visible="true"
       id="path-effect3744"
       effect="bspline" />
    <inkscape:path-effect
       only_selected="false"
       apply_with_weight="true"
       apply_no_weight="true"
       helper_size="0"
       steps="2"
       weight="33.333333"
       is_visible="true"
       id="path-effect3730"
       effect="bspline" />
    <inkscape:path-effect
       only_selected="false"
       apply_with_weight="true"
       apply_no_weight="true"
       helper_size="0"
       steps="2"
       weight="33.333333"
       is_visible="true"
       id="path-effect3703"
       effect="bspline" />
    <inkscape:path-effect
       only_selected="false"
       apply_with_weight="true"
       apply_no_weight="true"
       helper_size="0"
       steps="2"
       weight="33.333333"
       is_visible="true"
       id="path-effect3744-6"
       effect="bspline" />
    <inkscape:path-effect
       only_selected="false"
       apply_with_weight="true"
       apply_no_weight="true"
       helper_size="0"
       steps="2"
       weight="33.333333"
       is_visible="true"
       id="path-effect3744-5"
       effect="bspline" />
  </defs>
  <metadata
     id="metadata5">
    <rdf:RDF>
      <cc:Work
         rdf:about="">
        <dc:format>image/svg+xml</dc:format>
        <dc:type
           rdf:resource="http://purl.org/dc/dcmitype/StillImage" />
        <dc:title></dc:title>
      </cc:Work>
    </rdf:RDF>
  </metadata>
  <g
     transform="translate(-4.2953946,-31.309795)"
     inkscape:label="Capa 2"
     id="layer2"
     inkscape:groupmode="layer">
    <path
       transform="scale(0.26458333)"
       inkscape:connector-curvature="0"
       id="path1606"
       d="m 21.04572,342.38679 c 0.07112,-0.46816 2.166994,-1.2783 10.928256,-4.22422 40.942688,-13.76674 94.175854,-22.67599 149.995024,-25.10359 19.54435,-0.84999 43.62137,-0.91602 62.84412,-0.17235 56.97981,2.20439 109.84893,10.73819 151.32085,24.42526 5.69131,1.87831 14.3222,5.04269 14.65774,5.37401 0.0405,0.04 -87.64849,0.0727 -194.86442,0.0727 H 20.989231 Z"
       style="opacity:1;fill:#000000;fill-opacity:1;stroke:#000000;stroke-width:0.37795275;stroke-linecap:round;stroke-linejoin:round;stroke-miterlimit:4;stroke-dasharray:none;stroke-dashoffset:10.62047291;stroke-opacity:1;paint-order:fill markers stroke" />
  </g>
  <g
     id="layer1"
     inkscape:groupmode="layer"
     inkscape:label="Capa 1"
     transform="translate(-4.2953946,-228.3098)">
    <path
       inkscape:original-d="m 44.753144,202.2127 c 1.12064,25.61238 2.24101,51.22502 3.36111,76.83792"
       inkscape:path-effect="#path-effect3744"
       inkscape:connector-curvature="0"
       id="path3742"
       d="m 44.753144,202.2127 c 1.120359,25.61239 2.240729,51.22503 3.36111,76.83792"
       style="opacity:1;fill:#ff0000;fill-opacity:1;stroke:#ff1300;stroke-width:0.26499999;stroke-linecap:butt;stroke-linejoin:miter;stroke-miterlimit:4;stroke-dasharray:none;stroke-opacity:1;paint-order:markers fill stroke"
       transform="matrix(0.66048713,0,0,0.66048713,20.31368,94.754734)" />
    <path
       inkscape:original-d="m 66.405333,202.34005 c -0.91447,25.62058 -1.82869,51.24141 -2.74262,76.8625"
       inkscape:path-effect="#path-effect3744-5"
       inkscape:connector-curvature="0"
       id="path3742-5"
       d="m 66.405333,202.34005 c -0.914198,25.62059 -1.828405,51.24142 -2.74262,76.8625"
       style="fill:none;stroke:#ff0000;stroke-width:0.26458332px;stroke-linecap:butt;stroke-linejoin:miter;stroke-opacity:1"
       transform="matrix(0.66048713,0,0,0.66048713,20.31368,94.754734)" />
    <circle
       r="0.50241745"
       cy="235.14542"
       cx="50.169109"
       id="path6341"
       style="opacity:1;fill:#000000;fill-opacity:1;stroke:#000000;stroke-width:0.17502908;stroke-miterlimit:4;stroke-dasharray:none;stroke-opacity:1;paint-order:markers fill stroke" />
    <circle
       r="0.50241745"
       cy="235.19434"
       cx="63.916107"
       id="path6341-2"
       style="opacity:1;fill:#000000;fill-opacity:1;stroke:#000000;stroke-width:0.17502908;stroke-miterlimit:4;stroke-dasharray:none;stroke-opacity:1;paint-order:markers fill stroke" />
    <g
       transform="matrix(0.20233168,0,0,0.20233168,28.577494,215.88307)"
       id="g132">
      <g
         style="font-style:normal;font-variant:normal;font-weight:normal;font-stretch:normal;letter-spacing:normal;word-spacing:normal;text-anchor:start;fill:none;fill-opacity:1;fill-rule:evenodd;stroke:#000000;stroke-linecap:butt;stroke-linejoin:miter;stroke-miterlimit:10.43299961;stroke-dasharray:none;stroke-dashoffset:0;stroke-opacity:1"
         word-spacing="normal"
         letter-spacing="normal"
         font-size-adjust="none"
         font-stretch="normal"
         font-weight="normal"
         font-variant="normal"
         font-style="normal"
         stroke-miterlimit="10.433"
         xml:space="preserve"
         transform="matrix(0.3,0,0,-0.3,-52.5,222.75)"
         id="content"><path
           style="fill:#000000;stroke-width:0"
           inkscape:connector-curvature="0"
           id="path125"
           d="m 472.16,421.25 0.03,0.13 0.04,0.15 0.04,0.16 0.04,0.18 0.06,0.19 0.06,0.21 0.06,0.22 0.07,0.22 0.08,0.23 0.09,0.24 0.1,0.25 0.1,0.24 0.11,0.25 0.12,0.25 0.13,0.25 0.14,0.25 0.15,0.24 0.15,0.24 0.17,0.23 0.18,0.22 0.18,0.22 0.2,0.2 0.21,0.19 0.22,0.18 0.23,0.16 0.25,0.14 0.12,0.07 0.13,0.06 0.14,0.05 0.13,0.05 0.14,0.05 0.14,0.04 0.15,0.03 0.15,0.03 0.15,0.02 0.16,0.02 0.16,0.01 h 0.16 c 0.25,0 1.44,0 2.48,-0.64 -1.39,-0.25 -2.39,-1.5 -2.39,-2.69 0,-0.79 0.55,-1.75 1.89,-1.75 1.1,0 2.69,0.89 2.69,2.89 0,2.6 -2.94,3.28 -4.63,3.28 -2.89,0 -4.64,-2.64 -5.23,-3.78 -1.25,3.28 -3.94,3.78 -5.37,3.78 -5.19,0 -8.04,-6.42 -8.04,-7.67 0,-0.5 0.5,-0.5 0.61,-0.5 0.39,0 0.55,0.11 0.64,0.55 1.69,5.28 4.99,6.53 6.68,6.53 0.95,0 2.68,-0.44 2.68,-3.33 0,-1.54 -0.84,-4.89 -2.68,-11.86 -0.8,-3.09 -2.54,-5.18 -4.74,-5.18 -0.3,0 -1.44,0 -2.48,0.65 1.25,0.24 2.34,1.28 2.34,2.69 0,1.34 -1.09,1.73 -1.84,1.73 -1.5,0 -2.75,-1.29 -2.75,-2.89 0,-2.28 2.5,-3.28 4.68,-3.28 3.3,0 5.08,3.49 5.24,3.78 0.59,-1.84 2.39,-3.78 5.37,-3.78 5.14,0 7.99,6.42 7.99,7.67 0,0.5 -0.45,0.5 -0.61,0.5 -0.44,0 -0.55,-0.2 -0.64,-0.54 -1.64,-5.33 -5.03,-6.53 -6.63,-6.53 -1.95,0 -2.75,1.59 -2.75,3.29 0,1.1 0.3,2.19 0.86,4.38 z" /><path
           style="fill:#000000;stroke-width:0"
           inkscape:connector-curvature="0"
           id="path127"
           d="m 485.84,424.47 -0.02,-0.05 -0.01,-0.04 -0.01,-0.05 -0.01,-0.04 v -0.04 l -0.01,-0.04 -0.01,-0.03 -0.01,-0.04 v -0.03 l -0.01,-0.03 v -0.03 l -0.01,-0.03 v -0.03 l -0.01,-0.02 v -0.03 -0.02 l -0.01,-0.02 v -0.02 -0.02 -0.02 -0.01 l -0.01,-0.02 v -0.01 -0.01 -0.01 -0.01 -0.01 -0.01 0 -0.01 0 -0.01 c 0,-0.76 0.63,-1.11 1.17,-1.11 1.27,0 1.53,1.15 1.67,1.74 0.08,0.17 0.77,2.97 1.61,6.37 1.08,-0.71 2.47,-1 3.74,-1 2.98,0 4.94,2.44 5.01,2.5 0.66,-2.4 3.07,-2.5 3.58,-2.5 1.27,0 2.13,0.77 2.77,1.85 0.76,1.36 1.22,3.34 1.22,3.48 0,0.46 -0.46,0.46 -0.57,0.46 -0.48,0 -0.53,-0.14 -0.76,-1.08 -0.42,-1.67 -1.08,-3.74 -2.55,-3.74 -0.9,0 -1.15,0.77 -1.15,1.71 0,0.59 0.28,1.86 0.53,2.76 0.25,0.94 0.59,2.36 0.76,3.13 l 0.8,3.11 c 0.22,0.87 0.59,2.4 0.59,2.57 0,0.69 -0.54,1.11 -1.14,1.11 -0.39,0 -1.04,-0.17 -1.44,-0.82 -0.1,-0.22 -0.37,-1.33 -0.56,-2.04 l -0.72,-2.89 -1.07,-4.36 c -0.25,-0.86 -0.25,-0.93 -0.57,-1.39 -1.08,-1.53 -2.61,-2.89 -4.61,-2.89 -2.84,0 -2.84,2.47 -2.84,3.11 0,0.91 0.09,1.36 0.59,3.24 0.35,1.53 0.41,1.78 0.77,3.14 l 0.48,1.95 c 0.18,0.72 0.52,2.05 0.52,2.19 0,0.62 -0.49,1.11 -1.19,1.11 -1.25,0 -1.56,-1.22 -1.67,-1.63 z" /><path
           style="fill:#000000;stroke-width:0"
           inkscape:connector-curvature="0"
           id="path129"
           d="m 495.63,415.04 v 0.04 0.04 0.04 0.04 0.04 0.04 0.04 0.03 0.03 0.04 l -0.01,0.03 v 0.03 0.03 l -0.01,0.03 v 0.02 0.03 l -0.01,0.03 v 0.02 l -0.01,0.02 v 0.03 l -0.01,0.04 -0.02,0.04 -0.02,0.03 -0.02,0.03 -0.02,0.03 -0.02,0.02 -0.03,0.03 -0.03,0.02 -0.03,0.01 -0.04,0.02 -0.04,0.01 -0.05,0.01 -0.04,0.01 -0.03,0.01 h -0.03 -0.02 l -0.03,0.01 h -0.03 -0.03 -0.03 -0.04 l -0.03,0.01 h -0.04 -0.03 -0.04 -0.04 -0.04 -0.04 -0.04 -0.05 -0.04 c -2.24,-2.2 -5.39,-2.23 -6.83,-2.23 v -1.25 c 0.84,0 3.14,0 5.04,0.96 v -17.76 c 0,-1.16 0,-1.61 -3.48,-1.61 h -1.31 v -1.25 c 0.62,0.03 4.9,0.14 6.2,0.14 1.08,0 5.47,-0.11 6.24,-0.14 v 1.25 h -1.33 c -3.49,0 -3.49,0.45 -3.49,1.61 z" /></g>    </g>
    <g
       transform="matrix(0.18310479,0,0,0.18310479,50.327192,218.14615)"
       id="g208">
      <g
         style="font-style:normal;font-variant:normal;font-weight:normal;font-stretch:normal;letter-spacing:normal;word-spacing:normal;text-anchor:start;fill:none;fill-opacity:1;fill-rule:evenodd;stroke:#000000;stroke-linecap:butt;stroke-linejoin:miter;stroke-miterlimit:10.43299961;stroke-dasharray:none;stroke-dashoffset:0;stroke-opacity:1"
         id="g206"
         transform="matrix(0.3,0,0,-0.3,-52.5,222.75)"
         xml:space="preserve"
         stroke-miterlimit="10.433"
         font-style="normal"
         font-variant="normal"
         font-weight="normal"
         font-stretch="normal"
         font-size-adjust="none"
         letter-spacing="normal"
         word-spacing="normal"><path
           style="fill:#000000;stroke-width:0"
           inkscape:connector-curvature="0"
           d="m 472.16,421.25 0.03,0.13 0.04,0.15 0.04,0.16 0.04,0.18 0.06,0.19 0.06,0.21 0.06,0.22 0.07,0.22 0.08,0.23 0.09,0.24 0.1,0.25 0.1,0.24 0.11,0.25 0.12,0.25 0.13,0.25 0.14,0.25 0.15,0.24 0.15,0.24 0.17,0.23 0.18,0.22 0.18,0.22 0.2,0.2 0.21,0.19 0.22,0.18 0.23,0.16 0.25,0.14 0.12,0.07 0.13,0.06 0.14,0.05 0.13,0.05 0.14,0.05 0.14,0.04 0.15,0.03 0.15,0.03 0.15,0.02 0.16,0.02 0.16,0.01 h 0.16 c 0.25,0 1.44,0 2.48,-0.64 -1.39,-0.25 -2.39,-1.5 -2.39,-2.69 0,-0.79 0.55,-1.75 1.89,-1.75 1.1,0 2.69,0.89 2.69,2.89 0,2.6 -2.94,3.28 -4.63,3.28 -2.89,0 -4.64,-2.64 -5.23,-3.78 -1.25,3.28 -3.94,3.78 -5.37,3.78 -5.19,0 -8.04,-6.42 -8.04,-7.67 0,-0.5 0.5,-0.5 0.61,-0.5 0.39,0 0.55,0.11 0.64,0.55 1.69,5.28 4.99,6.53 6.68,6.53 0.95,0 2.68,-0.44 2.68,-3.33 0,-1.54 -0.84,-4.89 -2.68,-11.86 -0.8,-3.09 -2.54,-5.18 -4.74,-5.18 -0.3,0 -1.44,0 -2.48,0.65 1.25,0.24 2.34,1.28 2.34,2.69 0,1.34 -1.09,1.73 -1.84,1.73 -1.5,0 -2.75,-1.29 -2.75,-2.89 0,-2.28 2.5,-3.28 4.68,-3.28 3.3,0 5.08,3.49 5.24,3.78 0.59,-1.84 2.39,-3.78 5.37,-3.78 5.14,0 7.99,6.42 7.99,7.67 0,0.5 -0.45,0.5 -0.61,0.5 -0.44,0 -0.55,-0.2 -0.64,-0.54 -1.64,-5.33 -5.03,-6.53 -6.63,-6.53 -1.95,0 -2.75,1.59 -2.75,3.29 0,1.1 0.3,2.19 0.86,4.38 z"
           id="path182" /><path
           style="fill:#000000;stroke-width:0"
           inkscape:connector-curvature="0"
           d="m 485.84,424.47 -0.02,-0.05 -0.01,-0.04 -0.01,-0.05 -0.01,-0.04 v -0.04 l -0.01,-0.04 -0.01,-0.03 -0.01,-0.04 v -0.03 l -0.01,-0.03 v -0.03 l -0.01,-0.03 v -0.03 l -0.01,-0.02 v -0.03 -0.02 l -0.01,-0.02 v -0.02 -0.02 -0.02 -0.01 l -0.01,-0.02 v -0.01 -0.01 -0.01 -0.01 -0.01 -0.01 0 -0.01 0 -0.01 c 0,-0.76 0.63,-1.11 1.17,-1.11 1.27,0 1.53,1.15 1.67,1.74 0.08,0.17 0.77,2.97 1.61,6.37 1.08,-0.71 2.47,-1 3.74,-1 2.98,0 4.94,2.44 5.01,2.5 0.66,-2.4 3.07,-2.5 3.58,-2.5 1.27,0 2.13,0.77 2.77,1.85 0.76,1.36 1.22,3.34 1.22,3.48 0,0.46 -0.46,0.46 -0.57,0.46 -0.48,0 -0.53,-0.14 -0.76,-1.08 -0.42,-1.67 -1.08,-3.74 -2.55,-3.74 -0.9,0 -1.15,0.77 -1.15,1.71 0,0.59 0.28,1.86 0.53,2.76 0.25,0.94 0.59,2.36 0.76,3.13 l 0.8,3.11 c 0.22,0.87 0.59,2.4 0.59,2.57 0,0.69 -0.54,1.11 -1.14,1.11 -0.39,0 -1.04,-0.17 -1.44,-0.82 -0.1,-0.22 -0.37,-1.33 -0.56,-2.04 l -0.72,-2.89 -1.07,-4.36 c -0.25,-0.86 -0.25,-0.93 -0.57,-1.39 -1.08,-1.53 -2.61,-2.89 -4.61,-2.89 -2.84,0 -2.84,2.47 -2.84,3.11 0,0.91 0.09,1.36 0.59,3.24 0.35,1.53 0.41,1.78 0.77,3.14 l 0.48,1.95 c 0.18,0.72 0.52,2.05 0.52,2.19 0,0.62 -0.49,1.11 -1.19,1.11 -1.25,0 -1.56,-1.22 -1.67,-1.63 z"
           id="path184" /><path
           style="fill:#000000;stroke-width:0"
           inkscape:connector-curvature="0"
           d="m 501.55,399.22 h -1.18 c -0.1,-0.76 -0.46,-2.83 -0.91,-3.17 -0.26,-0.2 -2.95,-0.2 -3.44,-0.2 h -6.42 c 3.66,3.23 4.88,4.2 6.97,5.84 2.58,2.06 4.98,4.22 4.98,7.53 0,4.22 -3.68,6.8 -8.15,6.8 -4.31,0 -7.25,-3.03 -7.25,-6.23 0,-1.79 1.5,-1.96 1.86,-1.96 0.83,0 1.84,0.6 1.84,1.85 0,0.62 -0.25,1.84 -2.06,1.84 1.08,2.47 3.45,3.23 5.09,3.23 3.49,0 5.3,-2.7 5.3,-5.53 0,-3.03 -2.16,-5.43 -3.28,-6.68 l -8.39,-8.3 c -0.36,-0.31 -0.36,-0.39 -0.36,-1.36 h 14.36 z"
           id="path186" /><path
           style="fill:#000000;stroke-width:0"
           inkscape:connector-curvature="0"
           d="m 558.75,422.5 h 0.14 0.15 0.14 l 0.07,0.01 h 0.08 l 0.07,0.01 0.07,0.01 0.07,0.01 0.07,0.01 0.07,0.01 0.06,0.02 0.07,0.02 0.06,0.02 0.06,0.02 0.06,0.03 0.06,0.03 0.05,0.04 0.05,0.03 0.05,0.05 0.04,0.04 0.04,0.05 0.02,0.03 0.02,0.03 0.01,0.02 0.02,0.03 0.01,0.03 0.02,0.04 0.01,0.03 0.01,0.04 0.01,0.03 0.01,0.04 v 0.04 l 0.01,0.04 v 0.04 l 0.01,0.04 v 0.04 0.05 c 0,1 -0.95,1 -1.64,1 h -29.84 c -0.71,0 -1.64,0 -1.64,-1 0,-0.98 0.93,-0.98 1.68,-0.98 z"
           id="path188" /><path
           style="fill:#000000;stroke-width:0"
           inkscape:connector-curvature="0"
           d="m 558.8,412.82 h 0.07 0.06 l 0.14,0.01 h 0.14 0.07 l 0.07,0.01 0.07,0.01 h 0.07 l 0.06,0.01 0.07,0.02 0.07,0.01 0.06,0.02 0.07,0.02 0.06,0.02 0.06,0.02 0.06,0.03 0.05,0.03 0.05,0.04 0.05,0.04 0.05,0.04 0.04,0.05 0.02,0.02 0.02,0.03 0.02,0.02 0.02,0.03 0.01,0.03 0.02,0.03 0.01,0.03 0.02,0.03 0.01,0.04 0.01,0.03 0.01,0.04 0.01,0.04 v 0.04 l 0.01,0.04 v 0.04 l 0.01,0.04 v 0.05 0.04 c 0,1 -0.95,1 -1.69,1 H 529 c -0.75,0 -1.68,0 -1.68,-1 0,-1 0.93,-1 1.64,-1 z"
           id="path190" /><path
           style="fill:#000000;stroke-width:0"
           inkscape:connector-curvature="0"
           d="m 593.84,421.25 0.03,0.13 0.04,0.15 0.04,0.16 0.04,0.18 0.06,0.19 0.06,0.21 0.06,0.22 0.07,0.22 0.08,0.23 0.09,0.24 0.1,0.25 0.1,0.24 0.11,0.25 0.12,0.25 0.13,0.25 0.14,0.25 0.14,0.24 0.16,0.24 0.17,0.23 0.18,0.22 0.18,0.22 0.2,0.2 0.21,0.19 0.22,0.18 0.23,0.16 0.25,0.14 0.12,0.07 0.13,0.06 0.14,0.05 0.13,0.05 0.14,0.05 0.14,0.04 0.15,0.03 0.15,0.03 0.15,0.02 0.16,0.02 0.15,0.01 h 0.17 c 0.25,0 1.44,0 2.48,-0.64 -1.39,-0.25 -2.39,-1.5 -2.39,-2.69 0,-0.79 0.55,-1.75 1.89,-1.75 1.09,0 2.69,0.89 2.69,2.89 0,2.6 -2.94,3.28 -4.63,3.28 -2.89,0 -4.64,-2.64 -5.23,-3.78 -1.25,3.28 -3.94,3.78 -5.37,3.78 -5.19,0 -8.04,-6.42 -8.04,-7.67 0,-0.5 0.5,-0.5 0.61,-0.5 0.39,0 0.55,0.11 0.64,0.55 1.69,5.28 4.99,6.53 6.67,6.53 0.96,0 2.69,-0.44 2.69,-3.33 0,-1.54 -0.84,-4.89 -2.69,-11.86 -0.79,-3.09 -2.53,-5.18 -4.73,-5.18 -0.3,0 -1.44,0 -2.48,0.65 1.25,0.24 2.34,1.28 2.34,2.69 0,1.34 -1.09,1.73 -1.84,1.73 -1.5,0 -2.75,-1.29 -2.75,-2.89 0,-2.28 2.5,-3.28 4.68,-3.28 3.3,0 5.08,3.49 5.24,3.78 0.59,-1.84 2.39,-3.78 5.37,-3.78 5.14,0 7.99,6.42 7.99,7.67 0,0.5 -0.45,0.5 -0.61,0.5 -0.44,0 -0.55,-0.2 -0.64,-0.54 -1.64,-5.33 -5.03,-6.53 -6.63,-6.53 -1.95,0 -2.75,1.59 -2.75,3.29 0,1.1 0.3,2.19 0.86,4.38 z"
           id="path192" /><path
           style="fill:#000000;stroke-width:0"
           inkscape:connector-curvature="0"
           d="m 607.52,424.47 -0.02,-0.05 -0.01,-0.04 -0.01,-0.05 -0.01,-0.04 v -0.04 l -0.01,-0.04 -0.01,-0.03 -0.01,-0.04 v -0.03 l -0.01,-0.03 v -0.03 l -0.01,-0.03 v -0.03 l -0.01,-0.02 v -0.03 -0.02 l -0.01,-0.02 v -0.02 -0.02 -0.02 -0.01 l -0.01,-0.02 v -0.01 -0.01 -0.01 -0.01 -0.01 -0.01 0 -0.01 0 -0.01 c 0,-0.76 0.63,-1.11 1.17,-1.11 1.27,0 1.53,1.15 1.67,1.74 0.08,0.17 0.77,2.97 1.61,6.37 1.08,-0.71 2.47,-1 3.74,-1 2.98,0 4.94,2.44 5.01,2.5 0.66,-2.4 3.07,-2.5 3.58,-2.5 1.27,0 2.13,0.77 2.77,1.85 0.76,1.36 1.22,3.34 1.22,3.48 0,0.46 -0.46,0.46 -0.57,0.46 -0.48,0 -0.53,-0.14 -0.76,-1.08 -0.42,-1.67 -1.08,-3.74 -2.55,-3.74 -0.9,0 -1.16,0.77 -1.16,1.71 0,0.59 0.29,1.86 0.54,2.76 0.25,0.94 0.59,2.36 0.76,3.13 l 0.8,3.11 c 0.22,0.87 0.59,2.4 0.59,2.57 0,0.69 -0.54,1.11 -1.14,1.11 -0.39,0 -1.05,-0.17 -1.44,-0.82 -0.11,-0.22 -0.37,-1.33 -0.56,-2.04 l -0.72,-2.89 -1.07,-4.36 c -0.26,-0.86 -0.26,-0.93 -0.57,-1.39 -1.08,-1.53 -2.61,-2.89 -4.61,-2.89 -2.84,0 -2.84,2.47 -2.84,3.11 0,0.91 0.09,1.36 0.59,3.24 0.35,1.53 0.41,1.78 0.77,3.14 l 0.48,1.95 c 0.18,0.72 0.52,2.05 0.52,2.19 0,0.62 -0.49,1.11 -1.19,1.11 -1.25,0 -1.56,-1.22 -1.67,-1.63 z"
           id="path194" /><path
           style="fill:#000000;stroke-width:0"
           inkscape:connector-curvature="0"
           d="m 617.31,415.04 v 0.04 0.04 0.04 0.04 0.04 0.04 0.04 0.03 0.03 0.04 l -0.01,0.03 v 0.03 0.03 l -0.01,0.03 v 0.02 0.03 l -0.01,0.03 v 0.02 l -0.01,0.02 v 0.03 l -0.01,0.04 -0.02,0.04 -0.02,0.03 -0.02,0.03 -0.02,0.03 -0.02,0.02 -0.03,0.03 -0.03,0.02 -0.03,0.01 -0.04,0.02 -0.04,0.01 -0.05,0.01 -0.04,0.01 -0.03,0.01 h -0.03 -0.02 l -0.03,0.01 h -0.03 -0.03 -0.03 -0.04 l -0.03,0.01 h -0.04 -0.03 -0.04 -0.04 -0.04 -0.04 -0.04 -0.05 -0.04 c -2.24,-2.2 -5.39,-2.23 -6.83,-2.23 v -1.25 c 0.84,0 3.14,0 5.04,0.96 v -17.76 c 0,-1.16 0,-1.61 -3.48,-1.61 h -1.31 v -1.25 c 0.62,0.03 4.9,0.14 6.2,0.14 1.08,0 5.47,-0.11 6.23,-0.14 v 1.25 h -1.32 c -3.49,0 -3.49,0.45 -3.49,1.61 z"
           id="path196" /><path
           style="fill:#000000;stroke-width:0"
           inkscape:connector-curvature="0"
           d="m 663.82,417.65 h 13.9 c 0.69,0 1.64,0 1.64,1 0,1 -0.95,1 -1.64,1 h -13.9 v 13.96 c 0,0.68 0,1.64 -1,1.64 -0.99,0 -0.99,-0.96 -0.99,-1.64 v -13.96 h -13.95 c -0.7,0 -1.64,0 -1.64,-1 0,-1 0.94,-1 1.64,-1 h 13.95 v -13.94 c 0,-0.7 0,-1.65 0.99,-1.65 1,0 1,0.95 1,1.65 z"
           id="path198" /><path
           style="fill:#000000;stroke-width:0"
           inkscape:connector-curvature="0"
           d="m 706.4,427.96 -0.59,-0.15 -0.57,-0.18 -0.56,-0.21 -0.55,-0.24 -0.54,-0.26 -0.53,-0.28 -0.52,-0.31 -0.5,-0.33 -0.5,-0.35 -0.47,-0.38 -0.47,-0.39 -0.45,-0.41 -0.43,-0.42 -0.41,-0.45 -0.4,-0.46 -0.38,-0.47 -0.37,-0.49 -0.34,-0.5 -0.33,-0.51 -0.3,-0.52 -0.29,-0.53 -0.26,-0.53 -0.24,-0.55 -0.22,-0.55 -0.19,-0.56 -0.17,-0.56 -0.15,-0.57 -0.12,-0.56 -0.09,-0.57 -0.07,-0.57 -0.04,-0.57 -0.02,-0.57 c 0,-4.78 3.19,-8.35 7.88,-8.35 v 1.09 c -2.75,0 -4.78,2.09 -4.78,5.87 0,3.14 1.84,12.5 8.56,14.3 v 0 c 1.25,-2.28 2.73,-4.98 2.73,-8.56 0,-3.3 -1.89,-11.61 -6.51,-11.61 v -1.09 c 5.82,0 9.95,7.81 9.95,14.68 0,4.55 -1.98,7.03 -3.69,9.27 -1.78,2.25 -4.72,5.98 -4.72,8.17 0,1.11 0.99,2.3 2.74,2.3 1.5,0 2.48,-0.64 3.53,-1.35 1,-0.59 2,-1.25 2.75,-1.25 1.23,0 1.98,1.21 1.98,2 0,1.1 -0.79,1.24 -2.59,1.64 -2.58,0.55 -3.28,0.55 -4.08,0.55 -3.89,0 -5.68,-2.14 -5.68,-5.12 0,-2.71 1.45,-5.49 3,-8.54 z"
           id="path200" /><path
           style="fill:#000000;stroke-width:0"
           inkscape:connector-curvature="0"
           d="m 733.88,421.25 0.03,0.13 0.03,0.15 0.04,0.16 0.05,0.18 0.05,0.19 0.06,0.21 0.07,0.22 0.07,0.22 0.08,0.23 0.09,0.24 0.09,0.25 0.11,0.24 0.11,0.25 0.12,0.25 0.13,0.25 0.13,0.25 0.15,0.24 0.16,0.24 0.16,0.23 0.18,0.22 0.19,0.22 0.2,0.2 0.21,0.19 0.22,0.18 0.23,0.16 0.24,0.14 0.13,0.07 0.13,0.06 0.13,0.05 0.14,0.05 0.14,0.05 0.14,0.04 0.15,0.03 0.14,0.03 0.16,0.02 0.15,0.02 0.16,0.01 h 0.16 c 0.25,0 1.44,0 2.49,-0.64 -1.39,-0.25 -2.39,-1.5 -2.39,-2.69 0,-0.79 0.54,-1.75 1.89,-1.75 1.09,0 2.68,0.89 2.68,2.89 0,2.6 -2.93,3.28 -4.62,3.28 -2.89,0 -4.64,-2.64 -5.24,-3.78 -1.24,3.28 -3.93,3.78 -5.37,3.78 -5.19,0 -8.03,-6.42 -8.03,-7.67 0,-0.5 0.5,-0.5 0.61,-0.5 0.39,0 0.55,0.11 0.64,0.55 1.69,5.28 4.98,6.53 6.67,6.53 0.95,0 2.69,-0.44 2.69,-3.33 0,-1.54 -0.85,-4.89 -2.69,-11.86 -0.8,-3.09 -2.53,-5.18 -4.73,-5.18 -0.3,0 -1.44,0 -2.49,0.65 1.25,0.24 2.35,1.28 2.35,2.69 0,1.34 -1.1,1.73 -1.85,1.73 -1.5,0 -2.75,-1.29 -2.75,-2.89 0,-2.28 2.5,-3.28 4.69,-3.28 3.3,0 5.08,3.49 5.23,3.78 0.6,-1.84 2.39,-3.78 5.38,-3.78 5.14,0 7.98,6.42 7.98,7.67 0,0.5 -0.45,0.5 -0.61,0.5 -0.43,0 -0.54,-0.2 -0.64,-0.54 -1.64,-5.33 -5.03,-6.53 -6.62,-6.53 -1.96,0 -2.75,1.59 -2.75,3.29 0,1.1 0.29,2.19 0.86,4.38 z"
           id="path202" /><path
           style="fill:#000000;stroke-width:0"
           inkscape:connector-curvature="0"
           d="m 747.55,418.59 -0.01,-0.05 -0.01,-0.04 -0.01,-0.05 -0.01,-0.04 v -0.04 l -0.01,-0.04 -0.01,-0.03 -0.01,-0.04 v -0.03 l -0.01,-0.03 v -0.03 l -0.01,-0.03 v -0.03 l -0.01,-0.02 v -0.03 -0.02 l -0.01,-0.02 v -0.02 -0.02 -0.01 -0.02 l -0.01,-0.01 v -0.02 -0.01 -0.01 -0.01 -0.01 -0.01 0 -0.01 0 0 c 0,-0.77 0.62,-1.11 1.17,-1.11 1.27,0 1.53,1.14 1.67,1.73 0.08,0.17 0.77,2.97 1.61,6.38 1.08,-0.72 2.47,-1 3.74,-1 2.98,0 4.93,2.43 5.01,2.5 0.66,-2.41 3.07,-2.5 3.58,-2.5 1.27,0 2.13,0.76 2.77,1.84 0.76,1.36 1.22,3.34 1.22,3.48 0,0.46 -0.46,0.46 -0.57,0.46 -0.48,0 -0.53,-0.14 -0.76,-1.08 -0.42,-1.67 -1.08,-3.74 -2.55,-3.74 -0.91,0 -1.16,0.77 -1.16,1.71 0,0.59 0.29,1.86 0.54,2.76 0.25,0.94 0.59,2.36 0.76,3.13 l 0.8,3.11 c 0.22,0.87 0.59,2.4 0.59,2.58 0,0.68 -0.55,1.1 -1.14,1.1 -0.39,0 -1.05,-0.17 -1.44,-0.82 -0.11,-0.22 -0.37,-1.33 -0.56,-2.03 l -0.72,-2.9 -1.08,-4.35 c -0.25,-0.86 -0.25,-0.94 -0.56,-1.4 -1.08,-1.53 -2.61,-2.89 -4.61,-2.89 -2.84,0 -2.84,2.47 -2.84,3.11 0,0.91 0.09,1.36 0.59,3.24 0.35,1.53 0.41,1.78 0.77,3.14 l 0.48,1.95 c 0.17,0.72 0.52,2.05 0.52,2.19 0,0.62 -0.49,1.11 -1.19,1.11 -1.25,0 -1.56,-1.22 -1.67,-1.63 z"
           id="path204" /></g>    </g>
    <g
       id="g294"
       transform="matrix(0.20231698,0,0,0.20231698,37.372541,214.073)">
      <g
         word-spacing="normal"
         letter-spacing="normal"
         font-size-adjust="none"
         font-stretch="normal"
         font-weight="normal"
         font-variant="normal"
         font-style="normal"
         stroke-miterlimit="10.433"
         xml:space="preserve"
         transform="matrix(0.3,0,0,-0.3,-52.5,222.75)"
         id="g292"
         style="font-style:normal;font-variant:normal;font-weight:normal;font-stretch:normal;letter-spacing:normal;word-spacing:normal;text-anchor:start;fill:none;fill-opacity:1;fill-rule:evenodd;stroke:#000000;stroke-linecap:butt;stroke-linejoin:miter;stroke-miterlimit:10.43299961;stroke-dasharray:none;stroke-dashoffset:0;stroke-opacity:1"><path
           id="path286"
           d="m 468.68,427.96 -0.58,-0.15 -0.58,-0.18 -0.56,-0.21 -0.55,-0.24 -0.54,-0.26 -0.53,-0.28 -0.52,-0.31 -0.5,-0.33 -0.49,-0.35 -0.48,-0.38 -0.47,-0.39 -0.44,-0.41 -0.44,-0.42 -0.41,-0.45 -0.4,-0.46 -0.38,-0.47 -0.37,-0.49 -0.34,-0.5 -0.33,-0.51 -0.3,-0.52 -0.28,-0.53 -0.27,-0.53 -0.24,-0.55 -0.22,-0.55 -0.19,-0.56 -0.17,-0.56 -0.15,-0.57 -0.12,-0.56 -0.09,-0.57 -0.07,-0.57 -0.04,-0.57 -0.02,-0.57 c 0,-4.78 3.19,-8.35 7.88,-8.35 v 1.09 c -2.75,0 -4.78,2.09 -4.78,5.87 0,3.14 1.84,12.5 8.56,14.3 v 0 c 1.25,-2.28 2.73,-4.98 2.73,-8.56 0,-3.3 -1.89,-11.61 -6.51,-11.61 v -1.09 c 5.83,0 9.95,7.81 9.95,14.68 0,4.55 -1.98,7.03 -3.69,9.27 -1.78,2.25 -4.71,5.98 -4.71,8.17 0,1.11 0.98,2.3 2.73,2.3 1.5,0 2.48,-0.64 3.53,-1.35 1,-0.59 2,-1.25 2.75,-1.25 1.24,0 1.99,1.21 1.99,2 0,1.1 -0.8,1.24 -2.6,1.64 -2.58,0.55 -3.28,0.55 -4.08,0.55 -3.89,0 -5.68,-2.14 -5.68,-5.12 0,-2.71 1.45,-5.49 3,-8.54 z"
           inkscape:connector-curvature="0"
           style="fill:#000000;stroke-width:0" /><path
           id="path288"
           d="m 496.16,421.25 0.03,0.13 0.04,0.15 0.04,0.16 0.04,0.18 0.06,0.19 0.06,0.21 0.06,0.22 0.07,0.22 0.08,0.23 0.09,0.24 0.1,0.25 0.1,0.24 0.11,0.25 0.12,0.25 0.13,0.25 0.14,0.25 0.15,0.24 0.15,0.24 0.17,0.23 0.18,0.22 0.18,0.22 0.2,0.2 0.21,0.19 0.22,0.18 0.23,0.16 0.25,0.14 0.12,0.07 0.13,0.06 0.14,0.05 0.13,0.05 0.14,0.05 0.14,0.04 0.15,0.03 0.15,0.03 0.15,0.02 0.16,0.02 0.16,0.01 h 0.16 c 0.25,0 1.44,0 2.48,-0.64 -1.39,-0.25 -2.39,-1.5 -2.39,-2.69 0,-0.79 0.55,-1.75 1.89,-1.75 1.1,0 2.69,0.89 2.69,2.89 0,2.6 -2.94,3.28 -4.63,3.28 -2.89,0 -4.64,-2.64 -5.23,-3.78 -1.25,3.28 -3.94,3.78 -5.37,3.78 -5.19,0 -8.04,-6.42 -8.04,-7.67 0,-0.5 0.5,-0.5 0.61,-0.5 0.39,0 0.55,0.11 0.64,0.55 1.69,5.28 4.99,6.53 6.68,6.53 0.95,0 2.68,-0.44 2.68,-3.33 0,-1.54 -0.84,-4.89 -2.68,-11.86 -0.8,-3.09 -2.54,-5.18 -4.74,-5.18 -0.3,0 -1.44,0 -2.48,0.65 1.25,0.24 2.34,1.28 2.34,2.69 0,1.34 -1.09,1.73 -1.84,1.73 -1.5,0 -2.75,-1.29 -2.75,-2.89 0,-2.28 2.5,-3.28 4.68,-3.28 3.3,0 5.08,3.49 5.24,3.78 0.59,-1.84 2.39,-3.78 5.37,-3.78 5.14,0 7.99,6.42 7.99,7.67 0,0.5 -0.45,0.5 -0.61,0.5 -0.44,0 -0.55,-0.2 -0.64,-0.54 -1.64,-5.33 -5.03,-6.53 -6.63,-6.53 -1.95,0 -2.75,1.59 -2.75,3.29 0,1.1 0.3,2.19 0.86,4.38 z"
           inkscape:connector-curvature="0"
           style="fill:#000000;stroke-width:0" /><path
           id="path290"
           d="m 509.84,418.59 -0.02,-0.05 -0.01,-0.04 -0.01,-0.05 -0.01,-0.04 v -0.04 l -0.01,-0.04 -0.01,-0.03 -0.01,-0.04 v -0.03 l -0.01,-0.03 v -0.03 l -0.01,-0.03 v -0.03 l -0.01,-0.02 v -0.03 -0.02 l -0.01,-0.02 v -0.02 -0.02 -0.01 -0.02 l -0.01,-0.01 v -0.02 -0.01 -0.01 -0.01 -0.01 -0.01 0 -0.01 0 0 c 0,-0.77 0.63,-1.11 1.17,-1.11 1.27,0 1.53,1.14 1.67,1.73 0.08,0.17 0.77,2.97 1.61,6.38 1.08,-0.72 2.47,-1 3.74,-1 2.98,0 4.94,2.43 5.01,2.5 0.66,-2.41 3.07,-2.5 3.58,-2.5 1.27,0 2.13,0.76 2.77,1.84 0.76,1.36 1.22,3.34 1.22,3.48 0,0.46 -0.46,0.46 -0.57,0.46 -0.48,0 -0.53,-0.14 -0.76,-1.08 -0.42,-1.67 -1.08,-3.74 -2.55,-3.74 -0.9,0 -1.15,0.77 -1.15,1.71 0,0.59 0.28,1.86 0.53,2.76 0.25,0.94 0.59,2.36 0.76,3.13 l 0.8,3.11 c 0.22,0.87 0.59,2.4 0.59,2.58 0,0.68 -0.54,1.1 -1.14,1.1 -0.39,0 -1.04,-0.17 -1.44,-0.82 -0.1,-0.22 -0.37,-1.33 -0.56,-2.03 l -0.72,-2.9 -1.07,-4.35 c -0.25,-0.86 -0.25,-0.94 -0.57,-1.4 -1.08,-1.53 -2.61,-2.89 -4.61,-2.89 -2.84,0 -2.84,2.47 -2.84,3.11 0,0.91 0.09,1.36 0.59,3.24 0.35,1.53 0.41,1.78 0.77,3.14 l 0.48,1.95 c 0.18,0.72 0.52,2.05 0.52,2.19 0,0.62 -0.49,1.11 -1.19,1.11 -1.25,0 -1.56,-1.22 -1.67,-1.63 z"
           inkscape:connector-curvature="0"
           style="fill:#000000;stroke-width:0" /></g>    </g>
    <path
       inkscape:connector-curvature="0"
       id="path870"
       d="M 50.885,235.18075 H 62.994825"
       style="fill:none;stroke:#0000ff;stroke-width:0.09907307;stroke-linecap:butt;stroke-linejoin:miter;stroke-miterlimit:4;stroke-dasharray:none;stroke-opacity:1;marker-end:url(#Arrow1Lend)" />
    <flowRoot
       transform="matrix(0.26458333,0,0,0.26458333,0,197)"
       style="font-style:normal;font-weight:normal;font-size:40px;line-height:1.25;font-family:sans-serif;letter-spacing:0px;word-spacing:0px;fill:#000000;fill-opacity:1;stroke:none"
       id="flowRoot1550"
       xml:space="preserve"><flowRegion
         id="flowRegion1552"><rect
           y="220.45276"
           x="38"
           height="77"
           width="120.5"
           id="rect1554" /></flowRegion><flowPara
         id="flowPara1556">mmmMmmmmasadasd</flowPara></flowRoot>    <path
       inkscape:connector-curvature="0"
       id="path1598"
       d="m 4.3498115,287.83266 c 104.7696585,0 105.1438385,0 105.1438385,0"
       style="fill:none;stroke:#000000;stroke-width:0.26458332px;stroke-linecap:butt;stroke-linejoin:miter;stroke-opacity:1" />
    <path
       sodipodi:nodetypes="csc"
       inkscape:connector-curvature="0"
       id="path1602"
       d="m 109.49365,287.83266 c 0,0 -18.078876,-8.34883 -52.525151,-8.34883 -34.118648,0 -52.6186875,8.34883 -52.6186875,8.34883"
       style="fill:none;stroke:#000000;stroke-width:0.26458332px;stroke-linecap:butt;stroke-linejoin:miter;stroke-opacity:1" />
    <g
       id="g1432"
       transform="matrix(1.2905579,0,0,1.2905579,8.2921325,248.68912)"
       style="fill:#ffffff">
      <g
         word-spacing="normal"
         letter-spacing="normal"
         font-size-adjust="none"
         font-stretch="normal"
         font-weight="normal"
         font-variant="normal"
         font-style="normal"
         stroke-miterlimit="10.433"
         xml:space="preserve"
         transform="matrix(0.12251149,0,0,-0.12251149,-21.43951,78.94029)"
         id="g1430"
         style="font-style:normal;font-variant:normal;font-weight:normal;font-stretch:normal;letter-spacing:normal;word-spacing:normal;text-anchor:start;fill:#ffffff;fill-opacity:1;fill-rule:evenodd;stroke:#000000;stroke-linecap:butt;stroke-linejoin:miter;stroke-miterlimit:10.43299961;stroke-dasharray:none;stroke-dashoffset:0;stroke-opacity:1"><path
           id="path1428"
           d="m 501.66,436.39 0.04,0.16 0.04,0.16 0.04,0.15 0.04,0.14 0.04,0.14 0.04,0.13 0.04,0.12 0.05,0.11 0.05,0.11 0.05,0.11 0.07,0.09 0.06,0.09 0.08,0.09 0.08,0.08 0.09,0.07 0.09,0.07 0.11,0.06 0.12,0.06 0.13,0.05 0.14,0.05 0.15,0.04 0.09,0.02 0.08,0.02 0.09,0.02 0.09,0.02 0.1,0.01 0.1,0.02 0.1,0.01 0.11,0.01 0.11,0.02 0.12,0.01 0.12,0.01 h 0.12 l 0.13,0.01 0.13,0.01 0.14,0.01 h 0.14 0.15 l 0.15,0.01 h 0.16 0.16 0.17 0.17 c 1.14,0 1.6,0 1.6,1 0,0.55 -0.5,0.55 -1.35,0.55 h -6.58 c -1.29,0 -1.34,0 -1.93,-0.95 l -18.19,-28.39 -3.89,28.18 c -0.16,1.16 -0.25,1.16 -1.55,1.16 h -6.83 c -0.93,0 -1.48,0 -1.48,-0.95 0,-0.6 0.44,-0.6 1.44,-0.6 0.65,0 1.54,-0.04 2.14,-0.09 0.79,-0.11 1.09,-0.25 1.09,-0.8 0,-0.2 -0.05,-0.36 -0.19,-0.95 l -6.33,-25.36 c -0.5,-2 -1.34,-3.59 -5.39,-3.73 -0.25,0 -0.89,-0.05 -0.89,-0.96 0,-0.43 0.3,-0.59 0.71,-0.59 1.59,0 3.32,0.16 4.97,0.16 1.7,0 3.5,-0.16 5.14,-0.16 0.25,0 0.89,0 0.89,1 0,0.55 -0.55,0.55 -0.89,0.55 -2.85,0.04 -3.39,1.04 -3.39,2.18 0,0.35 0.04,0.6 0.2,1.14 l 6.76,27.16 h 0.07 l 4.28,-30.89 c 0.09,-0.59 0.14,-1.14 0.75,-1.14 0.54,0 0.84,0.55 1.09,0.89 l 20.13,31.55 h 0.04 l -7.12,-28.55 c -0.5,-1.95 -0.6,-2.34 -4.53,-2.34 -0.85,0 -1.39,0 -1.39,-0.96 0,-0.59 0.59,-0.59 0.75,-0.59 1.39,0 4.78,0.16 6.17,0.16 2.05,0 4.19,-0.16 6.23,-0.16 0.3,0 0.94,0 0.94,1 0,0.55 -0.45,0.55 -1.39,0.55 -1.84,0 -3.23,0 -3.23,0.89 0,0.2 0,0.29 0.25,1.2 z"
           inkscape:connector-curvature="0"
           style="fill:#ffffff;stroke-width:0" /></g>    </g>
  </g>
</svg>
