<?xml version="1.0" encoding="UTF-8" standalone="no"?>
<!-- Created with Inkscape (http://www.inkscape.org/) -->

<svg
   xmlns:dc="http://purl.org/dc/elements/1.1/"
   xmlns:cc="http://creativecommons.org/ns#"
   xmlns:rdf="http://www.w3.org/1999/02/22-rdf-syntax-ns#"
   xmlns:svg="http://www.w3.org/2000/svg"
   xmlns="http://www.w3.org/2000/svg"
   xmlns:sodipodi="http://sodipodi.sourceforge.net/DTD/sodipodi-0.dtd"
   xmlns:inkscape="http://www.inkscape.org/namespaces/inkscape"
   width="69.241249mm"
   height="98.115974mm"
   viewBox="0 0 69.241249 98.115974"
   version="1.1"
   id="svg1616"
   inkscape:version="0.92.3 (2405546, 2018-03-11)"
   sodipodi:docname="principio-equivalencia-2.svg">
  <defs
     id="defs1610" />
  <sodipodi:namedview
     id="base"
     pagecolor="#ffffff"
     bordercolor="#666666"
     borderopacity="1.0"
     inkscape:pageopacity="0.0"
     inkscape:pageshadow="2"
     inkscape:zoom="1.979899"
     inkscape:cx="117.26242"
     inkscape:cy="163.20849"
     inkscape:document-units="mm"
     inkscape:current-layer="layer1"
     showgrid="false"
     fit-margin-top="0"
     fit-margin-left="0"
     fit-margin-right="0"
     fit-margin-bottom="0"
     inkscape:window-width="1920"
     inkscape:window-height="1017"
     inkscape:window-x="0"
     inkscape:window-y="30"
     inkscape:window-maximized="1" />
  <metadata
     id="metadata1613">
    <rdf:RDF>
      <cc:Work
         rdf:about="">
        <dc:format>image/svg+xml</dc:format>
        <dc:type
           rdf:resource="http://purl.org/dc/dcmitype/StillImage" />
        <dc:title></dc:title>
      </cc:Work>
    </rdf:RDF>
  </metadata>
  <g
     inkscape:label="Capa 1"
     inkscape:groupmode="layer"
     id="layer1"
     transform="translate(-116.42958,-108.18719)">
    <path
       id="path2174"
       transform="matrix(0.26458333,0,0,0.26458333,40.206847,108.18719)"
       style="fill:#000000;stroke-width:1.42616272"
       d="m 288.08594,0 v 185.41602 185.41601 l 130.84961,-0.36523 130.84961,-0.36328 V 185.41602 0.72851562 L 418.93555,0.36328125 Z m 5.70312,5.71875 H 418.57812 543.36914 V 157.60547 309.49219 H 514.8457 486.32227 v -63.89258 c 0,-47.79227 -0.43272,-64.3234 -1.71289,-65.60352 -1.27507,-1.27533 -16.53133,-1.71093 -59.84766,-1.71093 -56.4085,0 -58.18172,0.0829 -59.64258,2.8125 -1.00868,1.88459 -1.37999,23.53971 -1.12109,65.60351 l 0.38672,62.79102 H 329.08789 293.78906 V 157.60547 Z M 547.125,63.673828 c 0.05,0.38693 0.10507,6.222979 0.16406,18.097656 0.21003,42.221056 0.21014,110.890926 0,152.599606 -0.21003,41.7086 -0.38089,7.16405 -0.38086,-76.76562 0,-60.32447 0.089,-94.920462 0.2168,-93.931642 z M 368.66406,181.84961 h 57.04492 57.04688 l 0.39648,61.32617 c 0.21782,33.72876 0.0463,62.76831 -0.38281,64.5332 -0.4289,1.76485 -1.89224,3.27334 -3.25,3.35157 -1.61117,0.0928 -1.2294,0.53796 1.09766,1.2832 1.96097,0.62805 17.20277,1.20692 33.87109,1.28516 l 30.30664,0.14062 v 26.38477 26.38281 H 420.00586 295.62891 c -0.59899,0.67018 -1.48745,0.7439 -2.16797,0.18164 -0.005,-2.4e-4 -0.0105,1.3e-4 -0.0156,0 -0.0189,-4.5e-4 -0.0381,-3.6e-4 -0.0566,-0.002 -0.0189,-10e-4 -0.0405,-0.004 -0.0605,-0.008 -0.0151,-0.003 -0.0301,-0.002 -0.043,-0.006 -0.0113,-0.002 -0.022,-0.004 -0.0371,-0.008 -0.0151,-0.002 -0.0267,-0.003 -0.041,-0.004 -0.0151,-10e-4 -0.0349,-0.003 -0.0508,-0.004 -0.0227,-3.4e-4 -0.0469,-7e-4 -0.0703,-0.002 -0.0227,-9.4e-4 -0.0441,-0.002 -0.0664,-0.004 -0.0151,-9.7e-4 -0.0329,-0.002 -0.0488,-0.002 -0.0189,-5.3e-4 -0.0346,-0.01 -0.0527,-0.0117 -0.0189,-0.001 -0.035,-0.004 -0.0527,-0.006 -0.0151,-0.002 -0.0286,-0.004 -0.043,-0.004 -0.0227,-0.001 -0.0445,-0.002 -0.0664,-0.004 -0.0151,-0.002 -0.0297,-0.004 -0.043,-0.004 -0.0151,-10e-4 -0.0313,-0.003 -0.0449,-0.004 -0.0189,-9.5e-4 -0.0389,-5e-5 -0.0586,-0.002 -0.0113,-0.001 -0.0219,-0.003 -0.0332,-0.002 -0.0151,-4e-5 -0.0345,1.4e-4 -0.0488,0 -0.0151,-1.5e-4 -0.0345,-0.002 -0.0508,-0.002 -0.0189,-4.8e-4 -0.0373,-4e-4 -0.0547,-0.002 -0.0189,-9.9e-4 -0.0335,-0.003 -0.0527,-0.004 -0.0151,-7.6e-4 -0.0313,-7.2e-4 -0.0449,-0.002 -0.0189,-0.001 -0.0377,-0.002 -0.0566,-0.004 -0.0151,-0.002 -0.0305,-0.004 -0.043,-0.004 -0.0189,-10e-4 -0.0342,-0.003 -0.0527,-0.004 -0.004,-0.001 10e-4,4.5e-4 -0.01,0 -0.0151,-5.7e-4 -0.027,-6.6e-4 -0.041,-0.002 -0.0151,-0.001 -0.0313,-0.003 -0.0449,-0.004 -0.17841,-0.006 -0.21826,-0.13962 -0.125,-0.20312 -0.56576,-1.15429 -1.01367,-12.62505 -1.01367,-26.50781 0,-12.28031 0.27929,-22.30329 0.65234,-24.9668 -0.0482,-0.023 -0.0334,-0.0484 -0.004,-0.21875 0.0128,-0.002 0.0248,-0.002 0.0371,-0.002 0.0181,-0.10618 0.0342,-0.28861 0.0527,-0.35938 -0.0313,-0.0368 -0.0496,-0.0925 -0.0176,-0.17578 l 0.006,0.01 c 0.008,-0.0189 0.0178,-0.0389 0.0254,-0.0566 0.0113,-0.0151 0.0219,-0.0325 0.0332,-0.0469 0.0113,-0.0151 0.0199,-0.0274 0.0312,-0.041 0.0113,-0.0151 0.0219,-0.027 0.0332,-0.041 0.0227,-0.0265 0.0521,-0.0464 0.0801,-0.0664 0.0265,-0.0189 0.0513,-0.0337 0.0781,-0.0488 0.0227,-0.0113 0.0453,-0.0239 0.0684,-0.0312 0.0265,-0.0113 0.0505,-0.0178 0.0762,-0.0254 0.0302,-0.008 0.06,-0.0159 0.0899,-0.0234 0.0431,-0.0113 0.087,-0.0139 0.13086,-0.0215 0.0752,-0.0113 0.15097,-0.024 0.22656,-0.0312 0.0575,-0.008 0.11442,-0.0118 0.17187,-0.0156 0.0427,-0.002 0.0862,-0.002 0.12891,-0.002 0.0378,-10e-4 0.0739,4e-4 0.11133,0.002 0.0302,3.1e-4 0.064,0.003 0.0957,0.004 0.0169,-0.004 0.0339,-0.0103 0.0508,-0.0137 0.0189,-0.004 0.0404,-0.008 0.0605,-0.008 0.0189,-0.001 0.0385,-0.002 0.0566,-0.002 0.0189,-3.8e-4 0.0334,-8.6e-4 0.0508,-0.002 0.0227,-10e-4 0.0469,-0.003 0.0703,-0.004 0.0227,-6.8e-4 0.0485,-6.4e-4 0.0723,0 0.0227,6.1e-4 0.0485,0.003 0.0723,0.004 0.034,0.002 0.0648,0.004 0.0976,0.008 0.0265,0.002 0.0508,0.002 0.0762,0.004 0.0189,0.002 0.0421,0.003 0.0625,0.002 0.0265,10e-5 0.0529,-3.4e-4 0.0801,0 0.0227,3.3e-4 0.0469,8.5e-4 0.0703,0.002 0.0265,9.8e-4 0.0497,0.002 0.0742,0.004 0.0151,9.1e-4 0.031,7.5e-4 0.0469,0 0.0151,-5.7e-4 0.0251,-0.002 0.041,-0.004 0.0189,-0.002 0.0405,-0.004 0.0606,-0.004 0.0151,-6.5e-4 0.0294,-10e-6 0.0449,-0.002 0.0189,-0.002 0.0417,-0.008 0.0625,-0.008 0.0227,-0.002 0.0417,-0.004 0.0625,-0.008 0.0189,-0.001 0.0389,-0.003 0.0566,-0.004 0.0151,-0.002 0.0294,-0.003 0.0449,-0.004 0.0189,-0.002 0.0409,-0.002 0.0605,-0.002 0.0151,1.2e-4 0.0337,-3e-4 0.0488,0 0.0189,4.2e-4 0.0338,0.003 0.0527,0.004 0.0189,0.001 0.0378,8.6e-4 0.0566,0.002 0.0151,0.002 0.0299,0.004 0.0469,0.004 0.0189,0.002 0.0381,0.004 0.0547,0.008 0.0189,0.002 0.0381,0.004 0.0566,0.008 0.0151,0.003 0.0337,0.004 0.0488,0.008 0.0189,0.004 0.0338,0.008 0.0527,0.0117 0.0151,0.004 0.0313,0.004 0.0449,0.0117 0.0151,0.003 0.0345,0.006 0.0508,0.01 0.0151,0.003 0.033,0.008 0.0488,0.0117 0.0113,0.002 0.0219,0.004 0.0332,0.004 0.0151,10e-4 0.031,0.003 0.0469,0.004 0.0113,2.3e-4 0.022,3.8e-4 0.0371,0 0.0113,-3.8e-4 0.0277,-7.2e-4 0.0391,-0.002 0.008,-8.4e-4 0.0178,-0.002 0.0254,-0.004 0.0151,-0.004 0.0307,-0.008 0.0488,-0.0117 0.0151,-0.003 0.0263,-0.004 0.041,-0.0117 0.0189,-0.004 0.0342,-0.006 0.0527,-0.0137 0.11242,-0.0372 0.18225,3.8e-4 0.19531,0.0566 l 37.14844,-0.37696 c 32.53312,-0.3304 37.34427,-0.66053 36.72461,-2.51953 -0.3922,-1.1766 -0.71289,-30.69814 -0.71289,-65.60351 z m 2.85156,2.85351 v 60.61133 60.61133 l 4.63477,0.44727 c 3.1805,0.30666 4.69729,-0.36552 4.61719,-2.03516 -0.028,-0.004 -0.0559,-0.009 -0.084,-0.0137 -0.0143,-0.002 -0.0287,-0.003 -0.043,-0.006 -0.10164,-0.0189 -0.18694,-0.0282 -0.30664,-0.041 -0.0561,-0.009 -0.11037,-0.0247 -0.16601,-0.0351 -0.10734,-0.0113 -0.21516,-0.0199 -0.32227,-0.0312 -0.12245,-0.0189 -0.24712,-0.0355 -0.37109,-0.0469 -0.0854,-0.0104 -0.11964,-0.003 -0.19922,0.004 -0.004,0.008 -0.0139,0.004 -0.0215,0.004 -0.0189,0.003 -0.035,0.008 -0.0527,0.0117 -0.008,0.002 0.031,-0.0102 0.0274,-0.004 -3.4e-4,9.8e-4 -0.0774,0.0236 -0.0899,0.0273 -0.12623,0.0465 -0.26136,0.0664 -0.39062,0.10156 -0.16139,0.0438 -0.32481,0.0738 -0.49024,0.0957 -0.13341,0.008 -0.26439,0.0338 -0.39648,0.0508 -0.17651,0.0227 -0.35599,0.0128 -0.53321,0.008 -0.14927,-0.003 -0.29831,-0.004 -0.44726,-0.0117 -0.0302,-0.003 -0.0596,-0.008 -0.0898,-0.008 -0.0624,-0.008 -0.12476,-0.0158 -0.1875,-0.0195 -0.0612,-0.004 -0.0697,-0.008 -0.0391,-0.002 -0.0975,0.008 -0.19557,0.012 -0.29297,0.0195 -0.13078,0.008 -0.26146,0.008 -0.39257,0.0117 0.004,4.9e-4 0.0155,9e-5 0.0117,0.002 -0.12168,0.0439 -0.327,0.014 -0.44726,0.004 -0.45729,-0.0922 -0.75084,-0.39143 -0.85742,-0.83984 -0.0113,-0.0544 -0.01,-0.11046 -0.0176,-0.16602 0.002,-0.21473 0.0515,-0.37771 0.125,-0.5332 -0.0316,-0.0314 -0.0548,-0.0509 -0.0879,-0.084 -1.31958,-1.31947 -1.20222,-114.29545 0.11914,-114.83985 0.29414,-0.12114 6.21772,-0.18476 15.52344,-0.1875 9.30572,-0.003 21.99353,0.0549 35.81836,0.17188 l 50.27148,0.42578 v 57.68945 57.69141 h -6.14844 -6.14843 l -8.11329,-21.17969 c -6.00157,-15.66932 -8.0972,-22.99939 -8.04882,-28.16797 l 0.0625,-6.98633 2.96875,5.70508 c 1.63256,3.13757 3.20544,5.96944 3.49609,6.29297 1.15646,1.28821 7.66992,-2.80369 7.66992,-4.81836 0,-1.18398 -3.34157,-8.87555 -7.42773,-17.09179 l -7.42969,-14.9375 3.12109,-3.32422 c 10.45312,-11.12685 4.53685,-28.15821 -9.78125,-28.15821 -7.1873,0 -11.7112,2.20242 -14.61328,7.11524 -5.12628,8.67802 -1.38734,19.56092 8.08789,23.54492 4.11829,1.73167 3.87172,1.83927 -6.29687,2.72656 -22.65097,1.97646 -26.98438,2.5906 -26.98438,3.83203 0,0.38501 -0.27553,0.72837 -0.70117,0.96485 0.002,0.0314 0.008,0.0627 0.01,0.0937 0.0113,0.19767 0.0197,0.39582 0.0234,0.59375 0.003,0.13077 -0.002,0.30318 0.01,0.39453 0.0265,0.18331 0.0418,0.3684 0.0547,0.55273 0.0113,0.19238 0.0197,0.38359 0.0234,0.57617 0.004,0.18331 0.004,0.36745 0.008,0.55079 7.9e-4,-0.004 -10e-4,-0.0194 0.002,-0.0156 0.034,0.0964 0.0339,0.28019 0.043,0.38477 0.0151,0.13947 0.0181,0.32674 0.0332,0.42187 0.0189,0.16478 0.0342,0.23459 0.0645,0.36914 0.0302,0.16554 0.0593,0.3292 0.0918,0.49414 0.0439,0.21959 0.0678,0.44311 0.0859,0.66602 0.0151,0.19956 0.0236,0.39949 0.0273,0.59961 10e-4,0.069 -5e-4,0.13805 0.002,0.20703 0.10261,0.0251 0.19679,0.0962 0.27734,0.22656 0.96038,1.55395 11.25926,1.21544 30.25195,-0.99414 l 6.77344,-0.78906 v 13.65234 13.65039 l -12.12305,19.78516 c -6.66732,10.88126 -12.12109,20.522 -12.12109,21.42383 h -0.004 c -10e-6,1.09523 -3.6931,1.63867 -11.12304,1.63867 h -9.58789 c -0.0831,0.0272 -0.16442,0.0588 -0.24805,0.084 -0.39016,0.11716 -0.78911,0.19501 -1.19141,0.25586 -0.25322,0.0227 -0.50174,0.0725 -0.75195,0.11524 -0.32126,0.0544 -0.6457,0.0811 -0.9707,0.0996 -0.37077,0.0265 -0.74135,-0.0105 -1.11133,-0.0332 -0.19691,-0.0113 -0.39496,0.0121 -0.5918,0.0234 -0.27666,0.0189 -0.55311,0.0256 -0.83008,0.0332 -0.0202,0.001 -0.0403,-0.003 -0.0605,-0.002 0.0254,0.40893 0.13019,0.75119 0.34179,0.96289 0.66079,0.66126 7.61193,1.38651 15.44727,1.61328 v 0.002 c 7.83541,0.22677 23.87285,0.28953 35.63867,0.14062 11.76582,-0.14892 26.05279,-0.3071 31.74805,-0.35547 l 10.35547,-0.0859 -0.37305,-60.96874 -0.37109,-60.96876 h -54.19532 z m 69.34571,9.26954 c 1.59224,0 4.77168,1.87514 7.06445,4.16796 5.56127,5.5615 5.52437,11.30202 -0.11133,17.72071 -2.35317,2.6801 -4.27734,5.60102 -4.27734,6.49219 0,0.89121 3.24295,8.08306 7.20703,15.98242 3.96408,7.89933 6.94305,15.10874 6.61914,16.01953 -0.32398,0.91079 -2.41758,-2.03473 -4.65234,-6.54492 -2.68551,-5.41999 -4.9303,-8.20117 -6.61914,-8.20117 -2.22985,0 -2.55469,1.3661 -2.55469,10.71874 0,9.53299 0.86761,13.00895 7.84375,31.41602 4.31418,11.38356 7.84375,21.42947 7.84375,22.32227 0,3.58193 -2.44352,-1.28538 -8.60547,-17.13672 -3.7358,-9.6102 -7.35166,-16.8082 -8.56055,-17.04102 -1.34555,-0.25909 -5.9121,5.95751 -12.78711,17.41016 h 0.002 c -5.8814,9.79669 -11.24379,17.83683 -11.91602,17.86328 -1.93557,0.0813 -0.37239,-2.89508 11.8457,-22.5625 l 11.48243,-18.48438 V 247.40039 230.6875 l -18.54102,1.02539 c -11.87093,0.65607 -18.53906,0.52065 -18.53906,-0.375 0,-0.77485 7.16032,-1.83372 16.04297,-2.37109 8.8244,-0.53393 17.16829,-1.28857 18.54101,-1.67774 2.98179,-0.84511 3.46995,-7.64453 0.54883,-7.64453 -2.99973,0 -9.52262,-5.677 -11.00586,-9.57812 -2.66472,-7.00876 4.74671,-16.09375 13.12891,-16.09375 z m -1.20899,3.06445 c -1.85886,0.0357 -3.8334,0.6435 -5.78125,2.00781 -2.35086,1.64666 -3.16992,3.65249 -3.16992,7.76367 0,4.1111 0.81906,6.11509 3.16992,7.76172 4.25216,2.97834 7.12283,2.79779 11.61329,-0.73437 8.08752,-6.3617 2.22303,-16.95356 -5.83204,-16.79883 z m -0.40039,4.05273 c 2.67899,-0.1522 5.10781,1.68657 5.46875,4.84961 0.26737,2.34225 -0.34839,4.64513 -1.42578,5.32813 -6.41643,4.06761 -13.45365,-3.87952 -7.67969,-8.67188 1.15047,-0.95481 2.419,-1.43668 3.63672,-1.50586 z m 1.88086,75.62305 c 1.1078,-0.0616 2.41862,2.84784 5.82227,11.64063 2.83049,7.31199 5.14541,13.775 5.14258,14.36328 -0.002,0.58828 -6.42615,1.07031 -14.27539,1.07031 h -14.27149 l 7.34375,-11.76563 c 4.03854,-6.47123 8.14619,-12.93417 9.12891,-14.36328 0.39387,-0.57283 0.74011,-0.92524 1.10937,-0.94531 z m -59.88476,17.70899 c -8.4e-4,0.004 -0.004,0.0174 -0.004,0.0195 -0.0111,0.0436 -0.0286,0.0852 -0.041,0.1289 0.0422,-0.0297 0.0796,-0.0661 0.12305,-0.0937 -0.0259,-0.0184 -0.0517,-0.037 -0.0781,-0.0547 z m 23.66406,16.67187 c -0.49544,-0.0204 -1.06142,0.0695 -1.57617,0.27539 v 0.002 c -1.13772,0.4552 -0.79809,0.79292 0.86328,0.86133 1.50297,0.0619 2.34489,-0.2762 1.87109,-0.75 -0.23694,-0.23698 -0.66276,-0.36828 -1.1582,-0.38867 z m 5.70508,0 c -0.49544,-0.0204 -1.0614,0.0695 -1.57617,0.27539 v 0.002 c -1.13768,0.4552 -0.80008,0.79292 0.86132,0.86133 1.50331,0.0619 2.34685,-0.2762 1.87305,-0.75 -0.23694,-0.23698 -0.66276,-0.36828 -1.1582,-0.38867 z m 5.70312,0 c -0.49545,-0.0204 -1.05946,0.0695 -1.57422,0.27539 v 0.002 c -1.13771,0.4552 -0.80011,0.79292 0.86133,0.86133 1.50297,0.0619 2.34685,-0.2762 1.87305,-0.75 -0.23696,-0.23698 -0.66471,-0.36828 -1.16016,-0.38867 z m 5.70508,0 c -0.49544,-0.0204 -1.05945,0.0695 -1.57422,0.27539 v 0.002 c -1.13771,0.4552 -0.80007,0.79292 0.86133,0.86133 1.50335,0.0619 2.3449,-0.2762 1.87109,-0.75 -0.23695,-0.23698 -0.66275,-0.36828 -1.1582,-0.38867 z m 5.70508,0 c -0.49544,-0.0204 -1.05947,0.0695 -1.57422,0.27539 v 0.002 c -1.13767,0.4552 -0.80008,0.79292 0.86133,0.86133 1.50368,0.0619 2.34489,-0.2762 1.87109,-0.75 -0.23695,-0.23698 -0.66276,-0.36828 -1.1582,-0.38867 z m 5.70508,0 c -0.49546,-0.0204 -1.06147,0.0695 -1.57617,0.27539 v 0.002 c -1.13772,0.4552 -0.79813,0.79292 0.86328,0.86133 1.50338,0.0619 2.34489,-0.2762 1.87109,-0.75 -0.23696,-0.23698 -0.66275,-0.36828 -1.1582,-0.38867 z m 5.70507,0 c -0.49542,-0.0204 -1.06139,0.0695 -1.57617,0.27539 v 0.002 c -1.13771,0.4552 -0.80004,0.79292 0.86133,0.86133 1.50376,0.0619 2.34685,-0.2762 1.87305,-0.75 -0.23696,-0.23698 -0.66277,-0.36828 -1.15821,-0.38867 z m 5.70313,0 c -0.49544,-0.0204 -1.05945,0.0695 -1.57422,0.27539 v 0.002 c -1.13764,0.4552 -0.80011,0.79292 0.86133,0.86133 1.50331,0.0619 2.3449,-0.2762 1.87109,-0.75 -0.23695,-0.23698 -0.66276,-0.36828 -1.1582,-0.38867 z m 5.70508,0 c -0.49545,-0.0204 -1.05949,0.0695 -1.57422,0.27539 v 0.002 c -1.13771,0.4552 -0.80011,0.79292 0.86133,0.86133 1.50297,0.0619 2.34489,-0.2762 1.87109,-0.75 -0.23696,-0.23698 -0.66276,-0.36828 -1.1582,-0.38867 z m -158.68555,3.24609 c 0.001,0.003 0.003,0.0142 0.004,0.0176 0.002,-10e-4 0.003,-0.003 0.006,-0.004 0.003,-10e-4 0.007,-7.8e-4 0.01,-0.002 -0.006,-0.004 -0.0135,-0.007 -0.0195,-0.0117 z"
       inkscape:connector-curvature="0" />
    <path
       style="fill:none;stroke:#000000;stroke-width:0.26458332px;stroke-linecap:butt;stroke-linejoin:miter;stroke-opacity:1"
       d="m 137.57699,190.66013 c 29.76714,0 29.76714,0 29.76714,0"
       id="path2182"
       inkscape:connector-curvature="0" />
    <path
       style="fill:none;stroke:#000000;stroke-width:0.59499586;stroke-linecap:butt;stroke-linejoin:miter;stroke-miterlimit:4;stroke-dasharray:none;stroke-opacity:1"
       d="m 139.69842,188.98577 c 4.46803,0.0646 4.51528,-0.10267 4.51528,-0.10267"
       id="path2776"
       inkscape:connector-curvature="0" />
    <circle
       style="opacity:1;fill:#ff0000;fill-opacity:1;stroke:#ff0000;stroke-width:0.5;stroke-linecap:round;stroke-linejoin:round;stroke-miterlimit:4;stroke-dasharray:none;stroke-dashoffset:10.62047291;stroke-opacity:1;paint-order:fill markers stroke"
       id="path2869-4"
       cx="141.48778"
       cy="187.15222"
       r="1.3029389" />
    <path
       style="fill:none;stroke:#000000;stroke-width:0.26499999;stroke-linecap:butt;stroke-linejoin:miter;stroke-miterlimit:4;stroke-dasharray:0.265, 0.265;stroke-dashoffset:0;stroke-opacity:1"
       d="m 147.1042,169.51308 c -6.07442,-0.0234 -5.4212,14.04496 -5.60068,15.9308"
       id="path2888-0"
       inkscape:connector-curvature="0"
       sodipodi:nodetypes="cc" />
    <path
       style="opacity:1;fill:#0000ff;fill-opacity:1;stroke:#0000ff;stroke-width:0.35770527;stroke-linecap:round;stroke-linejoin:round;stroke-miterlimit:4;stroke-dasharray:0.35770529, 0.35770529;stroke-dashoffset:0;stroke-opacity:1;paint-order:fill markers stroke"
       d="m 521.37231,719.32441 c -0.15892,-0.24554 -0.34383,-29.25446 -0.41092,-64.46429 l -0.12198,-64.01785 h 56.7704 56.77041 l 0.2496,14.375 c 0.41777,24.06052 0.33282,109.91068 -0.11014,111.3124 -0.21259,0.67271 -0.82154,1.67718 -1.35324,2.23214 l -0.9667,1.00903 h -55.26925 c -43.82321,0 -55.32909,-0.0925 -55.55818,-0.44643 z m 88.0619,-3.36297 23.35083,-0.23738 -0.2272,-41.81589 c -0.12496,-22.99875 -0.3282,-50.53465 -0.45164,-61.1909 l -0.22444,-19.375 H 577.64328 523.4048 v 60.84121 60.84121 l 2.41071,0.22768 c 1.3259,0.12522 6.75,0.25061 12.05358,0.27864 5.30357,0.028 11.57142,0.16172 13.92857,0.2971 6.13244,0.35219 30.55029,0.40867 57.63655,0.13333 z"
       id="path2919"
       inkscape:connector-curvature="0"
       transform="scale(0.26458333)" />
    <path
       style="opacity:1;fill:#552200;fill-opacity:1;stroke:#0000ff;stroke-width:0.71541053;stroke-linecap:round;stroke-linejoin:round;stroke-miterlimit:4;stroke-dasharray:0.71541057, 0.71541057;stroke-dashoffset:0;stroke-opacity:1;paint-order:fill markers stroke"
       d="m 444.99622,774.86693 c -1.52259,-1.20716 -2.26672,-19.00226 -1.58998,-38.0221 l 0.48845,-13.72769 36.50142,-0.63992 c 44.43883,-0.77907 143.14158,-0.76285 185.25142,0.0304 l 30.89286,0.58198 v 25.97005 25.97004 h -124.2273 c -68.32501,0 -124.66459,0.1678 -125.19907,0.3729 -0.53447,0.2051 -1.48748,-0.036 -2.1178,-0.53571 z"
       id="path2923"
       inkscape:connector-curvature="0"
       transform="scale(0.26458333)" />
    <path
       style="opacity:1;fill:#7affff;fill-opacity:1;stroke:#13dbff;stroke-width:0.71541053;stroke-linecap:round;stroke-linejoin:round;stroke-miterlimit:4;stroke-dasharray:0.71541057, 0.71541057;stroke-dashoffset:0;stroke-opacity:1;paint-order:fill markers stroke"
       d="M 446.36781,566.52198 V 414.73627 H 570.65352 694.93924 V 566.52198 718.3077 h -28.16299 -28.16298 l -0.3145,-63.03572 c -0.17297,-34.66964 -0.5522,-63.90515 -0.8427,-64.9678 -0.44296,-1.62026 -1.06332,-2.02373 -3.84395,-2.5 -1.82365,-0.31235 -28.07979,-0.56791 -58.34696,-0.56791 -50.67504,0 -55.17851,0.0965 -56.89189,1.21903 -1.76755,1.15803 -1.88434,1.6227 -2.33382,9.28571 -0.26024,4.43668 -0.37318,33.37924 -0.25097,64.31679 l 0.22219,56.25011 -34.82143,-1.1e-4 -34.82143,-1e-4 z"
       id="path2925"
       inkscape:connector-curvature="0"
       transform="scale(0.26458333)" />
    <path
       style="opacity:1;fill:#ffaaaa;fill-opacity:1;stroke:#13dbff;stroke-width:0.35770527;stroke-linecap:round;stroke-linejoin:round;stroke-miterlimit:4;stroke-dasharray:0.35770529, 0.35770529;stroke-dashoffset:0;stroke-opacity:0;paint-order:fill markers stroke"
       d="m 568.97771,712.83436 c 0.45671,-1.87508 3.91264,-7.64683 22.74469,-37.98593 l 1.0221,-1.64664 v -16.8355 -16.8355 l -1.33928,2.4e-4 c -0.73661,1.4e-4 -5.51786,0.25243 -10.625,0.56066 -11.78958,0.71152 -23.91031,0.84812 -24.48373,0.27591 -0.31366,-0.31299 0.0499,-0.50507 1.49912,-0.79212 2.99089,-0.59241 7.16166,-1.06429 12.98461,-1.4691 10.94759,-0.76106 18.60326,-1.5256 19.6706,-1.9644 2.74367,-1.12798 3.15647,-7.68262 0.48383,-7.68262 -1.16889,0 -3.63213,-1.33863 -5.75204,-3.12591 -4.2121,-3.55117 -5.79552,-6.17996 -5.76364,-9.56878 0.0548,-5.82321 5.88523,-11.92076 12.00225,-12.55209 1.7167,-0.17718 2.30011,-0.0657 3.99368,0.76285 2.46701,1.20699 6.1456,4.80371 7.3296,7.16646 0.72032,1.43743 0.89036,2.29938 0.87993,4.46032 -0.0111,2.30429 -0.171,2.97801 -1.1442,4.82143 -0.6222,1.17857 -2.18141,3.42857 -3.46489,5 -1.28349,1.57143 -2.66563,3.52841 -3.07143,4.34885 l -0.7378,1.49169 1.29925,3.13866 c 0.71459,1.72626 3.27581,7.2425 5.69159,12.2583 4.61439,9.58066 7.12055,15.47207 6.88383,16.18225 -0.20539,0.61616 -2.25321,-2.33355 -3.91139,-5.63403 -1.90908,-3.79986 -4.35503,-7.45705 -5.48054,-8.19451 -0.51083,-0.33471 -1.41343,-0.5492 -2.05087,-0.48736 -2.00269,0.19427 -2.21684,1.16049 -2.20128,9.93187 0.0191,10.78444 0.53949,12.93962 7.84705,32.5 4.58396,12.27002 7.6785,21.26073 7.66368,22.26564 -0.0307,2.0825 -1.94581,-1.89459 -7.11012,-14.76564 -4.17231,-10.3987 -7.77179,-18.01113 -9.11154,-19.26976 l -0.91902,-0.86339 -1.91714,1.97934 c -2.21495,2.28681 -5.14235,6.57732 -11.16788,16.36809 -2.35732,3.83036 -5.20334,8.38611 -6.3245,10.1239 -4.08157,6.32639 -6.01445,8.47944 -5.41952,6.03682 z m 25.83972,-88.15704 c 2.34797,-1.17004 4.90906,-3.64396 5.79672,-5.59942 2.05579,-4.52873 -0.4615,-10.54817 -5.2724,-12.6076 -4.35098,-1.86254 -10.869,0.68672 -12.31496,4.8165 -0.24672,0.70464 -0.43743,2.80435 -0.42441,4.67256 0.0338,4.84353 1.07398,6.68416 4.92746,8.71898 2.35901,1.24566 4.7865,1.24532 7.28759,-0.001 z"
       id="path2937"
       inkscape:connector-curvature="0"
       transform="scale(0.26458333)" />
    <path
       style="opacity:1;fill:#ffaaaa;fill-opacity:1;stroke:#13dbff;stroke-width:0.50587165;stroke-linecap:round;stroke-linejoin:round;stroke-miterlimit:4;stroke-dasharray:0.50587167, 0.50587167;stroke-dashoffset:0;stroke-opacity:0;paint-order:fill markers stroke"
       d="m 588.41402,620.00827 c -3.77339,-2.37014 -3.59587,-6.85483 0.35215,-8.89643 2.32992,-1.20485 4.41455,-0.958 6.09419,0.72165 1.2354,1.2354 1.47638,1.88578 1.47638,3.98465 0,3.33616 -1.08715,4.667 -4.06054,4.97077 -1.67364,0.17098 -2.66669,-0.0297 -3.86218,-0.78064 z"
       id="path2943"
       inkscape:connector-curvature="0"
       transform="scale(0.26458333)" />
    <path
       style="opacity:1;fill:#cccccc;fill-opacity:1;stroke:#13dbff;stroke-width:0.50587165;stroke-linecap:round;stroke-linejoin:round;stroke-miterlimit:4;stroke-dasharray:0.50587167, 0.50587167;stroke-dashoffset:0;stroke-opacity:0;paint-order:fill markers stroke"
       d="m 526.85303,712.63507 c -1.06317,-1.72025 -1.31775,-98.6517 -0.29295,-111.54511 l 0.31112,-3.91434 h 40.75734 c 22.41654,0 45.22594,0.14966 50.68755,0.33258 l 9.93021,0.33257 v 57.26167 57.26167 l -6.10687,-0.14182 -6.10688,-0.14181 -4.7556,-12.37437 c -9.12422,-23.74178 -11.32463,-31.28342 -11.30409,-38.74331 l 0.0109,-3.93564 2.78842,5.3033 c 3.50965,6.675 3.66792,6.84006 5.86415,6.11524 2.51959,-0.83155 5.46787,-3.44064 5.46787,-4.83883 0,-1.71445 -3.01257,-8.64319 -9.15535,-21.05676 l -5.41434,-10.94151 2.70864,-3.12776 c 4.50632,-5.2036 6.20798,-10.29118 5.30266,-15.85372 -0.84286,-5.17872 -3.7838,-9.1868 -8.41293,-11.46562 -2.07869,-1.0233 -3.18732,-1.2049 -7.25203,-1.18798 -4.0633,0.0169 -5.22372,0.21817 -7.57615,1.3139 -4.5865,2.13633 -6.99828,5.16777 -8.3694,10.51975 -1.92319,7.50695 2.07297,15.45021 9.45013,18.78427 1.32793,0.60015 2.31076,1.2589 2.18407,1.46389 -0.12669,0.20499 -1.87906,0.52657 -3.89415,0.71462 -16.77421,1.56538 -28.27368,2.8597 -29.47914,3.31801 -1.74007,0.66157 -2.19851,1.31234 -2.20866,3.13526 -0.004,0.76393 -0.23501,1.38896 -0.51281,1.38896 -0.27779,0 -0.50507,0.34093 -0.50507,0.75762 0,0.41669 0.20505,0.75761 0.45566,0.75761 0.25062,0 0.68328,0.65293 0.96148,1.45095 0.44862,1.28692 0.81528,1.48962 3.24326,1.79297 3.03144,0.37876 14.00062,-0.32787 25.93789,-1.67089 l 7.7875,-0.87615 v 13.59518 13.59518 l -9.34495,15.34568 c -5.13973,8.44012 -10.65137,17.77839 -12.2481,20.7517 -2.48035,4.61874 -3.12381,5.45791 -4.41837,5.76229 -0.83338,0.19594 -6.93024,0.47896 -13.54858,0.62892 l -12.03334,0.27267 1.26843,-1.26843 c 3.13012,-3.13012 1.70227,-8.71778 -2.55605,-10.00272 -0.69866,-0.21082 -1.00649,-0.60658 -0.82985,-1.06689 0.1734,-0.45189 -0.0296,-0.73176 -0.53085,-0.73176 -0.44641,0 -0.81165,0.29718 -0.81165,0.66041 0,0.36323 -0.856,1.03808 -1.90221,1.49967 -2.19941,0.97037 -3.65363,3.11682 -3.65363,5.3928 0,1.86469 1.16087,4.32044 2.35941,4.99118 0.63837,0.35725 0.25827,0.51903 -1.55905,0.66357 -1.32178,0.10513 -2.5339,-0.0202 -2.6936,-0.27867 z m 8.96431,-14.19165 c 0,-0.41669 -0.34093,-0.75762 -0.75762,-0.75762 -0.41668,0 -0.75761,0.34093 -0.75761,0.75762 0,0.41668 0.34093,0.75761 0.75761,0.75761 0.41669,0 0.75762,-0.34093 0.75762,-0.75761 z m 0,-2.02031 c 0,-0.41669 -0.34093,-0.75761 -0.75762,-0.75761 -0.41668,0 -0.75761,0.34092 -0.75761,0.75761 0,0.41669 0.34093,0.75762 0.75761,0.75762 0.41669,0 0.75762,-0.34093 0.75762,-0.75762 z m 0,-2.0203 c 0,-0.41669 -0.34093,-0.75762 -0.75762,-0.75762 -0.41668,0 -0.75761,0.34093 -0.75761,0.75762 0,0.41668 0.34093,0.75761 0.75761,0.75761 0.41669,0 0.75762,-0.34093 0.75762,-0.75761 z m 0,-2.02031 c 0,-0.41669 -0.34093,-0.75761 -0.75762,-0.75761 -0.41668,0 -0.75761,0.34092 -0.75761,0.75761 0,0.41669 0.34093,0.75762 0.75761,0.75762 0.41669,0 0.75762,-0.34093 0.75762,-0.75762 z m 0,-2.0203 c 0,-0.41669 -0.34093,-0.75762 -0.75762,-0.75762 -0.41668,0 -0.75761,0.34093 -0.75761,0.75762 0,0.41668 0.34093,0.75761 0.75761,0.75761 0.41669,0 0.75762,-0.34093 0.75762,-0.75761 z m 0,-2.02031 c 0,-0.41669 -0.34093,-0.75761 -0.75762,-0.75761 -0.41668,0 -0.75761,0.34092 -0.75761,0.75761 0,0.41669 0.34093,0.75762 0.75761,0.75762 0.41669,0 0.75762,-0.34093 0.75762,-0.75762 z m 0,-2.06239 c 0,-0.43984 -0.2699,-0.70974 -0.59978,-0.59978 -0.93652,0.31217 -1.09185,1.39948 -0.19992,1.39948 0.43983,0 0.7997,-0.35987 0.7997,-0.7997 z m 0.50508,-1.97822 c 0,-0.41669 -0.34093,-0.75761 -0.75762,-0.75761 -0.41669,0 -0.75761,0.34092 -0.75761,0.75761 0,0.41669 0.34092,0.75762 0.75761,0.75762 0.41669,0 0.75762,-0.34093 0.75762,-0.75762 z m 0,-2.0203 c 0,-0.41669 -0.34093,-0.75762 -0.75762,-0.75762 -0.41669,0 -0.75761,0.34093 -0.75761,0.75762 0,0.41668 0.34092,0.75761 0.75761,0.75761 0.41669,0 0.75762,-0.34093 0.75762,-0.75761 z m 0,-2.02031 c 0,-0.41669 -0.34093,-0.75761 -0.75762,-0.75761 -0.41669,0 -0.75761,0.34092 -0.75761,0.75761 0,0.41669 0.34092,0.75761 0.75761,0.75761 0.41669,0 0.75762,-0.34092 0.75762,-0.75761 z m 0,-2.0203 c 0,-0.41669 -0.20297,-0.75762 -0.45104,-0.75762 -0.24807,0 -0.58187,0.34093 -0.74177,0.75762 -0.17709,0.46149 -8e-4,0.75761 0.45104,0.75761 0.40797,0 0.74177,-0.34093 0.74177,-0.75761 z m 0.50507,-2.02031 c 0,-0.41669 -0.34092,-0.75761 -0.75761,-0.75761 -0.41669,0 -0.75762,0.34092 -0.75762,0.75761 0,0.41669 0.34093,0.75761 0.75762,0.75761 0.41669,0 0.75761,-0.34092 0.75761,-0.75761 z m 0,-2.0203 c 0,-0.41669 -0.34092,-0.75762 -0.75761,-0.75762 -0.41669,0 -0.75762,0.34093 -0.75762,0.75762 0,0.41668 0.34093,0.75761 0.75762,0.75761 0.41669,0 0.75761,-0.34093 0.75761,-0.75761 z m 0.38933,-1.86247 c -0.31217,-0.93653 -1.39948,-1.09186 -1.39948,-0.19993 0,0.43984 0.35987,0.7997 0.7997,0.7997 0.43984,0 0.70974,-0.2699 0.59978,-0.59977 z m -0.0607,-2.16197 c -0.15649,-0.40779 -0.0672,-0.87577 0.1985,-1.03996 0.73057,-0.45152 0.58021,-1.10368 -0.33547,-1.45506 -0.62931,-0.2415 -0.75701,-0.079 -0.55249,0.70307 0.14629,0.55944 0.06,1.14443 -0.19167,1.3 -0.74442,0.46008 -0.52247,1.23339 0.35399,1.23339 0.50609,0 0.70454,-0.27913 0.52714,-0.74144 z m 0.92837,-4.23082 c -0.11181,-0.11181 -0.60447,-0.0494 -1.0948,0.13881 -0.74916,0.28748 -0.77493,0.41415 -0.16138,0.79335 0.67265,0.41572 1.78135,-0.407 1.25618,-0.93216 z m 0.25822,-1.34119 c 0,-0.41669 -0.34093,-0.75762 -0.75761,-0.75762 -0.78872,0 -1.00206,0.59736 -0.4209,1.17851 0.58116,0.58116 1.17851,0.36782 1.17851,-0.42089 z m 0.50508,-2.02031 c 0,-0.41669 -0.34093,-0.75761 -0.75762,-0.75761 -0.41669,0 -0.75761,0.34092 -0.75761,0.75761 0,0.41669 0.34092,0.75762 0.75761,0.75762 0.41669,0 0.75762,-0.34093 0.75762,-0.75762 z m 0.50507,-2.0203 c 0,-0.41669 -0.34092,-0.75762 -0.75761,-0.75762 -0.41669,0 -0.75762,0.34093 -0.75762,0.75762 0,0.41668 0.34093,0.75761 0.75762,0.75761 0.41669,0 0.75761,-0.34093 0.75761,-0.75761 z m 0.50508,-2.02031 c 0,-0.41669 -0.34093,-0.75761 -0.75761,-0.75761 -0.41669,0 -0.75762,0.34092 -0.75762,0.75761 0,0.41669 0.34093,0.75762 0.75762,0.75762 0.41668,0 0.75761,-0.34093 0.75761,-0.75762 z m 0.40827,-1.80565 c -0.0995,-0.29862 -0.39691,-0.54295 -0.66081,-0.54295 -0.2639,0 -0.56126,0.24433 -0.66081,0.54295 -0.0995,0.29863 0.19782,0.54296 0.66081,0.54296 0.46299,0 0.76035,-0.24433 0.66081,-0.54296 z m 0.9688,-2.28894 c -0.17784,-0.17784 -0.72453,-0.1694 -1.21486,0.0187 -0.75616,0.29016 -0.77928,0.41147 -0.15228,0.79898 0.77429,0.47854 1.95637,-0.22851 1.36714,-0.81773 z m 0.64323,-1.46125 c 0,-0.41669 -0.34092,-0.75761 -0.75761,-0.75761 -0.41669,0 -0.75761,0.34092 -0.75761,0.75761 0,0.41669 0.34092,0.75762 0.75761,0.75762 0.41669,0 0.75761,-0.34093 0.75761,-0.75762 z m 0.58084,-2.0203 c 0,-0.26391 -0.24433,-0.56127 -0.54295,-0.66081 -0.29863,-0.0996 -0.54296,0.19782 -0.54296,0.66081 0,0.46298 0.24433,0.76035 0.54296,0.6608 0.29862,-0.0995 0.54295,-0.3969 0.54295,-0.6608 z m 1.16536,-1.22779 c 0.37353,-0.60438 -0.57661,-1.20321 -1.24936,-0.78743 -0.56485,0.3491 -0.19403,1.2576 0.51332,1.2576 0.245,0 0.57622,-0.21158 0.73604,-0.47017 z m 1.4997,-2.32202 c 1.23752,-1.88868 0.40649,-2.65103 -1.04653,-0.96004 -0.91699,1.06717 -1.05427,1.50576 -0.56791,1.81445 0.35276,0.2239 0.67207,0.41057 0.70957,0.41482 0.0375,0.004 0.44469,-0.5669 0.90487,-1.26923 z m 1.9143,-3.36132 c -0.32872,-0.32872 -0.74318,-0.45217 -0.92103,-0.27432 -0.17784,0.17784 -0.17418,0.71209 0.008,1.18721 0.25265,0.6584 0.47169,0.72364 0.92102,0.27432 0.44933,-0.44933 0.44739,-0.73168 -0.008,-1.18721 z M 548.52,643.3901 c 0,-0.2639 -0.24433,-0.56126 -0.54296,-0.66081 -0.29863,-0.0995 -0.54296,0.19783 -0.54296,0.66081 0,0.46299 0.24433,0.76035 0.54296,0.66081 0.29863,-0.0995 0.54296,-0.39691 0.54296,-0.66081 z m 1.94454,-1.2925 c 0,-0.26139 -0.34093,-0.47526 -0.75761,-0.47526 -0.78106,0 -1.00344,0.59597 -0.43463,1.16478 0.40352,0.40352 1.19224,-0.0526 1.19224,-0.68952 z"
       id="path2953"
       inkscape:connector-curvature="0"
       transform="scale(0.26458333)" />
    <path
       style="opacity:1;fill:#cccccc;fill-opacity:1;stroke:#13dbff;stroke-width:0.50587165;stroke-linecap:round;stroke-linejoin:round;stroke-miterlimit:4;stroke-dasharray:0.50587167, 0.50587167;stroke-dashoffset:0;stroke-opacity:0;paint-order:fill markers stroke"
       d="m 576.74157,711.29847 c 0.30452,-0.56899 3.52423,-5.73971 7.15491,-11.49048 3.63068,-5.75077 7.04853,-11.19462 7.59521,-12.09744 0.54668,-0.90283 1.296,-1.6415 1.66515,-1.6415 0.36914,0 1.3454,1.42701 2.16947,3.17114 1.86014,3.93701 8.17125,20.70618 8.17125,21.71175 0,1.10311 -3.21992,1.38107 -15.99817,1.38107 -11.24386,0 -11.30818,-0.006 -10.75782,-1.03454 z"
       id="path2955"
       inkscape:connector-curvature="0"
       transform="scale(0.26458333)" />
  </g>
</svg>
