<?xml version="1.0" encoding="UTF-8" standalone="no"?>
<!-- Created with Inkscape (http://www.inkscape.org/) -->

<svg
   xmlns:dc="http://purl.org/dc/elements/1.1/"
   xmlns:cc="http://creativecommons.org/ns#"
   xmlns:rdf="http://www.w3.org/1999/02/22-rdf-syntax-ns#"
   xmlns:svg="http://www.w3.org/2000/svg"
   xmlns="http://www.w3.org/2000/svg"
   xmlns:sodipodi="http://sodipodi.sourceforge.net/DTD/sodipodi-0.dtd"
   xmlns:inkscape="http://www.inkscape.org/namespaces/inkscape"
   width="145.46399mm"
   height="98.115974mm"
   viewBox="0 0 145.46399 98.115974"
   version="1.1"
   id="svg1616"
   inkscape:version="0.92.3 (2405546, 2018-03-11)"
   sodipodi:docname="principio-equivalencia.svg">
  <defs
     id="defs1610" />
  <sodipodi:namedview
     id="base"
     pagecolor="#ffffff"
     bordercolor="#666666"
     borderopacity="1.0"
     inkscape:pageopacity="0.0"
     inkscape:pageshadow="2"
     inkscape:zoom="1.979899"
     inkscape:cx="257.10847"
     inkscape:cy="177.85571"
     inkscape:document-units="mm"
     inkscape:current-layer="layer1"
     showgrid="false"
     fit-margin-top="0"
     fit-margin-left="0"
     fit-margin-right="0"
     fit-margin-bottom="0"
     inkscape:window-width="1920"
     inkscape:window-height="1027"
     inkscape:window-x="-8"
     inkscape:window-y="-8"
     inkscape:window-maximized="1" />
  <metadata
     id="metadata1613">
    <rdf:RDF>
      <cc:Work
         rdf:about="">
        <dc:format>image/svg+xml</dc:format>
        <dc:type
           rdf:resource="http://purl.org/dc/dcmitype/StillImage" />
        <dc:title></dc:title>
      </cc:Work>
    </rdf:RDF>
  </metadata>
  <g
     inkscape:label="Capa 1"
     inkscape:groupmode="layer"
     id="layer1"
     transform="translate(-40.206847,-108.18719)">
    <path
       id="path2174"
       transform="scale(0.26458333)"
       style="fill:#000000;stroke-width:1.42616272"
       d="M 440.04883,408.89648 V 594.3125 779.72852 L 570.89844,779.36328 701.74805,779 V 594.3125 409.625 l -130.84961,-0.36523 z m -288.08594,0.0137 V 594.3125 779.71289 H 282.45703 412.95117 V 594.3125 408.91016 H 282.45703 Z m 2.85352,2.85351 H 281.74414 408.67188 V 594.3125 776.86133 H 281.74414 154.81641 V 594.3125 Z m 290.93554,2.85156 h 124.78907 124.79101 v 151.88672 151.88672 h -28.52344 -28.52343 v -63.89258 c 0,-47.79227 -0.43269,-64.32339 -1.71289,-65.60351 -1.27507,-1.27533 -16.53133,-1.71094 -59.84766,-1.71094 -56.4085,0 -58.18172,0.0829 -59.64258,2.8125 -1.00868,1.88459 -1.37999,23.53972 -1.12109,65.60352 l 0.38672,62.79101 H 481.05078 445.75195 V 566.50195 Z m -129.67383,14.26172 c -1.72687,0 -18.01182,13.16586 -40.46484,32.71289 -33.65945,29.30306 -37.76967,33.3537 -39.43945,38.86328 -1.02523,3.38306 -8.87339,31.82167 -17.44141,63.19727 -16.25572,59.52748 -21.64599,82.08695 -19.98047,83.63281 0.54312,0.50408 9.87991,3.19299 20.74805,5.97461 10.86819,2.7817 20.06767,5.36455 20.44336,5.74024 0.37559,0.37557 -3.22164,8.01604 -7.99414,16.97851 -4.77256,8.96247 -8.67774,17.054 -8.67774,17.98047 0,0.92651 1.92414,2.06851 4.27735,2.53906 2.35315,0.47063 4.2793,1.01434 4.27929,1.20899 10e-6,0.19442 -1.36689,3.44292 -3.0371,7.21875 -2.57285,5.81609 -2.91607,8.62267 -2.25,18.36523 0.85623,12.52464 4.34494,24.72944 7.875,27.54492 3.78426,3.01822 7.16153,2.01618 13.05078,-3.87304 9.08343,-9.08342 13.31316,-18.84327 13.46679,-31.07227 0.10075,-8.00621 0.56274,-10.17994 2.03907,-9.62305 1.04909,0.39602 4.47505,1.13044 7.61523,1.63282 l 5.71094,0.91211 -1.04297,-21.04102 c -1.00113,-20.21208 -0.93495,-21.01076 1.6543,-20.26562 17.99563,5.17893 36.85536,9.44219 37.73828,8.53125 1.43336,-1.47886 39.83008,-144.582 39.83008,-148.44532 0,-2.49978 -27.33431,-79.14994 -33.41993,-93.71484 -1.41304,-3.382 -3.02419,-4.99805 -4.98047,-4.99805 z m -0.25585,2.85352 c 0.69889,0 1.7066,1.12145 2.24023,2.49414 6.9536,17.88416 33.5625,91.86546 33.5625,93.31445 0,1.06689 -8.6627,34.27688 -19.25195,73.79883 -10.58925,39.52192 -19.25391,72.0081 -19.25391,72.19141 0,0.183 -8.50333,-1.82853 -18.89648,-4.46875 -10.39316,-2.64023 -19.79509,-4.81887 -20.89454,-4.83399 -1.66839,-0.0276 -1.83775,3.4018 -1.01757,20.75977 0.92377,19.55157 0.8303,20.74736 -1.56641,20.03125 -8.59902,-2.56917 -16.34271,-3.97171 -17.19922,-3.11524 -0.54641,0.54641 -1.13381,4.45078 -1.30469,8.67578 -0.17103,4.22552 -1.68503,10.87428 -3.36328,14.7754 -1.67819,3.90111 -4.22435,8.15553 -5.6582,9.45312 -2.43741,2.206 -2.70692,2.17227 -4.14648,-0.51758 -2.17879,-4.07112 -1.90857,-15.31185 0.59961,-24.9414 1.1761,-4.51722 2.13867,-9.02693 2.13867,-10.02344 0,-0.99655 -3.20888,-2.68593 -7.13086,-3.75391 -3.92193,-1.06794 -7.13086,-2.51897 -7.13086,-3.22461 0,-0.70556 3.53153,-8.18508 7.8457,-16.61914 4.31412,-8.43409 7.84375,-16.32923 7.84375,-17.54492 0,-1.66027 -5.27084,-3.52072 -21.18164,-7.48242 l -21.18164,-5.27539 2.55273,-11.65039 c 2.13475,-9.74351 33.02245,-124.8865 36.08399,-134.51367 0.96269,-3.02725 73.85239,-67.5293 76.31055,-67.5293 z m 383.26562,40.83984 c 0.05,0.38693 0.10507,6.22298 0.16406,18.09766 0.21003,42.22106 0.21014,110.89093 0,152.59961 -0.21003,41.7086 -0.38089,7.16404 -0.38086,-76.76563 0,-60.32447 0.089,-94.92046 0.2168,-93.93164 z m -455.32422,30.4668 c -2.17091,0 -1.92258,-0.82528 -19.70508,65.56836 -7.45289,27.82654 -13.08597,51.03029 -12.51757,51.56445 0.56839,0.5339 10.65995,3.61521 22.42578,6.8457 11.76582,3.23093 29.4229,8.10433 39.23828,10.83008 9.81543,2.72565 19.17524,4.95703 20.79883,4.95703 1.62364,0 3.42444,0.48008 4.00195,1.06836 0.57745,0.58829 3.73258,1.82077 7.01172,2.73829 11.77893,3.29542 9.84801,7.35321 27.11914,-56.96876 8.58791,-31.98317 15.27496,-58.49112 14.85937,-58.90624 -0.94204,-0.94201 -100.66322,-27.69727 -103.23242,-27.69727 z m 1.36524,5.0957 c 6.3659,0.33248 92.76311,22.53714 96.59961,24.90821 1.06931,0.66088 -3.13296,18.56467 -13.16211,56.07421 -15.87809,59.38481 -14.88147,57.08207 -23.27539,53.80469 -2.52425,-0.98562 -3.08596,-3.61322 -5.08594,-23.78906 -1.79947,-18.15281 -1.91021,-23.96101 -0.55274,-29.09766 1.69102,-6.39866 2.37812,-6.09994 4.10547,1.78321 0.69847,3.18754 1.63855,3.92187 5.02539,3.92187 2.29198,0 4.53625,-0.59437 4.98633,-1.32226 0.44982,-0.72783 -0.76383,-8.78509 -2.69531,-17.9043 -1.93153,-9.11925 -3.21347,-17.34888 -2.84961,-18.28711 0.36362,-0.93827 2.58171,-2.80228 4.92969,-4.14258 5.21989,-2.97959 7.57233,-8.60972 6.625,-15.85742 -1.20606,-9.22768 -9.2743,-14.9576 -18.59766,-13.20899 -13.04051,2.44642 -17.50084,18.24247 -7.82226,27.70508 l 4.15429,4.0625 -17.44726,-3.33398 c -10.58128,-2.0225 -17.96063,-2.82071 -18.75391,-2.02734 -0.26155,0.2612 -0.62358,0.45977 -1.0293,0.58789 -0.007,0.0533 -0.0174,0.1034 -0.0234,0.16406 -0.0474,0.30274 -0.10772,0.60332 -0.20508,0.89453 -0.039,0.14853 -0.10945,0.42754 -0.16407,0.54883 -0.0675,0.26419 -0.13592,0.52779 -0.2207,0.78711 -0.039,0.11059 -0.0935,0.23618 -0.13672,0.35937 0.20757,0.36966 0.2097,0.96928 -0.0508,1.64649 -1.15917,3.02067 2.80395,4.49744 19.76563,7.36523 8.43219,1.42568 15.33203,3.22013 15.33203,3.98828 0,0.76819 -1.35443,6.57379 -3.00977,12.90235 l -3.00976,11.50781 -18.74024,18.15039 c -10.30664,9.98294 -18.73828,18.1134 -18.73828,18.07031 0,-0.22171 -3.64284,-1.35926 -11.02539,-3.44141 -2.79552,-0.78816 -4.61321,-1.3069 -5.73047,-1.7871 -0.0601,-0.008 -0.10845,1.6e-4 -0.17187,-0.0137 -0.12461,-0.0264 -0.24994,-0.0457 -0.375,-0.0703 -0.14223,-0.0265 -0.28707,-0.0473 -0.42969,-0.0723 -0.14521,-0.0227 -0.2906,-0.0403 -0.43555,-0.0664 -0.1494,-0.0227 -0.29954,-0.0457 -0.44922,-0.0684 -0.16331,-0.0189 -0.32614,-0.0408 -0.48828,-0.0684 -0.12518,-0.0227 -0.25117,-0.0311 -0.37695,-0.0488 -0.13875,-0.0264 -0.27857,-0.0378 -0.41797,-0.0586 -0.14268,-0.0265 -0.28722,-0.045 -0.42969,-0.0723 -0.16456,-0.0264 -0.32384,-0.0723 -0.48633,-0.10937 -0.16732,-0.0404 -0.33354,-0.0886 -0.5,-0.13281 -0.13826,-0.0378 -0.27742,-0.0708 -0.41601,-0.10743 -0.153,-0.0431 -0.30701,-0.0798 -0.46094,-0.11914 -0.20674,-0.0559 -0.41439,-0.11165 -0.62109,-0.16797 -0.18834,-0.0548 -0.38059,-0.097 -0.57031,-0.14648 -0.17813,-0.0461 -0.3552,-0.0961 -0.53321,-0.14258 -0.1494,-0.0393 -0.29979,-0.0759 -0.44922,-0.11523 -0.13175,-0.034 -0.26178,-0.0692 -0.39257,-0.10547 -0.13036,-0.0302 -0.25778,-0.0727 -0.38672,-0.10938 -0.13505,-0.0378 -0.26927,-0.0759 -0.4043,-0.11328 -0.14683,-0.0378 -0.29335,-0.0724 -0.43945,-0.11133 -0.14918,-0.034 -0.30011,-0.0685 -0.45118,-0.0957 -0.15481,-0.0227 -0.30997,-0.0411 -0.46484,-0.0664 -0.11372,-0.0189 -0.2287,-0.0331 -0.34375,-0.043 -0.16773,-0.0227 -0.33491,-0.0474 -0.50195,-0.0742 -0.17987,-0.0227 -0.35911,-0.0543 -0.53906,-0.0781 -0.25701,-0.034 -0.51382,-0.0702 -0.76954,-0.11328 -0.279,-0.0484 -0.55621,-0.10762 -0.83203,-0.17187 -0.25209,-0.059 -0.50382,-0.12218 -0.7539,-0.18946 -0.17598,-0.0457 -0.35289,-0.0909 -0.5293,-0.13476 -0.15417,-0.045 -0.3082,-0.0839 -0.46289,-0.12696 -0.1522,-0.0378 -0.30012,-0.0888 -0.45117,-0.1289 -0.13727,-0.048 -0.28064,-0.0749 -0.42188,-0.10742 -0.13916,-0.034 -0.28004,-0.0565 -0.41992,-0.0879 -0.12416,-0.0265 -0.25054,-0.0446 -0.375,-0.0703 -0.15405,-0.0264 -0.3038,-0.066 -0.45312,-0.11132 -0.10137,-0.0227 -0.19409,-0.0813 -0.29493,-0.10547 -0.1073,-0.0431 -0.218,-0.0768 -0.32617,-0.11719 -0.0769,-0.0189 -0.15205,-0.0464 -0.22851,-0.0684 -0.16562,-0.0389 -0.31918,-0.11084 -0.46875,-0.18945 -0.20202,-0.11226 -0.3883,-0.26991 -0.50196,-0.47461 -0.0374,-0.0677 -0.062,-0.14064 -0.0937,-0.21094 -0.0518,-0.15826 -0.0641,-0.31403 -0.0469,-0.4668 v -0.002 c -0.32872,-0.59232 -0.44805,-1.33463 -0.25586,-2.04688 0.34136,-1.26447 6.88803,-25.72528 14.54883,-54.35546 7.66079,-28.63023 14.46198,-52.63274 15.11328,-53.33985 0.0333,-0.0362 0.15597,-0.0478 0.36133,-0.0371 z m 59.21484,20.65235 c 4.63678,0.15019 9.3051,2.87468 11.54297,8.27734 2.2212,5.36247 -0.8576,11.97674 -7.07031,15.18945 -5.25164,2.71578 -5.48103,6.9961 -1.3711,25.58789 1.60893,7.27268 2.28569,13.30028 1.57617,14.00977 -0.70946,0.70945 -2.01188,-2.8195 -3.02734,-8.20117 -2.35423,-12.4769 -5.34091,-12.2452 -9.01758,0.69726 -2.37504,8.36047 -2.47344,11.04263 -1.01172,27.79297 0.88982,10.19705 1.97638,20.62649 2.41407,23.17578 0.46862,2.72848 0.19513,4.63477 -0.66407,4.63477 -1.5043,0 -2.38677,-4.44845 -3.81836,-19.25195 -1.43622,-14.85117 -2.37217,-19.25623 -4.07812,-19.18555 -0.91154,0.0376 -8.38163,6.41473 -16.60156,14.17187 -8.21987,7.75711 -15.27892,13.75535 -15.6875,13.33008 -0.40842,-0.42516 7.09,-8.24638 16.66406,-17.38086 l 17.4082,-16.60742 3.62696,-13.54883 c 1.99508,-7.45171 3.62831,-14.54119 3.6289,-15.75586 7.6e-4,-1.70245 -4.08369,-2.95511 -17.82617,-5.46679 -9.80487,-1.7921 -17.82813,-3.84732 -17.82813,-4.56641 10e-6,-1.6278 -1.77779,-1.79524 16.40235,1.54492 20.38959,3.74601 22.10547,3.70886 22.10547,-0.47265 0,-2.06245 -1.31911,-4.02908 -3.47266,-5.18165 -4.28151,-2.29094 -7.13438,-8.78625 -5.94336,-13.53124 1.57985,-6.29457 6.79381,-9.43194 12.04883,-9.26172 z m -0.51563,2.77539 c -7.98627,0 -11.8613,8.47247 -7.02929,15.37109 2.66827,3.8095 10.67141,4.33591 14.08008,0.92774 2.88851,-2.88855 2.88851,-11.16814 0,-14.05665 -1.23259,-1.23258 -4.40591,-2.24218 -7.05079,-2.24218 z m 0.26758,3.19336 c 1.28814,-0.0358 2.59931,0.57001 3.85938,1.83007 2.91305,2.91319 2.93509,5.55956 0.0703,8.42383 -3.09259,3.0926 -5.75943,2.80409 -8.35547,-0.90234 -1.87551,-2.67791 -1.91384,-3.57366 -0.26562,-6.06055 1.41788,-2.13933 3.03522,-3.24504 4.6914,-3.29101 z m 216.53125,55.99218 h 57.04493 57.04687 l 0.39648,61.32618 c 0.21782,33.72876 0.0463,62.76831 -0.38281,64.5332 -0.4289,1.76485 -1.89224,3.27333 -3.25,3.35156 -1.61117,0.0928 -1.2294,0.53796 1.09766,1.2832 1.96097,0.62805 17.20277,1.20692 33.87109,1.28516 l 30.30664,0.14063 v 26.38476 26.38281 H 571.96875 447.5918 c -0.59899,0.67018 -1.48745,0.7439 -2.16797,0.18164 -0.005,-2.4e-4 -0.0105,1.3e-4 -0.0156,0 -0.0189,-4.5e-4 -0.0381,-5.1e-4 -0.0566,-0.002 -0.0189,-10e-4 -0.0405,-0.004 -0.0605,-0.008 -0.0151,-0.003 -0.0301,-0.002 -0.043,-0.006 -0.0113,-0.002 -0.022,-0.004 -0.0371,-0.008 -0.0151,-0.002 -0.0267,-0.003 -0.041,-0.004 -0.0151,-0.001 -0.0349,-0.003 -0.0508,-0.004 -0.0227,-3.4e-4 -0.0469,-8.5e-4 -0.0703,-0.002 -0.0227,-9.4e-4 -0.0441,-0.002 -0.0664,-0.004 -0.0151,-9.7e-4 -0.0329,-0.002 -0.0488,-0.002 -0.0189,-5.3e-4 -0.0346,-0.008 -0.0527,-0.01 -0.0189,-10e-4 -0.035,3.4e-4 -0.0527,-0.002 -0.0151,-0.002 -0.0286,-0.004 -0.043,-0.004 -0.0227,-10e-4 -0.0445,-0.002 -0.0664,-0.004 -0.0151,-0.002 -0.0297,-0.004 -0.043,-0.004 -0.0151,-10e-4 -0.0313,-0.003 -0.0449,-0.004 -0.0189,-9.5e-4 -0.0389,-1.9e-4 -0.0586,-0.002 -0.0113,-10e-4 -0.0219,-0.003 -0.0332,-0.002 -0.0151,-4e-5 -0.0345,1.4e-4 -0.0488,0 -0.0151,-1.5e-4 -0.0345,-0.002 -0.0508,-0.002 -0.0189,-4.9e-4 -0.0373,-5.4e-4 -0.0547,-0.002 -0.0189,-0.001 -0.0335,-0.003 -0.0527,-0.004 -0.0151,-7.6e-4 -0.0313,-8.6e-4 -0.0449,-0.002 -0.0189,-10e-4 -0.0377,-0.002 -0.0566,-0.004 -0.0151,-0.002 -0.0305,-0.004 -0.043,-0.004 -0.0189,-10e-4 -0.0342,-0.003 -0.0527,-0.004 -0.004,-10e-4 0.001,4.5e-4 -0.01,0 -0.0151,-5.7e-4 -0.027,-8e-4 -0.041,-0.002 -0.0151,-0.001 -0.0313,-0.003 -0.0449,-0.004 -0.17841,-0.006 -0.21826,-0.13963 -0.125,-0.20313 -0.56576,-1.15429 -1.01367,-12.62505 -1.01367,-26.50781 0,-12.28031 0.27929,-22.30329 0.65234,-24.9668 -0.0482,-0.023 -0.0337,-0.0484 -0.004,-0.21875 0.0128,-0.002 0.0248,-0.002 0.0371,-0.002 0.0181,-0.10618 0.0342,-0.28859 0.0527,-0.35937 -0.0313,-0.0368 -0.0496,-0.0925 -0.0176,-0.17579 l 0.006,0.01 c 0.008,-0.0189 0.0178,-0.0389 0.0254,-0.0566 0.0113,-0.0151 0.0219,-0.0325 0.0332,-0.0469 0.0113,-0.0151 0.0199,-0.0274 0.0312,-0.041 0.0113,-0.0151 0.0219,-0.027 0.0332,-0.041 0.0227,-0.0265 0.0521,-0.0464 0.0801,-0.0664 0.0265,-0.0189 0.0513,-0.0337 0.0781,-0.0488 0.0227,-0.0113 0.0453,-0.0237 0.0684,-0.0312 0.0265,-0.0113 0.0505,-0.0178 0.0762,-0.0254 0.0302,-0.008 0.06,-0.0159 0.0899,-0.0234 0.0431,-0.0113 0.087,-0.0139 0.13086,-0.0215 0.0752,-0.0113 0.15097,-0.0238 0.22656,-0.0312 0.0575,-0.008 0.11443,-0.0118 0.17188,-0.0156 0.0427,-0.002 0.0862,-0.002 0.1289,-0.002 0.0378,-10e-4 0.0739,5.4e-4 0.11133,0.002 0.0302,3.1e-4 0.064,0.003 0.0957,0.004 0.0169,-0.004 0.0339,-0.0103 0.0508,-0.0137 0.0189,-0.004 0.0405,-0.008 0.0606,-0.008 0.0189,-10e-4 0.0385,-0.002 0.0566,-0.002 0.0189,-3.8e-4 0.0334,-10e-4 0.0508,-0.002 0.0227,-10e-4 0.0469,-0.003 0.0703,-0.004 0.0227,-6.8e-4 0.0485,-6.4e-4 0.0723,0 0.0227,6.1e-4 0.0485,0.003 0.0723,0.004 0.034,0.002 0.0648,0.004 0.0976,0.008 0.0265,0.002 0.0508,0.002 0.0762,0.004 0.0189,0.002 0.0421,0.003 0.0625,0.002 0.0265,1.1e-4 0.0529,-3.4e-4 0.0801,0 0.0227,3.4e-4 0.0469,10e-4 0.0703,0.002 0.0265,9.8e-4 0.0497,0.002 0.0742,0.004 0.0151,9.1e-4 0.031,7.5e-4 0.0469,0 0.0151,-5.7e-4 0.0251,-0.002 0.041,-0.004 0.0189,-0.002 0.0405,-0.004 0.0605,-0.004 0.0151,-6.5e-4 0.0294,-1.4e-4 0.0449,-0.002 0.0189,-0.002 0.0417,-0.008 0.0625,-0.008 0.0227,-0.002 0.0417,-0.004 0.0625,-0.008 0.0189,-0.001 0.0389,-0.003 0.0566,-0.004 0.0151,-0.002 0.0294,-0.003 0.0449,-0.004 0.0189,-0.002 0.0409,-0.002 0.0605,-0.002 0.0151,1.2e-4 0.0337,-3e-4 0.0488,0 0.0189,4.2e-4 0.0338,0.003 0.0527,0.004 0.0189,0.001 0.0377,0.001 0.0566,0.002 0.0151,0.002 0.0299,0.004 0.0469,0.004 0.0189,0.002 0.0381,0.004 0.0547,0.008 0.0189,0.002 0.0381,0.004 0.0566,0.008 0.0151,0.003 0.0337,0.004 0.0488,0.008 0.0189,0.004 0.0338,0.008 0.0527,0.0117 0.0151,0.004 0.0313,0.004 0.0449,0.0117 0.0151,0.003 0.0345,0.006 0.0508,0.01 0.0151,0.003 0.033,0.008 0.0488,0.0117 0.0113,0.002 0.0219,0.004 0.0332,0.004 0.0151,10e-4 0.031,0.003 0.0469,0.004 0.0113,2.3e-4 0.022,3.8e-4 0.0371,0 0.0113,-3.8e-4 0.0277,-8.6e-4 0.0391,-0.002 0.008,-8.4e-4 0.0178,-0.002 0.0254,-0.004 0.0151,-0.004 0.0307,-0.008 0.0488,-0.0117 0.0151,-0.003 0.0263,-0.004 0.041,-0.0117 0.0189,-0.004 0.0342,-0.006 0.0527,-0.0137 0.11242,-0.0372 0.18225,2.6e-4 0.19531,0.0566 l 37.14844,-0.37695 c 32.53312,-0.3304 37.34427,-0.66053 36.72461,-2.51953 -0.3922,-1.1766 -0.71289,-30.69815 -0.71289,-65.60352 z m 2.85157,2.85352 v 60.61133 60.61133 l 4.63476,0.44726 c 3.1805,0.30666 4.69729,-0.36551 4.61719,-2.03515 -0.028,-0.004 -0.0559,-0.009 -0.084,-0.0137 -0.0143,-0.002 -0.0287,-0.003 -0.043,-0.006 -0.10167,-0.0189 -0.18694,-0.0282 -0.30664,-0.041 -0.0561,-0.009 -0.11038,-0.0247 -0.16602,-0.0352 -0.10734,-0.0113 -0.21516,-0.0199 -0.32227,-0.0312 -0.12245,-0.0189 -0.24712,-0.0355 -0.37109,-0.0469 -0.0854,-0.0104 -0.11964,-0.003 -0.19922,0.004 -0.004,0.008 -0.0139,0.004 -0.0215,0.004 -0.0189,0.003 -0.035,0.008 -0.0527,0.0117 -0.008,0.002 0.0311,-0.0105 0.0274,-0.004 -3.4e-4,9.8e-4 -0.0774,0.0236 -0.0899,0.0273 -0.12623,0.0465 -0.26136,0.0664 -0.39062,0.10156 -0.16139,0.0438 -0.32481,0.0738 -0.49024,0.0957 -0.13341,0.008 -0.26439,0.0338 -0.39648,0.0508 -0.17651,0.0227 -0.35598,0.0134 -0.5332,0.008 -0.1493,-0.003 -0.29832,-0.004 -0.44727,-0.0117 -0.0302,-0.003 -0.0596,-0.008 -0.0898,-0.008 -0.0624,-0.008 -0.12476,-0.0158 -0.1875,-0.0195 -0.0612,-0.004 -0.0697,-0.008 -0.0391,-0.002 -0.0975,0.008 -0.19556,0.012 -0.29296,0.0195 -0.13078,0.008 -0.26147,0.008 -0.39258,0.0117 0.004,4.9e-4 0.0155,2.1e-4 0.0117,0.002 -0.12171,0.0439 -0.32701,0.0143 -0.44727,0.004 -0.45729,-0.0922 -0.75084,-0.39144 -0.85742,-0.83985 -0.0113,-0.0544 -0.01,-0.11045 -0.0176,-0.16601 0.002,-0.21476 0.0515,-0.37771 0.125,-0.5332 -0.0316,-0.0314 -0.0548,-0.0509 -0.0879,-0.084 -1.31958,-1.31947 -1.20222,-114.29544 0.11914,-114.83984 0.29414,-0.12114 6.21772,-0.18476 15.52344,-0.1875 9.30572,-0.003 21.99353,0.0549 35.81836,0.17187 l 50.27148,0.42578 v 57.68946 57.6914 h -6.14844 -6.14843 l -8.11329,-21.17968 c -6.00157,-15.66932 -8.0972,-22.99939 -8.04882,-28.16797 l 0.0625,-6.98633 2.96875,5.70508 c 1.63256,3.13757 3.20544,5.96944 3.49609,6.29297 1.15646,1.28821 7.66992,-2.80369 7.66992,-4.81836 0,-1.18398 -3.34157,-8.87556 -7.42773,-17.0918 l -7.42969,-14.9375 3.12109,-3.32422 c 10.45312,-11.12685 4.53685,-28.1582 -9.78125,-28.1582 -7.1873,0 -11.7112,2.20241 -14.61328,7.11523 -5.12628,8.67802 -1.38734,19.56092 8.08789,23.54492 4.11829,1.73167 3.87172,1.83928 -6.29687,2.72657 -22.65097,1.97646 -26.98438,2.5906 -26.98438,3.83203 0,0.38501 -0.27553,0.72836 -0.70117,0.96484 0.002,0.0314 0.008,0.0624 0.01,0.0937 0.0113,0.19767 0.0197,0.39582 0.0234,0.59375 0.003,0.13077 -0.002,0.30318 0.01,0.39453 0.0265,0.18331 0.0418,0.36841 0.0547,0.55274 0.0113,0.19238 0.0197,0.38356 0.0234,0.57617 0.004,0.18331 0.004,0.36744 0.008,0.55078 7.9e-4,-0.004 -9.5e-4,-0.0194 0.002,-0.0156 0.034,0.0964 0.0339,0.28018 0.043,0.38476 0.0151,0.13947 0.0181,0.32675 0.0332,0.42188 0.0189,0.16478 0.0342,0.23459 0.0645,0.36914 0.0302,0.16554 0.0593,0.3292 0.0918,0.49414 0.0439,0.21959 0.0678,0.4431 0.0859,0.66601 0.0151,0.19956 0.0236,0.39949 0.0273,0.59961 10e-4,0.069 -3.8e-4,0.13805 0.002,0.20703 0.10261,0.0251 0.19679,0.0962 0.27734,0.22657 0.96038,1.55395 11.25926,1.21544 30.25195,-0.99414 l 6.77344,-0.78907 v 13.65235 13.65039 l -12.12304,19.78515 c -6.66732,10.88126 -12.1211,20.522 -12.1211,21.42383 h -0.004 c -10e-6,1.09523 -3.69311,1.63867 -11.12305,1.63867 h -9.58789 c -0.0831,0.0272 -0.16442,0.0588 -0.24805,0.084 -0.39016,0.11716 -0.78911,0.19501 -1.19141,0.25586 -0.25322,0.0227 -0.50174,0.0725 -0.75195,0.11523 -0.32126,0.0544 -0.6457,0.0811 -0.9707,0.0996 -0.37077,0.0265 -0.74135,-0.0105 -1.11133,-0.0332 -0.19691,-0.0113 -0.39496,0.0121 -0.5918,0.0234 -0.27666,0.0189 -0.55311,0.0256 -0.83008,0.0332 -0.0202,10e-4 -0.0403,-0.003 -0.0605,-0.002 0.0254,0.40893 0.1302,0.75119 0.3418,0.96289 0.66079,0.66126 7.61192,1.38651 15.44726,1.61328 v 0.002 c 7.83541,0.22677 23.87285,0.28954 35.63867,0.14063 11.76582,-0.14892 26.05279,-0.3071 31.74805,-0.35547 l 10.35547,-0.0859 -0.37305,-60.96875 -0.37109,-60.96875 h -54.19531 z m 69.3457,9.26953 c 1.59224,0 4.77168,1.87512 7.06445,4.16797 5.56127,5.5615 5.52437,11.30201 -0.11133,17.7207 -2.35317,2.6801 -4.27734,5.60102 -4.27734,6.49219 0,0.89121 3.24295,8.08306 7.20703,15.98242 3.96408,7.89933 6.94305,15.10874 6.61914,16.01953 -0.32398,0.91079 -2.41758,-2.03473 -4.65234,-6.54492 -2.68551,-5.41999 -4.9303,-8.20117 -6.61914,-8.20117 -2.22985,0 -2.55469,1.36608 -2.55469,10.71875 0,9.53299 0.86761,13.00894 7.84375,31.41601 4.31418,11.38356 7.84375,21.42947 7.84375,22.32227 0,3.58193 -2.44352,-1.28538 -8.60547,-17.13672 -3.7358,-9.6102 -7.35166,-16.80819 -8.56055,-17.04101 -1.34555,-0.25909 -5.91209,5.9575 -12.7871,17.41015 h 0.002 c -5.8814,9.79669 -11.24379,17.83683 -11.91602,17.86328 -1.93557,0.0813 -0.37241,-2.89508 11.84571,-22.5625 l 11.48242,-18.48437 V 656.2969 639.584 l -18.54102,1.0254 c -11.87093,0.65607 -18.53906,0.52065 -18.53906,-0.375 0,-0.77485 7.16032,-1.83373 16.04297,-2.3711 8.8244,-0.53393 17.16829,-1.28856 18.54101,-1.67773 2.98179,-0.84511 3.46995,-7.64453 0.54883,-7.64453 -2.99973,0 -9.52262,-5.67701 -11.00586,-9.57813 -2.66472,-7.00876 4.74671,-16.09375 13.12891,-16.09375 z m -1.20899,3.06445 c -1.85886,0.0357 -3.8334,0.64351 -5.78125,2.00782 -2.35086,1.64666 -3.16992,3.65249 -3.16992,7.76367 0,4.1111 0.81906,6.11509 3.16992,7.76172 4.25216,2.97834 7.12283,2.79778 11.61329,-0.73438 8.08755,-6.3617 2.22303,-16.95356 -5.83204,-16.79883 z m -303.05078,1.30664 0.8086,6.01563 c 0.44474,3.30807 1.23166,10.34604 1.74804,15.64062 0.74779,7.6695 0.54289,9.60581 -1.00976,9.5254 -2.37299,-0.12382 -25.52604,-6.59833 -26.27539,-7.34766 -0.29393,-0.29394 5.1502,-5.7765 12.09765,-12.1836 z m 302.65039,2.7461 c 2.67899,-0.1522 5.10781,1.68657 5.46875,4.84961 0.26737,2.34225 -0.34839,4.64512 -1.42578,5.32812 -6.41643,4.06761 -13.45365,-3.87951 -7.67969,-8.67187 1.15047,-0.95481 2.419,-1.43668 3.63672,-1.50586 z m 1.88086,75.62305 c 1.1078,-0.0616 2.41862,2.84783 5.82227,11.64062 2.83049,7.31199 5.14541,13.775 5.14258,14.36328 -0.002,0.58828 -6.42615,1.07031 -14.27539,1.07031 h -14.27149 l 7.34375,-11.76562 c 4.03854,-6.47123 8.14619,-12.93417 9.12891,-14.36328 0.39387,-0.57283 0.74011,-0.92524 1.10937,-0.94531 z M 237.10156,699.084 c 1.32881,-0.10205 1.45418,3.60346 -0.23633,10.09375 -2.51464,9.65432 -2.85758,22.40332 -0.70898,26.41797 1.84513,3.44754 7.32843,3.57451 10.34766,0.23828 4.58098,-5.06195 8.07882,-15.20167 8.11132,-23.50586 0.0172,-4.50979 0.67265,-8.20117 1.45704,-8.20117 0.81133,0 1.41693,4.15069 1.41211,9.62696 -0.016,11.01823 -3.75311,20.66953 -11.35547,29.32812 v 0.002 c -8.25346,9.40018 -11.09103,7.0691 -15.21875,-12.49804 -2.34583,-11.1202 -1.6154,-18.60751 2.63086,-26.98438 1.53287,-3.02401 2.76326,-4.45634 3.56054,-4.51758 z m 296.10938,4.23438 c -8.4e-4,0.004 -0.004,0.0174 -0.004,0.0195 -0.0111,0.0436 -0.0286,0.0852 -0.041,0.12891 0.0422,-0.0297 0.0796,-0.0661 0.12304,-0.0937 -0.0259,-0.0184 -0.0517,-0.037 -0.0781,-0.0547 z m 23.66406,16.67187 c -0.49544,-0.0204 -1.06142,0.0695 -1.57617,0.27539 v 0.002 c -1.13772,0.4552 -0.79809,0.79292 0.86328,0.86133 1.50297,0.0619 2.34489,-0.2762 1.87109,-0.75 -0.23694,-0.23698 -0.66276,-0.36829 -1.1582,-0.38868 z m 5.70508,0 c -0.49544,-0.0204 -1.0614,0.0695 -1.57617,0.27539 v 0.002 c -1.13768,0.4552 -0.80008,0.79292 0.86132,0.86133 1.50331,0.0619 2.34685,-0.2762 1.87305,-0.75 -0.23694,-0.23698 -0.66276,-0.36829 -1.1582,-0.38868 z m 5.70312,0 c -0.49545,-0.0204 -1.05946,0.0695 -1.57422,0.27539 v 0.002 c -1.13771,0.4552 -0.80011,0.79292 0.86133,0.86133 1.50297,0.0619 2.34685,-0.2762 1.87305,-0.75 -0.23696,-0.23698 -0.66471,-0.36829 -1.16016,-0.38868 z m 5.70508,0 c -0.49544,-0.0204 -1.05945,0.0695 -1.57422,0.27539 v 0.002 c -1.13771,0.4552 -0.80007,0.79292 0.86133,0.86133 1.50335,0.0619 2.3449,-0.2762 1.87109,-0.75 -0.23695,-0.23698 -0.66275,-0.36829 -1.1582,-0.38868 z m 5.70508,0 c -0.49544,-0.0204 -1.05947,0.0695 -1.57422,0.27539 v 0.002 c -1.13767,0.4552 -0.80008,0.79292 0.86133,0.86133 1.50368,0.0619 2.34489,-0.2762 1.87109,-0.75 -0.23695,-0.23698 -0.66276,-0.36829 -1.1582,-0.38868 z m 5.70508,0 c -0.49546,-0.0204 -1.06144,0.0695 -1.57617,0.27539 v 0.002 c -1.13772,0.4552 -0.79813,0.79292 0.86328,0.86133 1.50338,0.0619 2.34489,-0.2762 1.87109,-0.75 -0.23696,-0.23698 -0.66275,-0.36829 -1.1582,-0.38868 z m 5.70508,0 c -0.49545,-0.0204 -1.0614,0.0695 -1.57618,0.27539 v 0.002 c -1.13771,0.4552 -0.80004,0.79292 0.86133,0.86133 1.50376,0.0619 2.34685,-0.2762 1.87305,-0.75 -0.23696,-0.23698 -0.66276,-0.36829 -1.1582,-0.38868 z m 5.70312,0 c -0.49544,-0.0204 -1.05945,0.0695 -1.57422,0.27539 v 0.002 c -1.13764,0.4552 -0.80011,0.79292 0.86133,0.86133 1.50331,0.0619 2.3449,-0.2762 1.87109,-0.75 -0.23695,-0.23698 -0.66276,-0.36829 -1.1582,-0.38868 z m 5.70508,0 c -0.49545,-0.0204 -1.05949,0.0695 -1.57422,0.27539 v 0.002 c -1.13771,0.4552 -0.80011,0.79292 0.86133,0.86133 1.50297,0.0619 2.34489,-0.2762 1.87109,-0.75 -0.23696,-0.23698 -0.66276,-0.36829 -1.1582,-0.38868 z m -158.68555,3.2461 c 0.001,0.003 0.003,0.0142 0.004,0.0176 0.002,-10e-4 0.003,-0.003 0.006,-0.004 0.003,-10e-4 0.007,-9e-4 0.01,-0.002 -0.006,-0.004 -0.0135,-0.007 -0.0195,-0.0117 z"
       inkscape:connector-curvature="0" />
    <path
       style="fill:none;stroke:#000000;stroke-width:0.26458332px;stroke-linecap:butt;stroke-linejoin:miter;stroke-opacity:1"
       d="m 62.039939,184.44612 7.738854,2.07362"
       id="path2180"
       inkscape:connector-curvature="0" />
    <path
       style="fill:none;stroke:#000000;stroke-width:0.26458332px;stroke-linecap:butt;stroke-linejoin:miter;stroke-opacity:1"
       d="m 137.57699,190.66013 c 29.76714,0 29.76714,0 29.76714,0"
       id="path2182"
       inkscape:connector-curvature="0" />
    <path
       style="fill:none;stroke:#000000;stroke-width:0.59499586;stroke-linecap:butt;stroke-linejoin:miter;stroke-miterlimit:4;stroke-dasharray:none;stroke-opacity:1"
       d="m 139.69842,188.98577 c 4.46803,0.0646 4.51528,-0.10267 4.51528,-0.10267"
       id="path2776"
       inkscape:connector-curvature="0" />
    <circle
       style="opacity:1;fill:#ff0000;fill-opacity:1;stroke:#ff0000;stroke-width:0.5;stroke-linecap:round;stroke-linejoin:round;stroke-miterlimit:4;stroke-dasharray:none;stroke-dashoffset:10.62047291;stroke-opacity:1;paint-order:fill markers stroke"
       id="path2869"
       cx="60.169048"
       cy="162.99774"
       r="1.3029389" />
    <circle
       style="opacity:1;fill:#ff0000;fill-opacity:1;stroke:#ff0000;stroke-width:0.5;stroke-linecap:round;stroke-linejoin:round;stroke-miterlimit:4;stroke-dasharray:none;stroke-dashoffset:10.62047291;stroke-opacity:1;paint-order:fill markers stroke"
       id="path2869-4"
       cx="141.48778"
       cy="187.15222"
       r="1.3029389" />
    <path
       style="fill:none;stroke:#000000;stroke-width:0.26499999;stroke-linecap:butt;stroke-linejoin:miter;stroke-miterlimit:4;stroke-dasharray:0.265, 0.265;stroke-dashoffset:0;stroke-opacity:1"
       d="m 68.762734,146.47788 c -6.935161,2.2137 -8.352306,14.68693 -8.333791,14.68693"
       id="path2888"
       inkscape:connector-curvature="0"
       sodipodi:nodetypes="cc" />
    <path
       style="fill:none;stroke:#000000;stroke-width:0.26499999;stroke-linecap:butt;stroke-linejoin:miter;stroke-miterlimit:4;stroke-dasharray:0.265, 0.265;stroke-dashoffset:0;stroke-opacity:1"
       d="m 147.1042,169.51308 c -6.07442,-0.0234 -5.4212,14.04496 -5.60068,15.9308"
       id="path2888-0"
       inkscape:connector-curvature="0"
       sodipodi:nodetypes="cc" />
    <path
       style="opacity:1;fill:#000000;fill-opacity:1;stroke:#000000;stroke-width:0.71541053;stroke-linecap:round;stroke-linejoin:round;stroke-miterlimit:4;stroke-dasharray:0.71541057, 0.71541057;stroke-dashoffset:0;stroke-opacity:1;paint-order:fill markers stroke"
       d="M 155.49696,594.32049 V 412.17764 H 281.92553 408.3541 V 594.32049 776.46335 H 281.92553 155.49696 Z m 88.03513,156.39882 c 3.24284,-2.14797 9.61097,-9.41261 12.49668,-14.25596 2.92847,-4.91515 4.54507,-11.3668 5.13766,-20.50387 0.31511,-4.85857 0.72829,-8.98912 0.91817,-9.17901 0.18989,-0.18989 2.40142,0.12087 4.91452,0.69057 2.5131,0.5697 5.66545,1.13853 7.00524,1.26407 l 2.43597,0.22824 -0.15368,-5.71428 c -0.0845,-3.14286 -0.45136,-11.17858 -0.81519,-17.85715 -0.36383,-6.67857 -0.66273,-12.94643 -0.66421,-13.92857 -0.006,-3.98701 0.12749,-3.98448 17.18149,0.32519 8.78082,2.21897 17.56913,4.0982 19.52958,4.17608 l 3.56447,0.14159 2.02359,-6.78572 c 6.03787,-20.24687 34.25106,-125.71272 36.63206,-136.93705 l 1.18005,-5.56295 -6.18903,-17.85714 c -9.68882,-27.95502 -24.59394,-68.76378 -27.18713,-74.4357 -2.98629,-6.5317 -4.43114,-7.09939 -9.39231,-3.69026 -8.46283,5.81534 -57.30705,47.89993 -68.28955,58.83885 -3.06078,3.04865 -6.05845,6.49708 -6.66146,7.66319 -1.19239,2.30582 -2.07232,5.34597 -12.04741,41.62392 -19.36922,70.44297 -26.7975,99.82279 -26.7975,105.98768 0,3.17809 -1.41847,2.62081 23.92857,9.40079 9.03572,2.41692 16.65637,4.60677 16.9348,4.86634 0.27842,0.25956 -3.34919,8.13657 -8.06137,17.50446 -9.39959,18.68654 -9.32939,18.33518 -3.96726,19.85786 1.62303,0.46089 3.19173,1.04062 3.48598,1.28829 0.29425,0.24766 -0.5838,3.16669 -1.95122,6.48672 -2.29863,5.581 -2.4872,6.6087 -2.49928,13.62144 -0.0265,15.37692 4.21914,31.14721 9.098,33.79421 2.90051,1.57367 4.56865,1.35995 8.20977,-1.05183 z"
       id="path2905"
       inkscape:connector-curvature="0"
       transform="scale(0.26458333)" />
    <path
       style="opacity:1;fill:#0000ff;fill-opacity:1;stroke:#000000;stroke-width:0.25293583;stroke-linecap:round;stroke-linejoin:round;stroke-miterlimit:4;stroke-dasharray:0.25293583, 0.25293583;stroke-dashoffset:0;stroke-opacity:1;paint-order:fill markers stroke"
       d="m 270.36801,704.82309 c -0.0714,-0.0714 -2.35298,-0.69355 -5.07015,-1.38252 -4.75407,-1.20544 -10.21069,-2.13428 -10.92596,-1.8598 -0.51644,0.19817 -13.02061,-3.20099 -13.82247,-3.75754 -0.97031,-0.67344 -3.39961,-1.63478 -6.37497,-2.52267 -3.01306,-0.89919 -6.13363,-2.28856 -6.33835,-2.82207 -0.20696,-0.53934 1.80636,-4.97119 6.76049,-14.8816 4.61892,-9.23982 7.39168,-15.20881 8.32858,-17.92913 l 0.59319,-1.72236 -0.77883,-0.69887 c -1.85828,-1.66752 -7.4616,-3.37056 -27.95268,-8.4958 -7.52229,-1.88147 -13.69468,-3.44386 -13.71642,-3.47196 -0.11931,-0.15418 2.90894,-13.31272 4.44559,-19.31727 6.70907,-26.21605 29.10883,-109.56448 33.2622,-123.76705 0.85666,-2.92937 1.00084,-3.22037 2.28033,-4.60238 6.26659,-6.76866 48.03653,-44.0581 66.47823,-59.34737 5.5171,-4.57401 7.78457,-6.28548 8.3274,-6.28548 0.50922,0 1.31033,0.83535 1.87781,1.95808 1.96918,3.89593 33.73642,92.11347 33.73642,93.68594 0,1.18588 -9.05479,35.69461 -25.6288,97.67392 -3.9371,14.72297 -8.4257,31.54018 -9.97466,37.37158 -1.54897,5.8314 -2.85765,10.64389 -2.90819,10.69443 -0.14155,0.14156 -4.14073,-0.79065 -15.02643,-3.50265 -11.78012,-2.93482 -18.58528,-4.55661 -22.20287,-5.29133 -2.58037,-0.52406 -2.64038,-0.52515 -3.10859,-0.0569 -1.10617,1.10618 -1.15383,4.87281 -0.29783,23.53683 0.45753,9.97576 0.41564,15.86536 -0.11739,16.50681 -0.32286,0.3885 -1.55293,0.57992 -1.84565,0.28721 z m 43.01756,-57.09518 c 2.94834,-1.50599 5.38522,-8.11364 12.0517,-32.67854 12.8806,-47.4629 22.17601,-83.80385 21.57538,-84.35022 -0.33696,-0.30651 -2.9941,-1.10883 -12.45428,-3.76053 -30.99512,-8.68798 -89.02372,-24.01619 -90.91903,-24.01619 -0.87508,0 -1.36661,0.57036 -2.14733,2.49173 -1.55768,3.83347 -5.80299,19.15281 -18.52001,66.82999 -5.80211,21.75258 -11.63363,45.65813 -11.65005,47.7578 -0.006,0.74098 6.93861,2.80343 42.42421,12.59979 30.64133,8.45901 35.4609,9.69324 40.0273,10.25049 2.40388,0.29336 3.44735,0.60363 4.55274,1.35378 0.96588,0.65546 3.24293,1.48123 7.9479,2.88228 4.6301,1.37876 5.50955,1.45786 7.11147,0.63962 z"
       id="path2911"
       inkscape:connector-curvature="0"
       transform="scale(0.26458333)" />
    <path
       style="opacity:1;fill:#ffff00;fill-opacity:1;stroke:#000000;stroke-width:0.25293583;stroke-linecap:round;stroke-linejoin:round;stroke-miterlimit:4;stroke-dasharray:0.25293583, 0.25293583;stroke-dashoffset:0;stroke-opacity:1;paint-order:fill markers stroke"
       d="m 237.39824,747.80597 c -2.04635,-1.24772 -3.7631,-5.6693 -5.88632,-15.1605 -2.29617,-10.26434 -2.3207,-16.98257 -0.0867,-23.73858 0.88409,-2.67363 3.18021,-7.25703 4.27802,-8.53957 2.50464,-2.92612 2.97028,0.70321 1.0956,8.53957 -2.62502,10.97289 -2.88917,22.98054 -0.59258,26.93647 1.5853,2.73069 5.80324,3.33293 8.87583,1.26728 3.76023,-2.52791 7.87345,-11.15809 9.16931,-19.23865 0.15592,-0.97227 0.38174,-3.69968 0.50183,-6.06091 0.28158,-5.53675 0.79745,-8.01418 1.51859,-7.29304 1.15816,1.15816 1.32662,12.92345 0.2563,17.89964 -1.83625,8.53718 -5.91447,15.95578 -12.32489,22.41998 -2.21696,2.23555 -4.11666,3.46604 -5.34831,3.46423 -0.35469,-5e-4 -1.0102,-0.22368 -1.4567,-0.49592 z"
       id="path2915"
       inkscape:connector-curvature="0"
       transform="scale(0.26458333)" />
    <path
       style="opacity:1;fill:#ff6600;fill-opacity:1;stroke:#000000;stroke-width:0.50587165;stroke-linecap:round;stroke-linejoin:round;stroke-miterlimit:4;stroke-dasharray:0.50587167, 0.50587167;stroke-dashoffset:0;stroke-opacity:1;paint-order:fill markers stroke"
       d="m 239.29809,734.04835 c -1.19625,-2.39937 -1.62488,-11.58346 -0.80239,-17.19278 0.59348,-4.04752 3.34304,-16.20001 3.75958,-16.61654 0.20814,-0.20815 9.94752,2.24478 10.31434,2.59773 0.44107,0.42441 -1.15306,12.77014 -2.16304,16.7516 -1.85914,7.32893 -7.06507,16.35403 -9.43348,16.35403 -0.40188,0 -1.15564,-0.85232 -1.67501,-1.89404 z"
       id="path2917"
       inkscape:connector-curvature="0"
       transform="scale(0.26458333)" />
    <path
       style="opacity:1;fill:#0000ff;fill-opacity:1;stroke:#0000ff;stroke-width:0.35770527;stroke-linecap:round;stroke-linejoin:round;stroke-miterlimit:4;stroke-dasharray:0.35770529, 0.35770529;stroke-dashoffset:0;stroke-opacity:1;paint-order:fill markers stroke"
       d="m 521.37231,719.32441 c -0.15892,-0.24554 -0.34383,-29.25446 -0.41092,-64.46429 l -0.12198,-64.01785 h 56.7704 56.77041 l 0.2496,14.375 c 0.41777,24.06052 0.33282,109.91068 -0.11014,111.3124 -0.21259,0.67271 -0.82154,1.67718 -1.35324,2.23214 l -0.9667,1.00903 h -55.26925 c -43.82321,0 -55.32909,-0.0925 -55.55818,-0.44643 z m 88.0619,-3.36297 23.35083,-0.23738 -0.2272,-41.81589 c -0.12496,-22.99875 -0.3282,-50.53465 -0.45164,-61.1909 l -0.22444,-19.375 H 577.64328 523.4048 v 60.84121 60.84121 l 2.41071,0.22768 c 1.3259,0.12522 6.75,0.25061 12.05358,0.27864 5.30357,0.028 11.57142,0.16172 13.92857,0.2971 6.13244,0.35219 30.55029,0.40867 57.63655,0.13333 z"
       id="path2919"
       inkscape:connector-curvature="0"
       transform="scale(0.26458333)" />
    <path
       style="opacity:1;fill:#552200;fill-opacity:1;stroke:#0000ff;stroke-width:0.71541053;stroke-linecap:round;stroke-linejoin:round;stroke-miterlimit:4;stroke-dasharray:0.71541057, 0.71541057;stroke-dashoffset:0;stroke-opacity:1;paint-order:fill markers stroke"
       d="m 444.99622,774.86693 c -1.52259,-1.20716 -2.26672,-19.00226 -1.58998,-38.0221 l 0.48845,-13.72769 36.50142,-0.63992 c 44.43883,-0.77907 143.14158,-0.76285 185.25142,0.0304 l 30.89286,0.58198 v 25.97005 25.97004 h -124.2273 c -68.32501,0 -124.66459,0.1678 -125.19907,0.3729 -0.53447,0.2051 -1.48748,-0.036 -2.1178,-0.53571 z"
       id="path2923"
       inkscape:connector-curvature="0"
       transform="scale(0.26458333)" />
    <path
       style="opacity:1;fill:#7affff;fill-opacity:1;stroke:#13dbff;stroke-width:0.71541053;stroke-linecap:round;stroke-linejoin:round;stroke-miterlimit:4;stroke-dasharray:0.71541057, 0.71541057;stroke-dashoffset:0;stroke-opacity:1;paint-order:fill markers stroke"
       d="M 446.36781,566.52198 V 414.73627 H 570.65352 694.93924 V 566.52198 718.3077 h -28.16299 -28.16298 l -0.3145,-63.03572 c -0.17297,-34.66964 -0.5522,-63.90515 -0.8427,-64.9678 -0.44296,-1.62026 -1.06332,-2.02373 -3.84395,-2.5 -1.82365,-0.31235 -28.07979,-0.56791 -58.34696,-0.56791 -50.67504,0 -55.17851,0.0965 -56.89189,1.21903 -1.76755,1.15803 -1.88434,1.6227 -2.33382,9.28571 -0.26024,4.43668 -0.37318,33.37924 -0.25097,64.31679 l 0.22219,56.25011 -34.82143,-1.1e-4 -34.82143,-1e-4 z"
       id="path2925"
       inkscape:connector-curvature="0"
       transform="scale(0.26458333)" />
    <path
       style="opacity:1;fill:#ffaaaa;fill-opacity:1;stroke:#13dbff;stroke-width:0.35770527;stroke-linecap:round;stroke-linejoin:round;stroke-miterlimit:4;stroke-dasharray:0.35770529, 0.35770529;stroke-dashoffset:0;stroke-opacity:0;paint-order:fill markers stroke"
       d="m 568.97771,712.83436 c 0.45671,-1.87508 3.91264,-7.64683 22.74469,-37.98593 l 1.0221,-1.64664 v -16.8355 -16.8355 l -1.33928,2.4e-4 c -0.73661,1.4e-4 -5.51786,0.25243 -10.625,0.56066 -11.78958,0.71152 -23.91031,0.84812 -24.48373,0.27591 -0.31366,-0.31299 0.0499,-0.50507 1.49912,-0.79212 2.99089,-0.59241 7.16166,-1.06429 12.98461,-1.4691 10.94759,-0.76106 18.60326,-1.5256 19.6706,-1.9644 2.74367,-1.12798 3.15647,-7.68262 0.48383,-7.68262 -1.16889,0 -3.63213,-1.33863 -5.75204,-3.12591 -4.2121,-3.55117 -5.79552,-6.17996 -5.76364,-9.56878 0.0548,-5.82321 5.88523,-11.92076 12.00225,-12.55209 1.7167,-0.17718 2.30011,-0.0657 3.99368,0.76285 2.46701,1.20699 6.1456,4.80371 7.3296,7.16646 0.72032,1.43743 0.89036,2.29938 0.87993,4.46032 -0.0111,2.30429 -0.171,2.97801 -1.1442,4.82143 -0.6222,1.17857 -2.18141,3.42857 -3.46489,5 -1.28349,1.57143 -2.66563,3.52841 -3.07143,4.34885 l -0.7378,1.49169 1.29925,3.13866 c 0.71459,1.72626 3.27581,7.2425 5.69159,12.2583 4.61439,9.58066 7.12055,15.47207 6.88383,16.18225 -0.20539,0.61616 -2.25321,-2.33355 -3.91139,-5.63403 -1.90908,-3.79986 -4.35503,-7.45705 -5.48054,-8.19451 -0.51083,-0.33471 -1.41343,-0.5492 -2.05087,-0.48736 -2.00269,0.19427 -2.21684,1.16049 -2.20128,9.93187 0.0191,10.78444 0.53949,12.93962 7.84705,32.5 4.58396,12.27002 7.6785,21.26073 7.66368,22.26564 -0.0307,2.0825 -1.94581,-1.89459 -7.11012,-14.76564 -4.17231,-10.3987 -7.77179,-18.01113 -9.11154,-19.26976 l -0.91902,-0.86339 -1.91714,1.97934 c -2.21495,2.28681 -5.14235,6.57732 -11.16788,16.36809 -2.35732,3.83036 -5.20334,8.38611 -6.3245,10.1239 -4.08157,6.32639 -6.01445,8.47944 -5.41952,6.03682 z m 25.83972,-88.15704 c 2.34797,-1.17004 4.90906,-3.64396 5.79672,-5.59942 2.05579,-4.52873 -0.4615,-10.54817 -5.2724,-12.6076 -4.35098,-1.86254 -10.869,0.68672 -12.31496,4.8165 -0.24672,0.70464 -0.43743,2.80435 -0.42441,4.67256 0.0338,4.84353 1.07398,6.68416 4.92746,8.71898 2.35901,1.24566 4.7865,1.24532 7.28759,-0.001 z"
       id="path2937"
       inkscape:connector-curvature="0"
       transform="scale(0.26458333)" />
    <path
       style="opacity:1;fill:#ffaaaa;fill-opacity:1;stroke:#13dbff;stroke-width:0.50587165;stroke-linecap:round;stroke-linejoin:round;stroke-miterlimit:4;stroke-dasharray:0.50587167, 0.50587167;stroke-dashoffset:0;stroke-opacity:0;paint-order:fill markers stroke"
       d="m 296.91602,638.80864 c -0.7857,-1.4681 -1.47096,-5.94584 -2.88551,-18.85508 -1.65439,-15.09807 -2.421,-18.68782 -3.99086,-18.68782 -0.96064,0 -7.69297,5.61179 -16.7069,13.92617 -9.36589,8.63902 -13.85573,12.53231 -14.13292,12.25511 -0.21084,-0.21083 14.53258,-14.9504 27.17622,-27.16913 l 5.45945,-5.27597 1.52023,-5.58066 c 2.86123,-10.50336 5.49109,-21.66772 5.49109,-23.31092 0,-1.51908 -0.19962,-1.71728 -2.65476,-2.63586 -1.46012,-0.5463 -7.98773,-2.06282 -14.5058,-3.37005 -12.48707,-2.50432 -18.19478,-4.01665 -18.19478,-4.82093 0,-0.71789 0.16861,-0.69546 15.44296,2.05412 15.02177,2.7041 20.69192,3.23544 22.10279,2.07121 1.19843,-0.98893 1.08451,-4.1631 -0.20841,-5.80677 -0.57665,-0.73309 -2.00575,-1.99153 -3.17578,-2.79654 -2.66141,-1.8311 -4.84884,-5.72896 -5.21704,-9.29644 -0.35606,-3.44991 1.22166,-7.29406 3.95326,-9.63221 6.80108,-5.82148 17.387,-2.10565 19.6544,6.89902 1.13433,4.50482 -1.45314,9.38105 -6.86224,12.93223 -4.40851,2.89428 -5.00972,4.25165 -4.61264,10.41421 0.16109,2.50012 1.10559,8.40952 2.0989,13.13198 2.0262,9.63313 2.86234,17.59658 1.61746,15.40482 -0.39446,-0.69448 -1.31322,-3.83679 -2.0417,-6.98292 -1.67429,-7.23089 -2.56132,-9.17952 -4.1786,-9.17952 -1.64098,0 -2.88772,2.135 -4.71907,8.08122 -2.37299,7.70488 -2.72687,10.44381 -2.37254,18.36284 0.30927,6.91223 1.71758,22.64208 2.93629,32.79653 0.42049,3.50356 0.43639,5.10196 0.0546,5.48379 -0.38183,0.38183 -0.68732,0.26162 -1.04806,-0.41243 z m 12.90006,-89.86649 c 2.16754,-1.5845 3.24555,-4.24644 3.2676,-8.06871 0.0371,-6.42725 -2.70416,-9.30823 -8.85671,-9.30823 -3.54448,0 -5.76568,0.87962 -7.53703,2.98475 -3.82723,4.5484 -2.47577,11.95418 2.66403,14.59848 2.93202,1.50845 8.26012,1.40339 10.46211,-0.20629 z"
       id="path2939"
       inkscape:connector-curvature="0"
       transform="scale(0.26458333)" />
    <path
       style="opacity:1;fill:#ffaaaa;fill-opacity:1;stroke:#13dbff;stroke-width:0.50587165;stroke-linecap:round;stroke-linejoin:round;stroke-miterlimit:4;stroke-dasharray:0.50587167, 0.50587167;stroke-dashoffset:0;stroke-opacity:0;paint-order:fill markers stroke"
       d="m 300.72511,544.75303 c -0.97613,-1.08046 -1.92342,-2.43281 -2.1051,-3.00522 -0.69361,-2.18536 3.07679,-6.64707 5.61716,-6.64707 2.43469,0 5.72132,3.37682 5.72132,5.87831 0,1.25389 -1.9894,3.98717 -3.59037,4.93289 -2.22231,1.31275 -3.68058,1.01326 -5.64301,-1.15891 z"
       id="path2941"
       inkscape:connector-curvature="0"
       transform="scale(0.26458333)" />
    <path
       style="opacity:1;fill:#ffaaaa;fill-opacity:1;stroke:#13dbff;stroke-width:0.50587165;stroke-linecap:round;stroke-linejoin:round;stroke-miterlimit:4;stroke-dasharray:0.50587167, 0.50587167;stroke-dashoffset:0;stroke-opacity:0;paint-order:fill markers stroke"
       d="m 588.41402,620.00827 c -3.77339,-2.37014 -3.59587,-6.85483 0.35215,-8.89643 2.32992,-1.20485 4.41455,-0.958 6.09419,0.72165 1.2354,1.2354 1.47638,1.88578 1.47638,3.98465 0,3.33616 -1.08715,4.667 -4.06054,4.97077 -1.67364,0.17098 -2.66669,-0.0297 -3.86218,-0.78064 z"
       id="path2943"
       inkscape:connector-curvature="0"
       transform="scale(0.26458333)" />
    <path
       style="opacity:1;fill:#cccccc;fill-opacity:1;stroke:#13dbff;stroke-width:0.50587165;stroke-linecap:round;stroke-linejoin:round;stroke-miterlimit:4;stroke-dasharray:0.50587167, 0.50587167;stroke-dashoffset:0;stroke-opacity:0;paint-order:fill markers stroke"
       d="m 306.40887,643.06641 c -2.06842,-0.91239 -2.47793,-1.3532 -3.15731,-3.39863 -1.50291,-4.52482 -4.59532,-36.50218 -4.18252,-43.24977 0.2573,-4.20587 1.70934,-10.35406 2.44536,-10.35406 0.37946,0 1.35799,2.90136 2.24452,6.65508 0.55201,2.33729 1.98513,3.1839 5.2621,3.10857 1.60999,-0.037 3.43312,-0.33803 4.05139,-0.66892 1.04996,-0.56192 1.10083,-0.82354 0.77083,-3.96429 -0.19433,-1.84947 -1.36701,-8.59022 -2.60597,-14.97943 -1.23896,-6.38922 -2.29744,-13.19706 -2.35219,-15.12854 l -0.0995,-3.51178 2.51582,-1.79152 c 7.1447,-5.08776 9.19452,-8.82226 8.73894,-15.92118 -0.41081,-6.40129 -3.54732,-11.36997 -8.78245,-13.91266 -1.99131,-0.96717 -3.30962,-1.20578 -6.77608,-1.22644 -3.87203,-0.0231 -4.64184,0.14077 -7.67393,1.63347 -6.91109,3.40232 -10.38298,11.19666 -8.25224,18.52617 1.07782,3.70756 1.80903,4.88251 5.27596,8.47778 1.5403,1.5973 2.63109,2.90419 2.424,2.90419 -0.20709,0 -3.83653,-0.66824 -8.06541,-1.48497 -18.08423,-3.49263 -25.0286,-4.42243 -26.62974,-3.56553 -2.03685,1.09009 -3.15216,2.5269 -2.53693,3.26821 0.31381,0.37812 0.41352,1.26164 0.22648,2.00686 -0.74164,2.95494 2.58513,4.34726 16.35323,6.84421 10.21437,1.85245 16.93175,3.42986 18.03198,4.23437 0.73938,0.54065 0.53019,1.73233 -2.18567,12.45129 l -3.00329,11.85343 -9.02323,8.76774 c -4.96278,4.82225 -13.36895,12.94754 -18.68039,18.05619 l -9.65715,9.28846 -8.4895,-2.54712 c -4.66922,-1.40091 -9.47169,-2.68175 -10.67216,-2.84629 -1.20047,-0.16454 -2.18267,-0.35919 -2.18267,-0.43254 0,-0.0734 0.79549,-0.92888 1.76776,-1.90115 1.48187,-1.48186 1.76777,-2.12535 1.76777,-3.97873 0,-3.05112 -2.0554,-5.91912 -4.26789,-5.95521 -0.76604,-0.0125 -0.85021,-0.15075 -0.37881,-0.62215 0.82489,-0.8249 0.76175,-1.41422 -0.15152,-1.41422 -0.41669,0 -0.75762,0.31936 -0.75762,0.70969 0,0.39033 -0.94571,1.01536 -2.10157,1.38896 -2.77524,0.89701 -4.1277,2.77367 -4.1277,5.72753 0,1.26996 0.26516,2.57419 0.58925,2.89827 0.74146,0.74146 0.75819,1.39738 0.0357,1.39738 -1.69277,0 -6.08396,-1.71538 -6.5314,-2.55144 -0.39912,-0.74575 1.03568,-6.76001 6.34739,-26.60644 16.83911,-62.91692 22.48479,-82.9711 23.35716,-82.9676 1.19413,0.005 22.9798,5.17758 40.05265,9.5101 31.91803,8.09973 55.63872,14.71554 56.23789,15.68501 0.68901,1.11484 -5.38396,26.19393 -15.60782,64.45448 -8.958,33.52331 -11.71368,42.26842 -14.14634,44.89332 -1.46566,1.58146 -2.29259,1.61808 -5.4171,0.23985 z m -77.17283,-36.0418 c 0,-0.41669 -0.21387,-0.75761 -0.47527,-0.75761 -0.63689,0 -1.09303,0.78872 -0.68951,1.19224 0.56881,0.56881 1.16478,0.34643 1.16478,-0.43463 z m 0.50508,-2.0203 c 0,-0.41669 -0.34093,-0.75762 -0.75762,-0.75762 -0.41668,0 -0.75761,0.34093 -0.75761,0.75762 0,0.41668 0.34093,0.75761 0.75761,0.75761 0.41669,0 0.75762,-0.34093 0.75762,-0.75761 z m 0.50507,-2.02031 c 0,-0.41669 -0.34092,-0.75761 -0.75761,-0.75761 -0.41669,0 -0.75761,0.34092 -0.75761,0.75761 0,0.41669 0.34092,0.75762 0.75761,0.75762 0.41669,0 0.75761,-0.34093 0.75761,-0.75762 z m 0.18265,-2.0203 c 0.17709,-0.4615 8e-4,-0.75762 -0.45104,-0.75762 -0.40797,0 -0.74176,0.34093 -0.74176,0.75762 0,0.41668 0.20297,0.75761 0.45104,0.75761 0.24807,0 0.58186,-0.34093 0.74176,-0.75761 z m 0.32243,-2.0624 c 0,-0.89193 -1.08731,-0.7366 -1.39948,0.19993 -0.10996,0.32987 0.15994,0.59977 0.59978,0.59977 0.43983,0 0.7997,-0.35986 0.7997,-0.7997 z m 0.50508,-2.0203 c 0,-0.89193 -1.08731,-0.7366 -1.39949,0.19992 -0.10995,0.32988 0.15995,0.59978 0.59978,0.59978 0.43984,0 0.79971,-0.35987 0.79971,-0.7997 z m 0.40827,-1.76356 c -0.0996,-0.29863 -0.39691,-0.54296 -0.66081,-0.54296 -0.2639,0 -0.56127,0.24433 -0.66081,0.54296 -0.0995,0.29862 0.19782,0.54295 0.66081,0.54295 0.46299,0 0.76035,-0.24433 0.66081,-0.54295 z m 0.39518,-2.29764 c -0.25918,-0.6754 -0.46469,-0.73066 -0.94206,-0.25329 -0.47737,0.47737 -0.4494,0.71017 0.1282,1.06715 0.94051,0.58127 1.23588,0.2859 0.81386,-0.81386 z m 0.71178,-1.45255 c 0,-0.41669 -0.34093,-0.75762 -0.75762,-0.75762 -0.78871,0 -1.00205,0.59736 -0.4209,1.17851 0.58116,0.58116 1.17852,0.36782 1.17852,-0.42089 z m 0.50507,-2.0624 c 0,-0.43984 -0.2699,-0.70973 -0.59978,-0.59977 -0.93652,0.31217 -1.09185,1.39948 -0.19992,1.39948 0.43983,0 0.7997,-0.35987 0.7997,-0.79971 z m 0.58084,-1.97821 c 0,-0.26391 -0.24433,-0.56127 -0.54296,-0.66081 -0.29862,-0.0996 -0.54295,0.19782 -0.54295,0.66081 0,0.46298 0.24433,0.76035 0.54295,0.6608 0.29863,-0.0995 0.54296,-0.3969 0.54296,-0.6608 z m 0.81864,-1.86247 c -0.31217,-0.93653 -1.39948,-1.09186 -1.39948,-0.19993 0,0.43984 0.35987,0.79971 0.79971,0.79971 0.43983,0 0.70973,-0.26991 0.59977,-0.59978 z m 0.62083,-1.67307 c 0,-0.41669 -0.34093,-0.75761 -0.75762,-0.75761 -0.78871,0 -1.00205,0.59735 -0.42089,1.17851 0.58115,0.58116 1.17851,0.36781 1.17851,-0.4209 z m 0.8944,-2.17814 c 0.10996,-0.32988 -0.15994,-0.59978 -0.59978,-0.59978 -0.43983,0 -0.7997,0.35987 -0.7997,0.79971 0,0.89192 1.08731,0.73659 1.39948,-0.19993 z m 0.50508,-1.70463 c -0.31218,-0.93652 -1.39948,-1.09186 -1.39948,-0.19993 0,0.43984 0.35986,0.79971 0.7997,0.79971 0.43984,0 0.70974,-0.26991 0.59978,-0.59978 z m 0.6166,-2.44398 c -0.66674,-0.42153 -0.66625,-0.47765 0.004,-0.48798 0.82755,-0.0127 2.15614,-2.40586 1.72392,-3.1052 -0.14757,-0.23877 0.0292,-0.4359 0.39285,-0.43807 0.7539,-0.005 2.03367,-2.44021 1.62746,-3.09747 -0.14759,-0.23877 0.10495,-0.43413 0.56118,-0.43413 0.84758,0 0.81273,-1.07534 -0.0438,-1.35308 -0.57865,-0.18763 -1.81388,2.334 -1.43981,2.93926 0.14757,0.23877 -0.0292,0.4359 -0.39285,0.43807 -0.7539,0.005 -2.03367,2.4402 -1.62746,3.09747 0.14757,0.23877 0.0356,0.43412 -0.24881,0.43412 -0.77384,0 -1.68487,1.98384 -1.3326,2.90185 0.2408,0.62752 0.44118,0.66941 0.91855,0.19204 0.47737,-0.47737 0.44622,-0.71448 -0.14282,-1.08688 z m 6.06514,-9.83569 c 0,-0.41669 -0.34093,-0.75761 -0.75762,-0.75761 -0.78871,0 -1.00205,0.59735 -0.42089,1.17851 0.58115,0.58116 1.17851,0.36781 1.17851,-0.4209 z m 1.01015,-1.14158 c 0,-0.21118 0.51139,-0.95883 1.13642,-1.66145 2.68405,-3.0172 2.98435,-3.47718 2.63704,-4.03914 -0.49478,-0.80057 -3.89217,3.02639 -3.52835,3.97448 0.18012,0.46939 0.0201,0.61087 -0.47575,0.4206 -0.84859,-0.32563 -1.50192,0.42413 -1.03205,1.1844 0.36598,0.59217 1.26269,0.67818 1.26269,0.12111 z m 6.4954,-7.19218 c 0.31662,0 0.57567,-0.34092 0.57567,-0.75761 0,-0.41669 -0.23442,-0.75762 -0.52093,-0.75762 -0.28651,0 -0.65175,0.34093 -0.81165,0.75762 -0.1599,0.41669 -0.60734,0.75761 -0.9943,0.75761 -0.75751,0 -0.93016,0.61522 -0.33864,1.20674 0.20072,0.20072 0.62353,0.0113 0.93957,-0.42089 0.31604,-0.43222 0.83367,-0.78585 1.15028,-0.78585 z m 2.0909,-1.76776 c 0,-0.41669 -0.34093,-0.75762 -0.75762,-0.75762 -0.78871,0 -1.00205,0.59736 -0.42089,1.17851 0.58115,0.58116 1.17851,0.36782 1.17851,-0.42089 z m 1.70463,-0.65546 c 0.44385,-0.71817 -0.4318,-1.58681 -1.15133,-1.14212 -0.37549,0.23207 -0.52655,0.67464 -0.33567,0.98349 0.40559,0.65626 1.13158,0.7337 1.487,0.15863 z m 1.62683,-1.30903 c 0.1557,-0.40575 0.68168,-0.59397 1.24684,-0.44617 0.96829,0.25321 1.37929,-0.56443 0.54341,-1.08103 -0.64324,-0.39754 -3.0929,0.86598 -3.09747,1.59765 -0.005,0.85559 0.97208,0.80291 1.30722,-0.0705 z"
       id="path2949"
       inkscape:connector-curvature="0"
       transform="scale(0.26458333)" />
    <path
       style="opacity:1;fill:#cccccc;fill-opacity:1;stroke:#13dbff;stroke-width:0.50587165;stroke-linecap:round;stroke-linejoin:round;stroke-miterlimit:4;stroke-dasharray:0.50587167, 0.50587167;stroke-dashoffset:0;stroke-opacity:0;paint-order:fill markers stroke"
       d="m 281.51144,636.11433 c -3.88909,-1.04527 -9.43203,-2.6364 -12.31764,-3.53585 l -5.24656,-1.63535 2.21611,-2.28794 c 1.21886,-1.25836 6.61203,-6.39265 11.98484,-11.40953 6.70533,-6.26113 9.89085,-8.92401 10.15814,-8.49153 0.83038,1.34359 3.34818,26.07186 2.85477,28.03778 -0.42469,1.69208 -0.97741,1.65327 -9.64966,-0.67758 z"
       id="path2951"
       inkscape:connector-curvature="0"
       transform="scale(0.26458333)" />
    <path
       style="opacity:1;fill:#cccccc;fill-opacity:1;stroke:#13dbff;stroke-width:0.50587165;stroke-linecap:round;stroke-linejoin:round;stroke-miterlimit:4;stroke-dasharray:0.50587167, 0.50587167;stroke-dashoffset:0;stroke-opacity:0;paint-order:fill markers stroke"
       d="m 526.85303,712.63507 c -1.06317,-1.72025 -1.31775,-98.6517 -0.29295,-111.54511 l 0.31112,-3.91434 h 40.75734 c 22.41654,0 45.22594,0.14966 50.68755,0.33258 l 9.93021,0.33257 v 57.26167 57.26167 l -6.10687,-0.14182 -6.10688,-0.14181 -4.7556,-12.37437 c -9.12422,-23.74178 -11.32463,-31.28342 -11.30409,-38.74331 l 0.0109,-3.93564 2.78842,5.3033 c 3.50965,6.675 3.66792,6.84006 5.86415,6.11524 2.51959,-0.83155 5.46787,-3.44064 5.46787,-4.83883 0,-1.71445 -3.01257,-8.64319 -9.15535,-21.05676 l -5.41434,-10.94151 2.70864,-3.12776 c 4.50632,-5.2036 6.20798,-10.29118 5.30266,-15.85372 -0.84286,-5.17872 -3.7838,-9.1868 -8.41293,-11.46562 -2.07869,-1.0233 -3.18732,-1.2049 -7.25203,-1.18798 -4.0633,0.0169 -5.22372,0.21817 -7.57615,1.3139 -4.5865,2.13633 -6.99828,5.16777 -8.3694,10.51975 -1.92319,7.50695 2.07297,15.45021 9.45013,18.78427 1.32793,0.60015 2.31076,1.2589 2.18407,1.46389 -0.12669,0.20499 -1.87906,0.52657 -3.89415,0.71462 -16.77421,1.56538 -28.27368,2.8597 -29.47914,3.31801 -1.74007,0.66157 -2.19851,1.31234 -2.20866,3.13526 -0.004,0.76393 -0.23501,1.38896 -0.51281,1.38896 -0.27779,0 -0.50507,0.34093 -0.50507,0.75762 0,0.41669 0.20505,0.75761 0.45566,0.75761 0.25062,0 0.68328,0.65293 0.96148,1.45095 0.44862,1.28692 0.81528,1.48962 3.24326,1.79297 3.03144,0.37876 14.00062,-0.32787 25.93789,-1.67089 l 7.7875,-0.87615 v 13.59518 13.59518 l -9.34495,15.34568 c -5.13973,8.44012 -10.65137,17.77839 -12.2481,20.7517 -2.48035,4.61874 -3.12381,5.45791 -4.41837,5.76229 -0.83338,0.19594 -6.93024,0.47896 -13.54858,0.62892 l -12.03334,0.27267 1.26843,-1.26843 c 3.13012,-3.13012 1.70227,-8.71778 -2.55605,-10.00272 -0.69866,-0.21082 -1.00649,-0.60658 -0.82985,-1.06689 0.1734,-0.45189 -0.0296,-0.73176 -0.53085,-0.73176 -0.44641,0 -0.81165,0.29718 -0.81165,0.66041 0,0.36323 -0.856,1.03808 -1.90221,1.49967 -2.19941,0.97037 -3.65363,3.11682 -3.65363,5.3928 0,1.86469 1.16087,4.32044 2.35941,4.99118 0.63837,0.35725 0.25827,0.51903 -1.55905,0.66357 -1.32178,0.10513 -2.5339,-0.0202 -2.6936,-0.27867 z m 8.96431,-14.19165 c 0,-0.41669 -0.34093,-0.75762 -0.75762,-0.75762 -0.41668,0 -0.75761,0.34093 -0.75761,0.75762 0,0.41668 0.34093,0.75761 0.75761,0.75761 0.41669,0 0.75762,-0.34093 0.75762,-0.75761 z m 0,-2.02031 c 0,-0.41669 -0.34093,-0.75761 -0.75762,-0.75761 -0.41668,0 -0.75761,0.34092 -0.75761,0.75761 0,0.41669 0.34093,0.75762 0.75761,0.75762 0.41669,0 0.75762,-0.34093 0.75762,-0.75762 z m 0,-2.0203 c 0,-0.41669 -0.34093,-0.75762 -0.75762,-0.75762 -0.41668,0 -0.75761,0.34093 -0.75761,0.75762 0,0.41668 0.34093,0.75761 0.75761,0.75761 0.41669,0 0.75762,-0.34093 0.75762,-0.75761 z m 0,-2.02031 c 0,-0.41669 -0.34093,-0.75761 -0.75762,-0.75761 -0.41668,0 -0.75761,0.34092 -0.75761,0.75761 0,0.41669 0.34093,0.75762 0.75761,0.75762 0.41669,0 0.75762,-0.34093 0.75762,-0.75762 z m 0,-2.0203 c 0,-0.41669 -0.34093,-0.75762 -0.75762,-0.75762 -0.41668,0 -0.75761,0.34093 -0.75761,0.75762 0,0.41668 0.34093,0.75761 0.75761,0.75761 0.41669,0 0.75762,-0.34093 0.75762,-0.75761 z m 0,-2.02031 c 0,-0.41669 -0.34093,-0.75761 -0.75762,-0.75761 -0.41668,0 -0.75761,0.34092 -0.75761,0.75761 0,0.41669 0.34093,0.75762 0.75761,0.75762 0.41669,0 0.75762,-0.34093 0.75762,-0.75762 z m 0,-2.06239 c 0,-0.43984 -0.2699,-0.70974 -0.59978,-0.59978 -0.93652,0.31217 -1.09185,1.39948 -0.19992,1.39948 0.43983,0 0.7997,-0.35987 0.7997,-0.7997 z m 0.50508,-1.97822 c 0,-0.41669 -0.34093,-0.75761 -0.75762,-0.75761 -0.41669,0 -0.75761,0.34092 -0.75761,0.75761 0,0.41669 0.34092,0.75762 0.75761,0.75762 0.41669,0 0.75762,-0.34093 0.75762,-0.75762 z m 0,-2.0203 c 0,-0.41669 -0.34093,-0.75762 -0.75762,-0.75762 -0.41669,0 -0.75761,0.34093 -0.75761,0.75762 0,0.41668 0.34092,0.75761 0.75761,0.75761 0.41669,0 0.75762,-0.34093 0.75762,-0.75761 z m 0,-2.02031 c 0,-0.41669 -0.34093,-0.75761 -0.75762,-0.75761 -0.41669,0 -0.75761,0.34092 -0.75761,0.75761 0,0.41669 0.34092,0.75761 0.75761,0.75761 0.41669,0 0.75762,-0.34092 0.75762,-0.75761 z m 0,-2.0203 c 0,-0.41669 -0.20297,-0.75762 -0.45104,-0.75762 -0.24807,0 -0.58187,0.34093 -0.74177,0.75762 -0.17709,0.46149 -8e-4,0.75761 0.45104,0.75761 0.40797,0 0.74177,-0.34093 0.74177,-0.75761 z m 0.50507,-2.02031 c 0,-0.41669 -0.34092,-0.75761 -0.75761,-0.75761 -0.41669,0 -0.75762,0.34092 -0.75762,0.75761 0,0.41669 0.34093,0.75761 0.75762,0.75761 0.41669,0 0.75761,-0.34092 0.75761,-0.75761 z m 0,-2.0203 c 0,-0.41669 -0.34092,-0.75762 -0.75761,-0.75762 -0.41669,0 -0.75762,0.34093 -0.75762,0.75762 0,0.41668 0.34093,0.75761 0.75762,0.75761 0.41669,0 0.75761,-0.34093 0.75761,-0.75761 z m 0.38933,-1.86247 c -0.31217,-0.93653 -1.39948,-1.09186 -1.39948,-0.19993 0,0.43984 0.35987,0.7997 0.7997,0.7997 0.43984,0 0.70974,-0.2699 0.59978,-0.59977 z m -0.0607,-2.16197 c -0.15649,-0.40779 -0.0672,-0.87577 0.1985,-1.03996 0.73057,-0.45152 0.58021,-1.10368 -0.33547,-1.45506 -0.62931,-0.2415 -0.75701,-0.079 -0.55249,0.70307 0.14629,0.55944 0.06,1.14443 -0.19167,1.3 -0.74442,0.46008 -0.52247,1.23339 0.35399,1.23339 0.50609,0 0.70454,-0.27913 0.52714,-0.74144 z m 0.92837,-4.23082 c -0.11181,-0.11181 -0.60447,-0.0494 -1.0948,0.13881 -0.74916,0.28748 -0.77493,0.41415 -0.16138,0.79335 0.67265,0.41572 1.78135,-0.407 1.25618,-0.93216 z m 0.25822,-1.34119 c 0,-0.41669 -0.34093,-0.75762 -0.75761,-0.75762 -0.78872,0 -1.00206,0.59736 -0.4209,1.17851 0.58116,0.58116 1.17851,0.36782 1.17851,-0.42089 z m 0.50508,-2.02031 c 0,-0.41669 -0.34093,-0.75761 -0.75762,-0.75761 -0.41669,0 -0.75761,0.34092 -0.75761,0.75761 0,0.41669 0.34092,0.75762 0.75761,0.75762 0.41669,0 0.75762,-0.34093 0.75762,-0.75762 z m 0.50507,-2.0203 c 0,-0.41669 -0.34092,-0.75762 -0.75761,-0.75762 -0.41669,0 -0.75762,0.34093 -0.75762,0.75762 0,0.41668 0.34093,0.75761 0.75762,0.75761 0.41669,0 0.75761,-0.34093 0.75761,-0.75761 z m 0.50508,-2.02031 c 0,-0.41669 -0.34093,-0.75761 -0.75761,-0.75761 -0.41669,0 -0.75762,0.34092 -0.75762,0.75761 0,0.41669 0.34093,0.75762 0.75762,0.75762 0.41668,0 0.75761,-0.34093 0.75761,-0.75762 z m 0.40827,-1.80565 c -0.0995,-0.29862 -0.39691,-0.54295 -0.66081,-0.54295 -0.2639,0 -0.56126,0.24433 -0.66081,0.54295 -0.0995,0.29863 0.19782,0.54296 0.66081,0.54296 0.46299,0 0.76035,-0.24433 0.66081,-0.54296 z m 0.9688,-2.28894 c -0.17784,-0.17784 -0.72453,-0.1694 -1.21486,0.0187 -0.75616,0.29016 -0.77928,0.41147 -0.15228,0.79898 0.77429,0.47854 1.95637,-0.22851 1.36714,-0.81773 z m 0.64323,-1.46125 c 0,-0.41669 -0.34092,-0.75761 -0.75761,-0.75761 -0.41669,0 -0.75761,0.34092 -0.75761,0.75761 0,0.41669 0.34092,0.75762 0.75761,0.75762 0.41669,0 0.75761,-0.34093 0.75761,-0.75762 z m 0.58084,-2.0203 c 0,-0.26391 -0.24433,-0.56127 -0.54295,-0.66081 -0.29863,-0.0996 -0.54296,0.19782 -0.54296,0.66081 0,0.46298 0.24433,0.76035 0.54296,0.6608 0.29862,-0.0995 0.54295,-0.3969 0.54295,-0.6608 z m 1.16536,-1.22779 c 0.37353,-0.60438 -0.57661,-1.20321 -1.24936,-0.78743 -0.56485,0.3491 -0.19403,1.2576 0.51332,1.2576 0.245,0 0.57622,-0.21158 0.73604,-0.47017 z m 1.4997,-2.32202 c 1.23752,-1.88868 0.40649,-2.65103 -1.04653,-0.96004 -0.91699,1.06717 -1.05427,1.50576 -0.56791,1.81445 0.35276,0.2239 0.67207,0.41057 0.70957,0.41482 0.0375,0.004 0.44469,-0.5669 0.90487,-1.26923 z m 1.9143,-3.36132 c -0.32872,-0.32872 -0.74318,-0.45217 -0.92103,-0.27432 -0.17784,0.17784 -0.17418,0.71209 0.008,1.18721 0.25265,0.6584 0.47169,0.72364 0.92102,0.27432 0.44933,-0.44933 0.44739,-0.73168 -0.008,-1.18721 z M 548.52,643.3901 c 0,-0.2639 -0.24433,-0.56126 -0.54296,-0.66081 -0.29863,-0.0995 -0.54296,0.19783 -0.54296,0.66081 0,0.46299 0.24433,0.76035 0.54296,0.66081 0.29863,-0.0995 0.54296,-0.39691 0.54296,-0.66081 z m 1.94454,-1.2925 c 0,-0.26139 -0.34093,-0.47526 -0.75761,-0.47526 -0.78106,0 -1.00344,0.59597 -0.43463,1.16478 0.40352,0.40352 1.19224,-0.0526 1.19224,-0.68952 z"
       id="path2953"
       inkscape:connector-curvature="0"
       transform="scale(0.26458333)" />
    <path
       style="opacity:1;fill:#cccccc;fill-opacity:1;stroke:#13dbff;stroke-width:0.50587165;stroke-linecap:round;stroke-linejoin:round;stroke-miterlimit:4;stroke-dasharray:0.50587167, 0.50587167;stroke-dashoffset:0;stroke-opacity:0;paint-order:fill markers stroke"
       d="m 576.74157,711.29847 c 0.30452,-0.56899 3.52423,-5.73971 7.15491,-11.49048 3.63068,-5.75077 7.04853,-11.19462 7.59521,-12.09744 0.54668,-0.90283 1.296,-1.6415 1.66515,-1.6415 0.36914,0 1.3454,1.42701 2.16947,3.17114 1.86014,3.93701 8.17125,20.70618 8.17125,21.71175 0,1.10311 -3.21992,1.38107 -15.99817,1.38107 -11.24386,0 -11.30818,-0.006 -10.75782,-1.03454 z"
       id="path2955"
       inkscape:connector-curvature="0"
       transform="scale(0.26458333)" />
  </g>
</svg>
