<?xml version="1.0" encoding="UTF-8" standalone="no"?>
<svg
   xmlns:dc="http://purl.org/dc/elements/1.1/"
   xmlns:cc="http://creativecommons.org/ns#"
   xmlns:rdf="http://www.w3.org/1999/02/22-rdf-syntax-ns#"
   xmlns:svg="http://www.w3.org/2000/svg"
   xmlns="http://www.w3.org/2000/svg"
   id="svg1616"
   version="1.1"
   viewBox="0 0 69.053147 98.108223"
   height="98.108223mm"
   width="69.053146mm">
  <defs
     id="defs1610" />
  <metadata
     id="metadata1613">
    <rdf:RDF>
      <cc:Work
         rdf:about="">
        <dc:format>image/svg+xml</dc:format>
        <dc:type
           rdf:resource="http://purl.org/dc/dcmitype/StillImage" />
        <dc:title></dc:title>
      </cc:Work>
    </rdf:RDF>
  </metadata>
  <g
     transform="translate(-40.206847,-108.19081)"
     id="layer1">
    <path
       d="M 0,0.01367188 V 185.41602 370.81641 H 130.49414 260.98828 V 185.41602 70.974609 c -0.69205,-3.522212 -0.50454,-6.430556 -0.23047,-10.183593 -0.003,-0.09289 -0.006,-0.111777 -0.01,-0.25 -0.0113,-0.42584 -0.016,-0.851505 -0.0273,-1.277344 -0.008,-1.598476 0.0114,-3.196446 0.008,-4.794922 -0.004,-1.45406 -0.002,-2.909221 -0.002,-4.363281 -7e-5,-1.425978 -7e-5,-2.851328 0,-4.277344 4e-5,-1.42817 0,-2.856986 0,-4.285156 -0.0512,-1.904628 0.0492,-3.817493 0.26172,-5.722657 V 0.01367188 H 130.49414 Z M 2.8535156,2.8671875 H 129.78125 256.70898 V 185.41602 367.96484 H 129.78125 2.8535156 V 185.41602 Z M 164.11523,19.980469 c -1.72687,0 -18.01182,13.165862 -40.46484,32.71289 -33.659448,29.30306 -37.769674,33.353702 -39.439452,38.863282 -1.02523,3.38306 -8.873387,31.821669 -17.441407,63.197269 -16.25572,59.52748 -21.645987,82.08695 -19.980469,83.63281 0.54312,0.50408 9.879909,3.19299 20.748047,5.97461 10.86819,2.7817 20.06767,5.36454 20.44336,5.74023 0.37559,0.37557 -3.221641,8.01605 -7.994141,16.97852 -4.77256,8.96247 -8.677734,17.054 -8.677734,17.98047 0,0.92651 1.924134,2.06851 4.277344,2.53906 2.353148,0.47063 4.279306,1.01433 4.279296,1.20898 1e-5,0.19442 -1.366899,3.44292 -3.037109,7.21875 -2.57285,5.81609 -2.91607,8.62268 -2.25,18.36524 0.85623,12.52464 4.34494,24.72944 7.875,27.54492 3.78426,3.01822 7.161531,2.01617 13.050781,-3.87305 9.083434,-9.08342 13.313164,-18.84326 13.466794,-31.07226 0.10075,-8.00621 0.56274,-10.17994 2.03907,-9.62305 1.04909,0.39602 4.47505,1.13043 7.61523,1.63281 l 5.71094,0.91211 -1.04297,-21.04101 c -1.00113,-20.21208 -0.93495,-21.01077 1.6543,-20.26563 17.99563,5.17893 36.85536,9.44219 37.73828,8.53125 1.43336,-1.47886 39.83008,-144.58199 39.83007,-148.44531 0,-2.49978 -27.3343,-79.149946 -33.41992,-93.714844 -1.41304,-3.382 -3.02419,-4.998047 -4.98047,-4.998047 z m -0.25585,2.853515 c 0.69887,0 1.7066,1.121451 2.24023,2.494141 6.9536,17.88416 33.5625,91.865465 33.5625,93.314455 0,1.06689 -8.6627,34.27688 -19.25195,73.79883 -10.58925,39.52192 -19.25391,72.00809 -19.25391,72.1914 0,0.183 -8.50333,-1.82853 -18.89648,-4.46875 -10.39316,-2.64023 -19.79509,-4.81886 -20.89454,-4.83398 -1.66839,-0.0276 -1.83775,3.40179 -1.01757,20.75976 0.92377,19.55157 0.8303,20.74736 -1.56641,20.03125 -8.59902,-2.56917 -16.34271,-3.9717 -17.19922,-3.11523 -0.54641,0.54641 -1.13381,4.45078 -1.30469,8.67578 -0.17103,4.22552 -1.685028,10.87427 -3.363278,14.77539 -1.678188,3.90111 -4.224353,8.15554 -5.658203,9.45313 -2.43741,2.206 -2.706924,2.17227 -4.146484,-0.51758 -2.17879,-4.07112 -1.908571,-15.31186 0.599609,-24.94141 1.1761,-4.51722 2.138672,-9.02693 2.138672,-10.02344 0,-0.99655 -3.208879,-2.68592 -7.130859,-3.7539 -3.92193,-1.06794 -7.130859,-2.51897 -7.130859,-3.22461 0,-0.70556 3.531533,-8.18508 7.845703,-16.61914 4.31412,-8.43409 7.84375,-16.32923 7.84375,-17.54492 0,-1.66027 -5.270841,-3.52073 -21.181641,-7.48243 l -21.181641,-5.27539 2.552735,-11.65039 c 2.13475,-9.74351 33.022444,-124.886499 36.083984,-134.513669 0.96269,-3.02725 73.852392,-67.529297 76.310552,-67.529297 z m 97.01953,35.697266 c -0.004,0.142808 -0.0112,0.475985 -0.0176,0.75 0.009,-0.126175 0.0147,-0.217206 0.0234,-0.345703 0.004,-0.620901 0.001,-0.655701 -0.006,-0.404297 z M 91.800781,94.140625 c -2.17091,0 -1.922578,-0.825275 -19.705078,65.568355 -7.45289,27.82654 -13.085978,51.0303 -12.517578,51.56446 0.56839,0.5339 10.659951,3.61521 22.425781,6.8457 11.76582,3.23093 29.422904,8.10433 39.238284,10.83008 9.81543,2.72565 19.17524,4.95703 20.79883,4.95703 1.62364,0 3.42444,0.48008 4.00195,1.06836 0.57745,0.58829 3.73258,1.82076 7.01172,2.73828 11.77893,3.29542 9.84801,7.35322 27.11914,-56.96875 8.58791,-31.98317 15.27496,-58.49113 14.85937,-58.90625 C 194.09116,120.89588 94.369981,94.140625 91.800781,94.140625 Z m 1.365235,5.095703 c 6.3659,0.33248 92.763124,22.537132 96.599604,24.908202 1.06931,0.66088 -3.13295,18.56468 -13.1621,56.07422 -15.87809,59.38481 -14.88148,57.08207 -23.2754,53.80469 -2.52423,-0.98562 -3.08595,-3.61324 -5.08593,-23.78906 -1.79947,-18.15281 -1.91021,-23.96101 -0.55274,-29.09766 1.69102,-6.39866 2.37812,-6.09995 4.10547,1.7832 0.69847,3.18754 1.63855,3.92188 5.02539,3.92188 2.29198,0 4.53625,-0.59438 4.98633,-1.32227 0.44982,-0.72783 -0.76383,-8.78509 -2.69531,-17.9043 -1.93153,-9.11925 -3.21347,-17.34888 -2.84961,-18.28711 0.36362,-0.93825 2.58171,-2.80227 4.92969,-4.14257 5.21989,-2.97959 7.57233,-8.60973 6.625,-15.85743 -1.20606,-9.22766 -9.2743,-14.95759 -18.59766,-13.20898 -13.04051,2.44642 -17.50085,18.24247 -7.82227,27.70508 l 4.1543,4.0625 -17.44726,-3.33399 c -10.58128,-2.0225 -17.96063,-2.82071 -18.75391,-2.02734 -0.26155,0.2612 -0.62358,0.45977 -1.0293,0.58789 -0.007,0.0533 -0.0174,0.1034 -0.0234,0.16406 -0.0474,0.30274 -0.10772,0.60333 -0.20508,0.89454 -0.039,0.14851 -0.10945,0.42753 -0.16407,0.54882 -0.0675,0.26419 -0.13592,0.52779 -0.2207,0.78711 -0.039,0.11059 -0.0935,0.23619 -0.13672,0.35938 0.20757,0.36966 0.20974,0.96927 -0.0508,1.64648 -1.15917,3.02067 2.80395,4.49745 19.76563,7.36524 8.43219,1.42568 15.33203,3.22013 15.33203,3.98828 0,0.76819 -1.35443,6.57378 -3.00977,12.90234 l -3.00976,11.50781 -18.74024,18.15039 c -10.30664,9.98294 -18.738279,18.11341 -18.738279,18.07032 0,-0.22171 -3.642841,-1.35926 -11.025391,-3.44141 -2.79552,-0.78816 -4.613209,-1.30691 -5.730469,-1.78711 -0.0601,-0.008 -0.108455,2.2e-4 -0.171875,-0.0137 -0.12461,-0.0264 -0.24994,-0.0457 -0.375,-0.0703 -0.14223,-0.0265 -0.287067,-0.0473 -0.429687,-0.0723 -0.14521,-0.0227 -0.290597,-0.0403 -0.435547,-0.0664 -0.1494,-0.0227 -0.299539,-0.0457 -0.449219,-0.0684 -0.16331,-0.0189 -0.326141,-0.0408 -0.488281,-0.0684 -0.12518,-0.0227 -0.251173,-0.0311 -0.376953,-0.0488 -0.13875,-0.0264 -0.278569,-0.0378 -0.417969,-0.0586 -0.14268,-0.0265 -0.287218,-0.045 -0.429688,-0.0723 -0.164558,-0.0264 -0.323838,-0.0723 -0.486328,-0.10938 -0.16732,-0.0404 -0.33354,-0.0886 -0.5,-0.13281 -0.13826,-0.0378 -0.277425,-0.0708 -0.416015,-0.10742 -0.153,-0.0431 -0.307008,-0.0798 -0.460938,-0.11914 -0.20674,-0.0559 -0.414395,-0.11165 -0.621093,-0.16797 -0.18834,-0.0548 -0.380593,-0.097 -0.570313,-0.14648 -0.17813,-0.0461 -0.355193,-0.0961 -0.533203,-0.14258 -0.1494,-0.0393 -0.299789,-0.0759 -0.449219,-0.11524 -0.13175,-0.034 -0.261788,-0.0692 -0.392578,-0.10547 -0.13036,-0.0302 -0.257779,-0.0727 -0.386719,-0.10937 -0.13505,-0.0378 -0.269267,-0.0759 -0.404297,-0.11328 -0.14683,-0.0378 -0.293353,-0.0724 -0.439453,-0.11133 -0.14918,-0.034 -0.300102,-0.0685 -0.451172,-0.0957 -0.15481,-0.0227 -0.309973,-0.0411 -0.464843,-0.0664 -0.11372,-0.0189 -0.2287,-0.0331 -0.34375,-0.043 -0.16773,-0.0227 -0.334915,-0.0474 -0.501953,-0.0742 -0.17987,-0.0227 -0.359113,-0.0543 -0.539063,-0.0781 -0.25701,-0.034 -0.513811,-0.0702 -0.769531,-0.11328 -0.279,-0.0484 -0.556212,-0.10763 -0.832032,-0.17188 -0.252088,-0.059 -0.503826,-0.12217 -0.753906,-0.18945 -0.17598,-0.0457 -0.352887,-0.0909 -0.529297,-0.13477 -0.15417,-0.045 -0.3082,-0.0839 -0.46289,-0.12695 -0.1522,-0.0378 -0.300122,-0.0888 -0.451172,-0.12891 -0.13727,-0.048 -0.280635,-0.0749 -0.421875,-0.10742 -0.13916,-0.034 -0.280042,-0.0565 -0.419922,-0.0879 -0.12416,-0.0265 -0.25054,-0.0446 -0.375,-0.0703 -0.15405,-0.0264 -0.303805,-0.066 -0.453125,-0.11133 -0.10137,-0.0227 -0.194082,-0.0813 -0.294922,-0.10547 -0.1073,-0.0431 -0.218002,-0.0768 -0.326172,-0.11719 -0.0769,-0.0189 -0.152055,-0.0464 -0.228515,-0.0684 -0.16562,-0.0389 -0.31918,-0.11085 -0.46875,-0.18946 -0.20202,-0.11226 -0.388294,-0.26991 -0.501954,-0.47461 -0.0374,-0.0677 -0.06205,-0.14065 -0.09375,-0.21093 -0.0518,-0.15826 -0.06407,-0.31403 -0.04687,-0.4668 v -0.002 c -0.32872,-0.5923 -0.44805,-1.33462 -0.25586,-2.04687 0.34136,-1.26447 6.888028,-25.72529 14.548828,-54.35547 7.66079,-28.63023 14.461982,-52.632734 15.113282,-53.339842 0.0333,-0.0362 0.155968,-0.04781 0.361328,-0.03711 z m 59.214844,20.652342 c 4.63678,0.15019 9.3051,2.87469 11.54297,8.27735 2.2212,5.36247 -0.8576,11.97674 -7.07031,15.18945 -5.25164,2.71578 -5.48103,6.9961 -1.3711,25.58789 1.60893,7.27268 2.28569,13.30029 1.57617,14.00976 -0.70946,0.70945 -2.01188,-2.8195 -3.02734,-8.20117 -2.35423,-12.4769 -5.34091,-12.24519 -9.01758,0.69727 -2.37504,8.36047 -2.47344,11.04263 -1.01172,27.79297 0.88982,10.19705 1.97638,20.62649 2.41407,23.17578 0.46862,2.72848 0.19513,4.63476 -0.66407,4.63476 -1.5043,0 -2.38677,-4.44845 -3.81836,-19.25195 -1.43622,-14.85117 -2.37217,-19.25623 -4.07812,-19.18555 -0.91154,0.0376 -8.38163,6.41474 -16.60156,14.17188 -8.21987,7.75711 -15.27892,13.75535 -15.6875,13.33008 -0.40842,-0.42516 7.09,-8.24638 16.66406,-17.38086 l 17.4082,-16.60742 3.62695,-13.54883 c 1.99508,-7.45171 3.62832,-14.54119 3.62891,-15.75586 7.6e-4,-1.70245 -4.08369,-2.95512 -17.82617,-5.4668 -9.80487,-1.7921 -17.82813,-3.84731 -17.82813,-4.5664 1e-5,-1.6278 -1.77779,-1.79524 16.40235,1.54492 20.38959,3.74601 22.10547,3.70885 22.10547,-0.47266 0,-2.06245 -1.31911,-4.02907 -3.47266,-5.18164 -4.28151,-2.29094 -7.13438,-8.78626 -5.94336,-13.53125 1.57985,-6.29457 6.79381,-9.43194 12.04883,-9.26172 z m -0.51563,2.77539 c -7.98627,0 -11.8613,8.47248 -7.02929,15.3711 2.66827,3.8095 10.67141,4.3359 14.08008,0.92773 2.88851,-2.88855 2.88851,-11.16813 0,-14.05664 -1.23259,-1.23258 -4.40591,-2.24219 -7.05079,-2.24219 z m 0.26758,3.19336 c 1.28814,-0.0358 2.59931,0.57002 3.85938,1.83008 2.91305,2.91319 2.93511,5.55956 0.0703,8.42383 -3.09259,3.0926 -5.75943,2.80408 -8.35547,-0.90235 -1.87551,-2.67791 -1.91384,-3.57365 -0.26562,-6.06054 1.41788,-2.13933 3.03522,-3.24505 4.6914,-3.29102 z m -15.53125,72.48633 0.8086,6.01563 c 0.44474,3.30805 1.23166,10.34604 1.74804,15.64062 0.74779,7.6695 0.54289,9.6058 -1.00976,9.52539 -2.37299,-0.12382 -25.52604,-6.59833 -26.27539,-7.34766 -0.29393,-0.29394 5.1502,-5.77649 12.09765,-12.18359 z M 85.138672,290.1875 c 1.32881,-0.10205 1.454182,3.60346 -0.236328,10.09375 -2.51464,9.65432 -2.857585,22.40332 -0.708985,26.41797 1.84513,3.44754 7.328427,3.57451 10.347657,0.23828 4.58098,-5.06195 8.078824,-15.20167 8.111324,-23.50586 0.0172,-4.50979 0.67265,-8.20117 1.45704,-8.20117 0.81131,0 1.41692,4.15068 1.4121,9.62695 -0.016,11.01823 -3.7531,20.66954 -11.355464,29.32813 v 0.002 c -8.25346,9.40018 -11.09103,7.06909 -15.21875,-12.49805 -2.34583,-11.1202 -1.615401,-18.6075 2.630859,-26.98437 1.53287,-3.02401 2.763267,-4.45634 3.560547,-4.51758 z"
       style="fill:#000000;stroke-width:1.42616272"
       transform="matrix(0.26458333,0,0,0.26458333,40.206847,108.18719)"
       id="path2174" />
    <path
       id="path2180"
       d="m 61.859877,184.3366 7.738854,2.07362"
       style="fill:none;stroke:#000000;stroke-width:0.26458332px;stroke-linecap:butt;stroke-linejoin:miter;stroke-opacity:1" />
    <circle
       r="1.3029389"
       cy="162.88823"
       cx="59.988987"
       id="path2869"
       style="opacity:1;fill:#ff0000;fill-opacity:1;stroke:#ff0000;stroke-width:0.5;stroke-linecap:round;stroke-linejoin:round;stroke-miterlimit:4;stroke-dasharray:none;stroke-dashoffset:10.62047291;stroke-opacity:1;paint-order:fill markers stroke" />
    <path
       id="path2888"
       d="m 68.582673,146.36836 c -6.935162,2.2137 -8.352308,14.68693 -8.333793,14.68693"
       style="fill:none;stroke:#000000;stroke-width:0.26499999;stroke-linecap:butt;stroke-linejoin:miter;stroke-miterlimit:4;stroke-dasharray:0.265, 0.265;stroke-dashoffset:0;stroke-opacity:1" />
    <path
       id="path2905"
       d="m 40.961841,157.13778 v -48.19197 h 33.450894 33.450895 v 48.19197 48.19196 H 74.412735 40.961841 Z m 23.292628,41.38052 c 0.858001,-0.56832 2.542902,-2.49042 3.306414,-3.77189 0.774825,-1.30047 1.20255,-3.00747 1.35934,-5.42498 0.08337,-1.2855 0.192693,-2.37838 0.242932,-2.42862 0.05024,-0.0502 0.635376,0.032 1.3003,0.18272 0.664925,0.15073 1.498984,0.30123 1.85347,0.33445 l 0.644517,0.0604 -0.04066,-1.51191 c -0.02236,-0.83155 -0.119422,-2.95766 -0.215686,-4.7247 -0.09626,-1.76704 -0.175347,-3.42541 -0.175739,-3.68527 -0.0016,-1.05489 0.03373,-1.05423 4.54594,0.086 2.32325,0.5871 4.64849,1.08432 5.1672,1.10492 l 0.9431,0.0375 0.5354,-1.79538 c 1.59752,-5.35699 9.06226,-33.26149 9.69224,-36.23126 l 0.31222,-1.47187 -1.63752,-4.7247 c -2.5635,-7.39643 -6.50714,-18.19375 -7.19326,-19.69445 -0.79012,-1.72818 -1.1724,-1.87838 -2.48505,-0.97638 -2.23912,1.53864 -15.162487,12.67352 -18.068273,15.56778 -0.809832,0.80662 -1.602965,1.71902 -1.762511,2.02755 -0.315487,0.61008 -0.548302,1.41446 -3.187544,11.013 -5.124773,18.63804 -7.090172,26.41145 -7.090172,28.04257 0,0.84087 -0.375304,0.69343 6.331101,2.4873 2.3907,0.63947 4.406997,1.21887 4.480665,1.28755 0.07367,0.0687 -0.886139,2.1528 -2.132904,4.63139 -2.486975,4.94414 -2.468401,4.85118 -1.049671,5.25406 0.429427,0.12194 0.844479,0.27533 0.922333,0.34086 0.07785,0.0655 -0.154464,0.83785 -0.516261,1.71627 -0.608179,1.47664 -0.658071,1.74856 -0.661268,3.60401 -0.007,4.06848 1.116315,8.24103 2.40718,8.94138 0.767426,0.41637 1.208788,0.35982 2.172168,-0.27829 z"
       style="opacity:1;fill:#000000;fill-opacity:1;stroke:#000000;stroke-width:0.1892857;stroke-linecap:round;stroke-linejoin:round;stroke-miterlimit:4;stroke-dasharray:0.18928571, 0.18928571;stroke-dashoffset:0;stroke-opacity:1;paint-order:fill markers stroke" />
    <path
       id="path2911"
       d="m 71.354807,186.37492 c -0.01889,-0.0189 -0.622559,-0.1835 -1.341477,-0.36579 -1.257847,-0.31894 -2.701579,-0.56469 -2.890828,-0.49207 -0.136641,0.0524 -3.445036,-0.84693 -3.657195,-0.99418 -0.256728,-0.17818 -0.89948,-0.43254 -1.686711,-0.66746 -0.797205,-0.23791 -1.622856,-0.60551 -1.677022,-0.74667 -0.05476,-0.1427 0.477933,-1.3153 1.788713,-3.93743 1.222089,-2.4447 1.955716,-4.02399 2.203604,-4.74374 l 0.156948,-0.45571 -0.206066,-0.18491 c -0.49167,-0.4412 -1.974215,-0.8918 -7.395813,-2.24785 -1.990272,-0.4978 -3.623384,-0.91119 -3.629136,-0.91862 -0.03157,-0.0408 0.769657,-3.52233 1.176229,-5.11103 1.775108,-6.93633 7.701711,-28.98893 8.800624,-32.7467 0.226658,-0.77506 0.264805,-0.85206 0.603337,-1.21771 1.658035,-1.79088 12.709663,-11.65704 17.589033,-15.70233 1.45973,-1.2102 2.05967,-1.66303 2.20329,-1.66303 0.13473,0 0.34669,0.22102 0.49684,0.51807 0.52101,1.0308 8.92609,24.37169 8.92609,24.78774 0,0.31377 -2.39574,9.4442 -6.78095,25.8429 -1.04169,3.89545 -2.2293,8.345 -2.63913,9.88789 -0.40983,1.54289 -0.75609,2.8162 -0.76946,2.82957 -0.0375,0.0375 -1.09557,-0.20919 -3.97574,-0.92674 -3.11682,-0.77651 -4.917356,-1.20561 -5.87451,-1.4 -0.682723,-0.13866 -0.6986,-0.13895 -0.822481,-0.0151 -0.292674,0.29267 -0.305284,1.28926 -0.0788,6.22745 0.121055,2.63942 0.109971,4.19771 -0.03106,4.36742 -0.08542,0.1028 -0.41088,0.15344 -0.488329,0.076 z m 11.38173,-15.10643 c 0.78008,-0.39846 1.42484,-2.14673 3.18868,-8.6462 3.40799,-12.55789 5.8674,-22.1731 5.70848,-22.31766 -0.0892,-0.0811 -0.79218,-0.29338 -3.29519,-0.99497 -8.20079,-2.2987 -23.554194,-6.35429 -24.055662,-6.35429 -0.231531,0 -0.361582,0.15091 -0.568147,0.65927 -0.412136,1.01427 -1.535375,5.06752 -4.900086,17.6821 -1.535142,5.75537 -3.078065,12.08039 -3.082409,12.63592 -0.0016,0.19605 1.83584,0.74174 11.224739,3.3337 8.107185,2.23811 9.382365,2.56467 10.590555,2.71211 0.63603,0.0776 0.91211,0.15971 1.20458,0.35818 0.25556,0.17343 0.85803,0.39191 2.10288,0.76261 1.22505,0.36479 1.45774,0.38572 1.88158,0.16923 z"
       style="opacity:1;fill:#0000ff;fill-opacity:1;stroke:#000000;stroke-width:0.06692261;stroke-linecap:round;stroke-linejoin:round;stroke-miterlimit:4;stroke-dasharray:0.06692261, 0.06692261;stroke-dashoffset:0;stroke-opacity:1;paint-order:fill markers stroke" />
    <path
       id="path2915"
       d="m 62.631554,197.74748 c -0.54143,-0.33013 -0.995653,-1.50001 -1.557422,-4.01122 -0.607528,-2.71577 -0.614018,-4.4933 -0.02294,-6.28083 0.233915,-0.7074 0.84143,-1.92009 1.131893,-2.25943 0.662686,-0.7742 0.785886,0.18606 0.289877,2.25943 -0.694536,2.90324 -0.764426,6.08027 -0.156787,7.12694 0.419444,0.72249 1.535441,0.88184 2.348397,0.3353 0.994894,-0.66884 2.083184,-2.95224 2.426047,-5.09023 0.04125,-0.25724 0.101002,-0.97887 0.132776,-1.60361 0.0745,-1.46493 0.210993,-2.12042 0.401794,-1.92962 0.30643,0.30643 0.351002,3.41933 0.06781,4.73595 -0.485842,2.25879 -1.564871,4.22163 -3.260962,5.93195 -0.58657,0.59149 -1.089199,0.91706 -1.415073,0.91658 -0.09385,-1.3e-4 -0.267282,-0.0592 -0.385419,-0.13121 z"
       style="opacity:1;fill:#ffff00;fill-opacity:1;stroke:#000000;stroke-width:0.06692261;stroke-linecap:round;stroke-linejoin:round;stroke-miterlimit:4;stroke-dasharray:0.06692261, 0.06692261;stroke-dashoffset:0;stroke-opacity:1;paint-order:fill markers stroke" />
    <path
       id="path2917"
       d="m 63.134223,194.10744 c -0.316508,-0.63483 -0.429916,-3.06479 -0.212299,-4.54892 0.157025,-1.07091 0.884513,-4.28626 0.994722,-4.39646 0.05507,-0.0551 2.631948,0.59393 2.729003,0.68731 0.1167,0.11229 -0.305081,3.37877 -0.572305,4.4322 -0.491897,1.93911 -1.869299,4.327 -2.495941,4.327 -0.106331,0 -0.305763,-0.22551 -0.44318,-0.50113 z"
       style="opacity:1;fill:#ff6600;fill-opacity:1;stroke:#000000;stroke-width:0.13384521;stroke-linecap:round;stroke-linejoin:round;stroke-miterlimit:4;stroke-dasharray:0.13384521, 0.13384521;stroke-dashoffset:0;stroke-opacity:1;paint-order:fill markers stroke" />
    <path
       id="path2939"
       d="m 78.378967,168.9086 c -0.20788,-0.38844 -0.38919,-1.57317 -0.76346,-4.98874 -0.43772,-3.9947 -0.64055,-4.94449 -1.05591,-4.94449 -0.25417,0 -2.035433,1.48479 -4.420369,3.68464 -2.478058,2.28574 -3.665995,3.31584 -3.739335,3.24249 -0.05579,-0.0558 3.845079,-3.95562 7.190374,-7.18849 l 1.44448,-1.39594 0.40223,-1.47655 c 0.75703,-2.77901 1.45285,-5.73292 1.45285,-6.16768 0,-0.40192 -0.0528,-0.45436 -0.70241,-0.6974 -0.38632,-0.14455 -2.11342,-0.54579 -3.837989,-0.89166 -3.303871,-0.6626 -4.814036,-1.06274 -4.814036,-1.27554 0,-0.18994 0.04461,-0.18401 4.08595,0.54349 3.974505,0.71546 5.474735,0.85604 5.848025,0.548 0.31709,-0.26165 0.28695,-1.10148 -0.0551,-1.53637 -0.15257,-0.19396 -0.53068,-0.52693 -0.84025,-0.73992 -0.70417,-0.48448 -1.28293,-1.51579 -1.38035,-2.45968 -0.0942,-0.91279 0.32324,-1.92989 1.04597,-2.54852 1.79945,-1.54027 4.60031,-0.55712 5.20023,1.82536 0.30012,1.1919 -0.38448,2.48207 -1.81564,3.42165 -1.16641,0.76578 -1.32549,1.12492 -1.22042,2.75543 0.0426,0.66149 0.29252,2.22502 0.55533,3.4745 0.5361,2.54877 0.75733,4.65576 0.42795,4.07586 -0.10436,-0.18375 -0.34745,-1.01515 -0.5402,-1.84756 -0.44299,-1.91318 -0.67768,-2.42875 -1.10559,-2.42875 -0.43417,0 -0.76404,0.56488 -1.24858,2.13816 -0.62786,2.03858 -0.72149,2.76325 -0.62774,4.8585 0.0818,1.82886 0.45445,5.99071 0.7769,8.67741 0.11125,0.92699 0.11546,1.3499 0.0144,1.45092 -0.10103,0.10103 -0.18186,0.0692 -0.2773,-0.10912 z m 3.41314,-23.77718 c 0.5735,-0.41923 0.85872,-1.12353 0.86455,-2.13484 0.01,-1.70055 -0.71547,-2.4628 -2.34333,-2.4628 -0.93781,0 -1.52551,0.23273 -1.99418,0.78971 -1.01262,1.20343 -0.65504,3.16288 0.70486,3.86251 0.77577,0.39912 2.18549,0.37132 2.7681,-0.0546 z"
       style="opacity:1;fill:#ffaaaa;fill-opacity:1;stroke:#13dbff;stroke-width:0.13384521;stroke-linecap:round;stroke-linejoin:round;stroke-miterlimit:4;stroke-dasharray:0.13384521, 0.13384521;stroke-dashoffset:0;stroke-opacity:0;paint-order:fill markers stroke" />
    <path
       id="path2941"
       d="m 79.386787,144.02305 c -0.25827,-0.28587 -0.5089,-0.64368 -0.55697,-0.79513 -0.18352,-0.57821 0.81407,-1.7587 1.48621,-1.7587 0.64417,0 1.51376,0.89345 1.51376,1.5553 0,0.33176 -0.52636,1.05494 -0.94995,1.30516 -0.58799,0.34733 -0.97382,0.26809 -1.49305,-0.30663 z"
       style="opacity:1;fill:#ffaaaa;fill-opacity:1;stroke:#13dbff;stroke-width:0.13384521;stroke-linecap:round;stroke-linejoin:round;stroke-miterlimit:4;stroke-dasharray:0.13384521, 0.13384521;stroke-dashoffset:0;stroke-opacity:0;paint-order:fill markers stroke" />
    <path
       id="path2949"
       d="m 80.890617,170.03513 c -0.54727,-0.2414 -0.65562,-0.35803 -0.83537,-0.89922 -0.39765,-1.19719 -1.21585,-9.65786 -1.10663,-11.44316 0.0681,-1.11281 0.45227,-2.73952 0.64701,-2.73952 0.10039,0 0.3593,0.76766 0.59386,1.76083 0.14605,0.6184 0.52523,0.8424 1.39226,0.82247 0.42598,-0.01 0.90835,-0.0894 1.07193,-0.17698 0.2778,-0.14868 0.29126,-0.2179 0.20395,-1.04889 -0.0514,-0.48934 -0.36169,-2.27283 -0.6895,-3.9633 -0.3278,-1.69049 -0.60786,-3.49173 -0.62235,-4.00276 l -0.0263,-0.92916 0.66565,-0.47401 c 1.89037,-1.34614 2.43272,-2.33422 2.31218,-4.21248 -0.1087,-1.69367 -0.93857,-3.0083 -2.32369,-3.68106 -0.52687,-0.25589 -0.87567,-0.31903 -1.79284,-0.32449 -1.02448,-0.006 -1.22815,0.0372 -2.0304,0.43219 -1.82855,0.90019 -2.74716,2.96245 -2.1834,4.90171 0.28517,0.98096 0.47864,1.29183 1.39593,2.24308 0.40754,0.42262 0.69614,0.7684 0.64135,0.7684 -0.0548,0 -1.01508,-0.1768 -2.13397,-0.3929 -4.784788,-0.92409 -6.622152,-1.1701 -7.045787,-0.94338 -0.538917,0.28842 -0.834009,0.66858 -0.67123,0.86472 0.08303,0.10004 0.109411,0.33381 0.05992,0.53098 -0.196225,0.78183 0.683983,1.15021 4.326792,1.81086 2.702555,0.49013 4.479855,0.90749 4.770965,1.12035 0.19562,0.14304 0.14028,0.45834 -0.5783,3.2944 l -0.79462,3.13622 -2.387392,2.3198 c -1.313069,1.27589 -3.537201,3.4257 -4.94252,4.77737 l -2.555122,2.45757 -2.24618,-0.67393 c -1.235398,-0.37065 -2.506051,-0.70954 -2.823676,-0.75308 -0.317624,-0.0435 -0.577498,-0.095 -0.577498,-0.11444 0,-0.0194 0.210473,-0.24577 0.46772,-0.50301 0.392078,-0.39208 0.467722,-0.56234 0.467722,-1.05271 0,-0.80727 -0.543824,-1.5661 -1.129212,-1.57565 -0.202682,-0.003 -0.224952,-0.0399 -0.100227,-0.16461 0.218252,-0.21825 0.201546,-0.37418 -0.04009,-0.37418 -0.110249,0 -0.200453,0.0845 -0.200453,0.18777 0,0.10328 -0.250219,0.26865 -0.556041,0.3675 -0.734282,0.23733 -1.09212,0.73387 -1.09212,1.51541 0,0.33601 0.07016,0.68109 0.155905,0.76683 0.196178,0.19618 0.200605,0.36973 0.0094,0.36973 -0.447879,0 -1.609714,-0.45387 -1.7281,-0.67507 -0.1056,-0.19732 0.274024,-1.78859 1.679414,-7.03962 4.455348,-16.64677 5.949101,-21.95277 6.179915,-21.95185 0.315947,0.001 6.080074,1.3699 10.597265,2.51622 8.44498,2.14305 14.72108,3.89348 14.87961,4.14999 0.1823,0.29497 -1.42451,6.93048 -4.12957,17.05358 -2.37014,8.86971 -3.09925,11.18352 -3.74289,11.87802 -0.38779,0.41843 -0.60658,0.42812 -1.43327,0.0635 z m -20.418645,-9.53606 c 0,-0.11024 -0.05659,-0.20045 -0.125748,-0.20045 -0.168511,0 -0.289198,0.20869 -0.182433,0.31545 0.150498,0.1505 0.308181,0.0917 0.308181,-0.115 z m 0.133636,-0.53453 c 0,-0.11025 -0.0902,-0.20046 -0.200454,-0.20046 -0.110246,0 -0.20045,0.0902 -0.20045,0.20046 0,0.11024 0.0902,0.20045 0.20045,0.20045 0.11025,0 0.200454,-0.0902 0.200454,-0.20045 z M 60.739241,159.43 c 0,-0.11025 -0.0902,-0.20045 -0.200451,-0.20045 -0.110249,0 -0.200451,0.0902 -0.200451,0.20045 0,0.11025 0.0902,0.20045 0.200451,0.20045 0.110249,0 0.200451,-0.0902 0.200451,-0.20045 z m 0.04833,-0.53454 c 0.04686,-0.12211 2.12e-4,-0.20045 -0.119337,-0.20045 -0.107942,0 -0.196258,0.0902 -0.196258,0.20045 0,0.11025 0.0537,0.20045 0.119338,0.20045 0.06564,0 0.15395,-0.0902 0.196257,-0.20045 z m 0.08531,-0.54568 c 0,-0.23599 -0.287684,-0.19489 -0.370279,0.0529 -0.02909,0.0873 0.04232,0.15869 0.158692,0.15869 0.116371,0 0.211587,-0.0952 0.211587,-0.21159 z m 0.133636,-0.53454 c 0,-0.23599 -0.287684,-0.19489 -0.370282,0.0529 -0.02909,0.0873 0.04232,0.15869 0.158692,0.15869 0.116374,0 0.21159,-0.0952 0.21159,-0.21159 z m 0.108021,-0.4666 c -0.02635,-0.079 -0.105016,-0.14366 -0.174839,-0.14366 -0.06982,0 -0.148503,0.0646 -0.174839,0.14366 -0.02633,0.079 0.05234,0.14365 0.174839,0.14365 0.122499,0 0.201176,-0.0646 0.174839,-0.14365 z m 0.104558,-0.60792 c -0.06857,-0.1787 -0.122949,-0.19332 -0.249253,-0.067 -0.126304,0.12631 -0.118904,0.1879 0.03392,0.28235 0.248844,0.1538 0.326994,0.0756 0.215334,-0.21533 z m 0.188325,-0.38432 c 0,-0.11025 -0.0902,-0.20046 -0.200453,-0.20046 -0.20868,0 -0.265126,0.15806 -0.111363,0.31182 0.153765,0.15376 0.311816,0.0973 0.311816,-0.11136 z m 0.133633,-0.54568 c 0,-0.11637 -0.07141,-0.18778 -0.158691,-0.15869 -0.247788,0.0826 -0.288886,0.37028 -0.0529,0.37028 0.116372,0 0.211587,-0.0952 0.211587,-0.21159 z m 0.153681,-0.5234 c 0,-0.0698 -0.06465,-0.1485 -0.143658,-0.17484 -0.07901,-0.0264 -0.143656,0.0523 -0.143656,0.17484 0,0.1225 0.06465,0.20118 0.143656,0.17484 0.07901,-0.0263 0.143658,-0.10502 0.143658,-0.17484 z m 0.216599,-0.49278 c -0.08259,-0.24779 -0.37028,-0.28889 -0.37028,-0.0529 0,0.11638 0.09522,0.21159 0.21159,0.21159 0.116372,0 0.187783,-0.0714 0.15869,-0.15869 z m 0.164261,-0.44266 c 0,-0.11025 -0.0902,-0.20046 -0.200454,-0.20046 -0.208679,0 -0.265126,0.15805 -0.11136,0.31182 0.153762,0.15376 0.311814,0.0973 0.311814,-0.11136 z m 0.236643,-0.5763 c 0.02909,-0.0873 -0.04232,-0.1587 -0.158692,-0.1587 -0.116371,0 -0.211587,0.0952 -0.211587,0.21159 0,0.23599 0.287684,0.19489 0.370279,-0.0529 z m 0.133636,-0.45102 c -0.0826,-0.24779 -0.370279,-0.28889 -0.370279,-0.0529 0,0.11638 0.09521,0.21159 0.211587,0.21159 0.116374,0 0.187785,-0.0714 0.158692,-0.15869 z m 0.163142,-0.64664 c -0.176408,-0.11153 -0.176279,-0.12638 0.0011,-0.12911 0.218956,-0.003 0.570479,-0.63655 0.456121,-0.82158 -0.03904,-0.0632 0.0077,-0.11533 0.103941,-0.11591 0.19947,-0.001 0.538076,-0.64564 0.430599,-0.81954 -0.03905,-0.0632 0.02777,-0.11486 0.148479,-0.11486 0.224256,0 0.215035,-0.28452 -0.01159,-0.358 -0.153101,-0.0497 -0.479922,0.61753 -0.380949,0.77768 0.03904,0.0632 -0.0077,0.11533 -0.103942,0.1159 -0.199469,0.001 -0.538075,0.64564 -0.430599,0.81954 0.03905,0.0632 0.0094,0.11486 -0.06583,0.11486 -0.204745,0 -0.445788,0.52489 -0.352584,0.76778 0.06371,0.16603 0.116729,0.17712 0.243033,0.0508 0.126305,-0.1263 0.118063,-0.18904 -0.03779,-0.28757 z m 1.604735,-2.60236 c 0,-0.11025 -0.0902,-0.20045 -0.200454,-0.20045 -0.208679,0 -0.265125,0.15805 -0.11136,0.31182 0.153762,0.15376 0.311814,0.0973 0.311814,-0.11137 z m 0.267269,-0.30204 c 0,-0.0559 0.135305,-0.25369 0.300678,-0.43959 0.710154,-0.7983 0.789609,-0.92001 0.697716,-1.06869 -0.13091,-0.21182 -1.029803,0.80073 -0.933542,1.05158 0.04766,0.12419 0.0053,0.16163 -0.125876,0.11128 -0.224523,-0.0862 -0.397383,0.11222 -0.273063,0.31338 0.09683,0.15667 0.334087,0.17943 0.334087,0.032 z m 1.718574,-1.90293 c 0.08377,0 0.152313,-0.0902 0.152313,-0.20045 0,-0.11025 -0.06202,-0.20046 -0.137829,-0.20046 -0.07581,0 -0.172443,0.0902 -0.214749,0.20046 -0.04231,0.11025 -0.160692,0.20045 -0.263076,0.20045 -0.200424,0 -0.246104,0.16278 -0.0896,0.31928 0.05311,0.0531 0.164976,0.003 0.248594,-0.11136 0.08362,-0.11436 0.220576,-0.20792 0.304345,-0.20792 z m 0.553218,-0.46772 c 0,-0.11025 -0.0902,-0.20045 -0.200454,-0.20045 -0.20868,0 -0.265126,0.15805 -0.11136,0.31181 0.153762,0.15377 0.311814,0.0973 0.311814,-0.11136 z m 0.451016,-0.17342 c 0.117436,-0.19002 -0.114247,-0.41985 -0.304622,-0.30219 -0.09935,0.0614 -0.139317,0.1785 -0.08881,0.26021 0.107312,0.17364 0.299397,0.19413 0.393435,0.042 z m 0.430434,-0.34635 c 0.0412,-0.10736 0.180361,-0.15716 0.329893,-0.11805 0.256193,0.067 0.364937,-0.14934 0.143777,-0.28602 -0.170191,-0.10519 -0.818331,0.22912 -0.81954,0.42271 -0.0013,0.22637 0.257197,0.21243 0.34587,-0.0187 z"
       style="opacity:1;fill:#cccccc;fill-opacity:1;stroke:#13dbff;stroke-width:0.13384521;stroke-linecap:round;stroke-linejoin:round;stroke-miterlimit:4;stroke-dasharray:0.13384521, 0.13384521;stroke-dashoffset:0;stroke-opacity:0;paint-order:fill markers stroke" />
    <path
       id="path2951"
       d="m 74.303173,168.19573 c -1.028988,-0.27656 -2.495558,-0.69755 -3.259042,-0.93553 l -1.388152,-0.43268 0.586345,-0.60535 c 0.322491,-0.33295 1.749433,-1.69139 3.170989,-3.01878 1.774114,-1.65659 2.616954,-2.36114 2.687674,-2.24671 0.21971,0.35549 0.88587,6.89818 0.75532,7.41833 -0.11236,0.44769 -0.2586,0.43742 -2.553134,-0.17928 z"
       style="opacity:1;fill:#cccccc;fill-opacity:1;stroke:#13dbff;stroke-width:0.13384521;stroke-linecap:round;stroke-linejoin:round;stroke-miterlimit:4;stroke-dasharray:0.13384521, 0.13384521;stroke-dashoffset:0;stroke-opacity:0;paint-order:fill markers stroke" />
  </g>
</svg>
